<?xml version="1.0" encoding="UTF-8"?>
<svg id="Layer_1" xmlns="http://www.w3.org/2000/svg" xmlns:xlink="http://www.w3.org/1999/xlink" version="1.1" viewBox="0 0 1638 2031.7">
  <!-- Generator: Adobe Illustrator 30.5.1, SVG Export Plug-In . SVG Version: 2.1.4 Build 3)  -->
  <defs>
    <style>
      .st0 {
        fill: url(#linear-gradient);
      }

      .st1 {
        isolation: isolate;
      }

      .st2 {
        mix-blend-mode: overlay;
        opacity: .6;
      }

      .st3 {
        fill: #b7b7b7;
        stroke: #fff;
        stroke-width: .9px;
      }
    </style>
    <linearGradient id="linear-gradient" x1="1638" y1="-504.1" x2="0" y2="-504.1" gradientTransform="translate(0 1520.0002)" gradientUnits="userSpaceOnUse">
      <stop offset="0" stop-color="#050505"/>
      <stop offset=".5" stop-color="#201e1a"/>
      <stop offset=".9" stop-color="#050505"/>
    </linearGradient>
  </defs>
  <g class="st1">
    <g id="Layer_11" data-name="Layer_1">
      <path class="st0" d="M0,0h1638v2031.7H0V0Z"/>
      <g class="st2">
        <path class="st3" d="M157.6,88.9v.9h-87.6v-.9h87.6,0ZM159.5.4v87.6h-.9V.4h.9Z"/>
        <path class="st3" d="M247.2,88.9v.9h-87.6v-.9h87.6ZM249,.4v87.6h-.9V.4h.9Z"/>
        <path class="st3" d="M336.7,88.9v.9h-87.6v-.9h87.6ZM338.5.4v87.6h-.9V.4h.9Z"/>
        <path class="st3" d="M426.2,88.9v.9h-87.6v-.9h87.6ZM428,.4v87.6h-.9V.4h.9Z"/>
        <path class="st3" d="M515.7,88.9v.9h-87.6v-.9h87.6ZM517.5.4v87.6h-.9V.4h.9Z"/>
        <path class="st3" d="M605.2,88.9v.9h-87.6v-.9h87.6ZM607,.4v87.6h-.9V.4h.9Z"/>
        <path class="st3" d="M694.7,88.9v.9h-87.6v-.9h87.6ZM696.6.4v87.6h-.9V.4h.9Z"/>
        <path class="st3" d="M784.2,88.9v.9h-87.6v-.9h87.6ZM786.1.4v87.6h-.9V.4h.9Z"/>
        <path class="st3" d="M873.7,88.9v.9h-87.6v-.9h87.6ZM875.6.4v87.6h-.9V.4h.9Z"/>
        <path class="st3" d="M963.2,88.9v.9h-87.6v-.9h87.6ZM965.1.4v87.6h-.9V.4h.9Z"/>
        <path class="st3" d="M1052.7,88.9v.9h-87.6v-.9h87.6ZM1054.6.4v87.6h-.9V.4h.9Z"/>
        <path class="st3" d="M1142.2,88.9v.9h-87.6v-.9h87.6ZM1144.1.4v87.6h-.9V.4h.9Z"/>
        <path class="st3" d="M1231.7,88.9v.9h-87.6v-.9h87.6ZM1233.6.4v87.6h-.9V.4h.9Z"/>
        <path class="st3" d="M1321.2,88.9v.9h-87.6v-.9h87.6ZM1323.1.4v87.6h-.9V.4h.9Z"/>
        <path class="st3" d="M1410.7,88.9v.9h-87.6v-.9h87.6ZM1412.6.4v87.6h-.9V.4h.9Z"/>
        <path class="st3" d="M1500.3,88.9v.9h-87.6v-.9h87.6ZM1502.1.4v87.6h-.9V.4h.9Z"/>
        <path class="st3" d="M157.6,178.6v.9h-87.6v-.9h87.6,0ZM159.5,89.9v87.6h-.9v-87.6s.9,0,.9,0Z"/>
        <path class="st3" d="M247.2,178.6v.9h-87.6v-.9h87.6ZM249,89.9v87.6h-.9v-87.6s.9,0,.9,0Z"/>
        <path class="st3" d="M336.7,178.6v.9h-87.6v-.9h87.6ZM338.5,89.9v87.6h-.9v-87.6s.9,0,.9,0Z"/>
        <path class="st3" d="M427.1,89.9v88.6h-88.6v-88.6s88.6,0,88.6,0Z"/>
        <path class="st3" d="M426.2,178.6v.9h-87.6v-.9h87.6ZM428,89.9v87.6h-.9v-87.6s.9,0,.9,0Z"/>
        <path class="st3" d="M515.7,178.6v.9h-87.6v-.9h87.6ZM517.5,89.9v87.6h-.9v-87.6s.9,0,.9,0Z"/>
        <path class="st3" d="M605.2,178.6v.9h-87.6v-.9h87.6ZM607,89.9v87.6h-.9v-87.6s.9,0,.9,0Z"/>
        <path class="st3" d="M694.7,178.6v.9h-87.6v-.9h87.6ZM696.6,89.9v87.6h-.9v-87.6s.9,0,.9,0Z"/>
        <path class="st3" d="M784.2,178.6v.9h-87.6v-.9h87.6ZM786.1,89.9v87.6h-.9v-87.6s.9,0,.9,0Z"/>
        <path class="st3" d="M873.7,178.6v.9h-87.6v-.9h87.6ZM875.6,89.9v87.6h-.9v-87.6s.9,0,.9,0Z"/>
        <path class="st3" d="M963.2,178.6v.9h-87.6v-.9h87.6ZM965.1,89.9v87.6h-.9v-87.6s.9,0,.9,0Z"/>
        <path class="st3" d="M1052.7,178.6v.9h-87.6v-.9h87.6ZM1054.6,89.9v87.6h-.9v-87.6s.9,0,.9,0Z"/>
        <path class="st3" d="M1142.2,178.6v.9h-87.6v-.9h87.6ZM1144.1,89.9v87.6h-.9v-87.6s.9,0,.9,0Z"/>
        <path class="st3" d="M1232.7,89.9v88.6h-88.6v-88.6s88.6,0,88.6,0Z"/>
        <path class="st3" d="M1231.7,178.6v.9h-87.6v-.9h87.6ZM1233.6,89.9v87.6h-.9v-87.6s.9,0,.9,0Z"/>
        <path class="st3" d="M1321.2,178.6v.9h-87.6v-.9h87.6ZM1323.1,89.9v87.6h-.9v-87.6s.9,0,.9,0Z"/>
        <path class="st3" d="M1410.7,178.6v.9h-87.6v-.9h87.6ZM1412.6,89.9v87.6h-.9v-87.6s.9,0,.9,0Z"/>
        <path class="st3" d="M1500.3,178.6v.9h-87.6v-.9h87.6ZM1502.1,89.9v87.6h-.9v-87.6s.9,0,.9,0Z"/>
        <path class="st3" d="M157.6,268.1v.9h-87.6v-.9h87.6,0ZM159.5,179.4v87.6h-.9v-87.6h.9Z"/>
        <path class="st3" d="M247.2,268.1v.9h-87.6v-.9h87.6ZM249,179.4v87.6h-.9v-87.6h.9Z"/>
        <path class="st3" d="M336.7,268.1v.9h-87.6v-.9h87.6ZM338.5,179.4v87.6h-.9v-87.6h.9Z"/>
        <path class="st3" d="M426.2,268.1v.9h-87.6v-.9h87.6ZM428,179.4v87.6h-.9v-87.6h.9Z"/>
        <path class="st3" d="M515.7,268.1v.9h-87.6v-.9h87.6ZM517.5,179.4v87.6h-.9v-87.6h.9Z"/>
        <path class="st3" d="M606.1,179.4v88.6h-88.6v-88.6h88.6Z"/>
        <path class="st3" d="M605.2,268.1v.9h-87.6v-.9h87.6ZM607.1,179.4v87.6h-.9v-87.6h.9Z"/>
        <path class="st3" d="M694.7,268.1v.9h-87.6v-.9h87.6ZM696.6,179.4v87.6h-.9v-87.6h.9Z"/>
        <path class="st3" d="M784.2,268.1v.9h-87.6v-.9h87.6ZM786.1,179.4v87.6h-.9v-87.6h.9Z"/>
        <path class="st3" d="M873.7,268.1v.9h-87.6v-.9h87.6ZM875.6,179.4v87.6h-.9v-87.6h.9Z"/>
        <path class="st3" d="M964.1,179.4v88.6h-88.6v-88.6h88.6Z"/>
        <path class="st3" d="M963.2,268.1v.9h-87.6v-.9h87.6ZM965.1,179.4v87.6h-.9v-87.6h.9Z"/>
        <path class="st3" d="M1052.7,268.1v.9h-87.6v-.9h87.6ZM1054.6,179.4v87.6h-.9v-87.6h.9Z"/>
        <path class="st3" d="M1142.2,268.1v.9h-87.6v-.9h87.6ZM1144.1,179.4v87.6h-.9v-87.6h.9Z"/>
        <path class="st3" d="M1231.7,268.1v.9h-87.6v-.9h87.6ZM1233.6,179.4v87.6h-.9v-87.6h.9Z"/>
        <path class="st3" d="M1321.2,268.1v.9h-87.6v-.9h87.6ZM1323.1,179.4v87.6h-.9v-87.6h.9Z"/>
        <path class="st3" d="M1410.7,268.1v.9h-87.6v-.9h87.6ZM1412.6,179.4v87.6h-.9v-87.6h.9Z"/>
        <path class="st3" d="M1500.3,268.1v.9h-87.6v-.9h87.6ZM1502.1,179.4v87.6h-.9v-87.6h.9Z"/>
        <path class="st3" d="M158.6,268.9v88.6h-88.6v-88.6h88.6,0Z"/>
        <path class="st3" d="M157.6,357.6v.9h-87.6v-.9h87.6,0ZM159.5,268.9v87.6h-.9v-87.6h.9Z"/>
        <path class="st3" d="M247.2,357.6v.9h-87.6v-.9h87.6ZM249,268.9v87.6h-.9v-87.6h.9Z"/>
        <path class="st3" d="M336.7,357.6v.9h-87.6v-.9h87.6ZM338.5,268.9v87.6h-.9v-87.6h.9Z"/>
        <path class="st3" d="M426.2,357.6v.9h-87.6v-.9h87.6ZM428,268.9v87.6h-.9v-87.6h.9Z"/>
        <path class="st3" d="M515.7,357.6v.9h-87.6v-.9h87.6ZM517.5,268.9v87.6h-.9v-87.6h.9Z"/>
        <path class="st3" d="M605.2,357.6v.9h-87.6v-.9h87.6ZM607,268.9v87.6h-.9v-87.6h.9Z"/>
        <path class="st3" d="M694.7,357.6v.9h-87.6v-.9h87.6ZM696.6,268.9v87.6h-.9v-87.6h.9Z"/>
        <path class="st3" d="M784.2,357.6v.9h-87.6v-.9h87.6ZM786.1,268.9v87.6h-.9v-87.6h.9Z"/>
        <path class="st3" d="M873.7,357.6v.9h-87.6v-.9h87.6ZM875.6,268.9v87.6h-.9v-87.6h.9Z"/>
        <path class="st3" d="M963.2,357.6v.9h-87.6v-.9h87.6ZM965.1,268.9v87.6h-.9v-87.6h.9Z"/>
        <path class="st3" d="M1052.7,357.6v.9h-87.6v-.9h87.6ZM1054.6,268.9v87.6h-.9v-87.6h.9Z"/>
        <path class="st3" d="M1142.2,357.6v.9h-87.6v-.9h87.6ZM1144.1,268.9v87.6h-.9v-87.6h.9Z"/>
        <path class="st3" d="M1232.7,268.9v88.6h-88.6v-88.6h88.6Z"/>
        <path class="st3" d="M1231.7,357.6v.9h-87.6v-.9h87.6ZM1233.6,268.9v87.6h-.9v-87.6h.9Z"/>
        <path class="st3" d="M1321.2,357.6v.9h-87.6v-.9h87.6ZM1323.1,268.9v87.6h-.9v-87.6h.9Z"/>
        <path class="st3" d="M1410.7,357.6v.9h-87.6v-.9h87.6ZM1412.6,268.9v87.6h-.9v-87.6h.9Z"/>
        <path class="st3" d="M1500.3,357.6v.9h-87.6v-.9h87.6ZM1502.1,268.9v87.6h-.9v-87.6h.9Z"/>
        <path class="st3" d="M157.6,447.1v.9h-87.6v-.9h87.6,0ZM159.5,358.4v87.6h-.9v-87.6h.9Z"/>
        <path class="st3" d="M247.2,447.1v.9h-87.6v-.9h87.6ZM249,358.4v87.6h-.9v-87.6h.9Z"/>
        <path class="st3" d="M336.7,447.1v.9h-87.6v-.9h87.6ZM338.5,358.4v87.6h-.9v-87.6h.9Z"/>
        <path class="st3" d="M426.2,447.1v.9h-87.6v-.9h87.6ZM428,358.4v87.6h-.9v-87.6h.9Z"/>
        <path class="st3" d="M515.7,447.1v.9h-87.6v-.9h87.6ZM517.5,358.4v87.6h-.9v-87.6h.9Z"/>
        <path class="st3" d="M605.2,447.1v.9h-87.6v-.9h87.6ZM607.1,358.4v87.6h-.9v-87.6h.9Z"/>
        <path class="st3" d="M695.6,358.4v88.6h-88.6v-88.6h88.6Z"/>
        <path class="st3" d="M694.7,447.1v.9h-87.6v-.9h87.6ZM696.6,358.4v87.6h-.9v-87.6h.9Z"/>
        <path class="st3" d="M784.2,447.1v.9h-87.6v-.9h87.6ZM786.1,358.4v87.6h-.9v-87.6h.9Z"/>
        <path class="st3" d="M873.7,447.1v.9h-87.6v-.9h87.6ZM875.6,358.4v87.6h-.9v-87.6h.9Z"/>
        <path class="st3" d="M963.2,447.1v.9h-87.6v-.9h87.6ZM965.1,358.4v87.6h-.9v-87.6h.9Z"/>
        <path class="st3" d="M1052.7,447.1v.9h-87.6v-.9h87.6ZM1054.6,358.4v87.6h-.9v-87.6h.9Z"/>
        <path class="st3" d="M1142.2,447.1v.9h-87.6v-.9h87.6ZM1144.1,358.4v87.6h-.9v-87.6h.9Z"/>
        <path class="st3" d="M1231.7,447.1v.9h-87.6v-.9h87.6ZM1233.6,358.4v87.6h-.9v-87.6h.9Z"/>
        <path class="st3" d="M1321.2,447.1v.9h-87.6v-.9h87.6ZM1323.1,358.4v87.6h-.9v-87.6h.9Z"/>
        <path class="st3" d="M1410.7,447.1v.9h-87.6v-.9h87.6ZM1412.6,358.4v87.6h-.9v-87.6h.9Z"/>
        <path class="st3" d="M1500.3,447.1v.9h-87.6v-.9h87.6ZM1502.1,358.4v87.6h-.9v-87.6h.9Z"/>
        <path class="st3" d="M157.6,536.5v.9h-87.6v-.9h87.6,0ZM159.5,447.9v87.6h-.9v-87.6h.9Z"/>
        <path class="st3" d="M247.2,536.5v.9h-87.6v-.9h87.6ZM249,447.9v87.6h-.9v-87.6h.9Z"/>
        <path class="st3" d="M336.7,536.5v.9h-87.6v-.9h87.6ZM338.5,447.9v87.6h-.9v-87.6h.9Z"/>
        <path class="st3" d="M427.1,447.9v88.6h-88.6v-88.6h88.6Z"/>
        <path class="st3" d="M426.2,536.5v.9h-87.6v-.9h87.6ZM428,447.9v87.6h-.9v-87.6h.9Z"/>
        <path class="st3" d="M515.7,536.5v.9h-87.6v-.9h87.6ZM517.5,447.9v87.6h-.9v-87.6h.9Z"/>
        <path class="st3" d="M605.2,536.5v.9h-87.6v-.9h87.6ZM607.1,447.9v87.6h-.9v-87.6h.9Z"/>
        <path class="st3" d="M694.7,536.5v.9h-87.6v-.9h87.6ZM696.6,447.9v87.6h-.9v-87.6h.9Z"/>
        <path class="st3" d="M784.2,536.5v.9h-87.6v-.9h87.6ZM786.1,447.9v87.6h-.9v-87.6h.9Z"/>
        <path class="st3" d="M873.7,536.5v.9h-87.6v-.9h87.6ZM875.6,447.9v87.6h-.9v-87.6h.9Z"/>
        <path class="st3" d="M964.1,447.9v88.6h-88.6v-88.6h88.6Z"/>
        <path class="st3" d="M963.2,536.5v.9h-87.6v-.9h87.6ZM965.1,447.9v87.6h-.9v-87.6h.9Z"/>
        <path class="st3" d="M1052.7,536.5v.9h-87.6v-.9h87.6ZM1054.6,447.9v87.6h-.9v-87.6h.9Z"/>
        <path class="st3" d="M1142.2,536.5v.9h-87.6v-.9h87.6ZM1144.1,447.9v87.6h-.9v-87.6h.9Z"/>
        <path class="st3" d="M1231.7,536.5v.9h-87.6v-.9h87.6ZM1233.6,447.9v87.6h-.9v-87.6h.9Z"/>
        <path class="st3" d="M1321.2,536.5v.9h-87.6v-.9h87.6ZM1323.1,447.9v87.6h-.9v-87.6h.9Z"/>
        <path class="st3" d="M1410.7,536.5v.9h-87.6v-.9h87.6ZM1412.6,447.9v87.6h-.9v-87.6h.9Z"/>
        <path class="st3" d="M1500.3,536.5v.9h-87.6v-.9h87.6ZM1502.1,447.9v87.6h-.9v-87.6h.9Z"/>
        <path class="st3" d="M157.6,626v.9h-87.6v-.9h87.6,0ZM159.5,537.4v87.6h-.9v-87.6h.9Z"/>
        <path class="st3" d="M248.1,537.4v88.6h-88.6v-88.6h88.6Z"/>
        <path class="st3" d="M247.2,626v.9h-87.6v-.9h87.6ZM249,537.4v87.6h-.9v-87.6h.9Z"/>
        <path class="st3" d="M336.7,626v.9h-87.6v-.9h87.6ZM338.5,537.4v87.6h-.9v-87.6h.9Z"/>
        <path class="st3" d="M426.2,626v.9h-87.6v-.9h87.6ZM428,537.4v87.6h-.9v-87.6h.9Z"/>
        <path class="st3" d="M515.7,626v.9h-87.6v-.9h87.6ZM517.5,537.4v87.6h-.9v-87.6h.9Z"/>
        <path class="st3" d="M605.2,626v.9h-87.6v-.9h87.6ZM607.1,537.4v87.6h-.9v-87.6h.9Z"/>
        <path class="st3" d="M694.7,626v.9h-87.6v-.9h87.6ZM696.6,537.4v87.6h-.9v-87.6h.9Z"/>
        <path class="st3" d="M784.2,626v.9h-87.6v-.9h87.6ZM786.1,537.4v87.6h-.9v-87.6h.9Z"/>
        <path class="st3" d="M873.7,626v.9h-87.6v-.9h87.6ZM875.6,537.4v87.6h-.9v-87.6h.9Z"/>
        <path class="st3" d="M963.2,626v.9h-87.6v-.9h87.6ZM965.1,537.4v87.6h-.9v-87.6h.9Z"/>
        <path class="st3" d="M1052.7,626v.9h-87.6v-.9h87.6ZM1054.6,537.4v87.6h-.9v-87.6h.9Z"/>
        <path class="st3" d="M1142.2,626v.9h-87.6v-.9h87.6ZM1144.1,537.4v87.6h-.9v-87.6h.9Z"/>
        <path class="st3" d="M1231.7,626v.9h-87.6v-.9h87.6ZM1233.6,537.4v87.6h-.9v-87.6h.9Z"/>
        <path class="st3" d="M1321.2,626v.9h-87.6v-.9h87.6ZM1323.1,537.4v87.6h-.9v-87.6h.9Z"/>
        <path class="st3" d="M1411.7,537.4v88.6h-88.6v-88.6h88.6Z"/>
        <path class="st3" d="M1410.7,626v.9h-87.6v-.9h87.6ZM1412.6,537.4v87.6h-.9v-87.6h.9Z"/>
        <path class="st3" d="M1500.3,626v.9h-87.6v-.9h87.6ZM1502.1,537.4v87.6h-.9v-87.6h.9Z"/>
        <path class="st3" d="M157.6,715.5v.9h-87.6v-.9h87.6,0ZM159.5,626.9v87.6h-.9v-87.6h.9Z"/>
        <path class="st3" d="M247.2,715.5v.9h-87.6v-.9h87.6ZM249,626.9v87.6h-.9v-87.6h.9Z"/>
        <path class="st3" d="M336.7,715.5v.9h-87.6v-.9h87.6ZM338.5,626.9v87.6h-.9v-87.6h.9Z"/>
        <path class="st3" d="M426.2,715.5v.9h-87.6v-.9h87.6ZM428,626.9v87.6h-.9v-87.6h.9Z"/>
        <path class="st3" d="M515.7,715.5v.9h-87.6v-.9h87.6ZM517.5,626.9v87.6h-.9v-87.6h.9Z"/>
        <path class="st3" d="M605.2,715.5v.9h-87.6v-.9h87.6ZM607.1,626.9v87.6h-.9v-87.6h.9Z"/>
        <path class="st3" d="M695.6,626.9v88.6h-88.6v-88.6h88.6Z"/>
        <path class="st3" d="M694.7,715.5v.9h-87.6v-.9h87.6ZM696.6,626.9v87.6h-.9v-87.6h.9Z"/>
        <path class="st3" d="M784.2,715.5v.9h-87.6v-.9h87.6ZM786.1,626.9v87.6h-.9v-87.6h.9Z"/>
        <path class="st3" d="M873.7,715.5v.9h-87.6v-.9h87.6ZM875.6,626.9v87.6h-.9v-87.6h.9Z"/>
        <path class="st3" d="M963.2,715.5v.9h-87.6v-.9h87.6ZM965.1,626.9v87.6h-.9v-87.6h.9Z"/>
        <path class="st3" d="M1052.7,715.5v.9h-87.6v-.9h87.6ZM1054.6,626.9v87.6h-.9v-87.6h.9Z"/>
        <path class="st3" d="M1142.2,715.5v.9h-87.6v-.9h87.6ZM1144.1,626.9v87.6h-.9v-87.6h.9Z"/>
        <path class="st3" d="M1232.7,626.9v88.6h-88.6v-88.6h88.6Z"/>
        <path class="st3" d="M1231.7,715.5v.9h-87.6v-.9h87.6ZM1233.6,626.9v87.6h-.9v-87.6h.9Z"/>
        <path class="st3" d="M1321.2,715.5v.9h-87.6v-.9h87.6ZM1323.1,626.9v87.6h-.9v-87.6h.9Z"/>
        <path class="st3" d="M1410.7,715.5v.9h-87.6v-.9h87.6ZM1412.6,626.9v87.6h-.9v-87.6h.9Z"/>
        <path class="st3" d="M1500.3,715.5v.9h-87.6v-.9h87.6ZM1502.1,626.9v87.6h-.9v-87.6h.9Z"/>
        <path class="st3" d="M157.6,805v.9h-87.6v-.9h87.6,0ZM159.5,716.4v87.6h-.9v-87.6h.9Z"/>
        <path class="st3" d="M247.2,805v.9h-87.6v-.9h87.6ZM249,716.4v87.6h-.9v-87.6h.9Z"/>
        <path class="st3" d="M336.7,805v.9h-87.6v-.9h87.6ZM338.5,716.4v87.6h-.9v-87.6h.9Z"/>
        <path class="st3" d="M427.1,716.4v88.6h-88.6v-88.6h88.6Z"/>
        <path class="st3" d="M426.2,805v.9h-87.6v-.9h87.6ZM428,716.4v87.6h-.9v-87.6h.9Z"/>
        <path class="st3" d="M515.7,805v.9h-87.6v-.9h87.6ZM517.5,716.4v87.6h-.9v-87.6h.9Z"/>
        <path class="st3" d="M605.2,805v.9h-87.6v-.9h87.6ZM607,716.4v87.6h-.9v-87.6h.9Z"/>
        <path class="st3" d="M694.7,805v.9h-87.6v-.9h87.6ZM696.6,716.4v87.6h-.9v-87.6h.9Z"/>
        <path class="st3" d="M784.2,805v.9h-87.6v-.9h87.6ZM786.1,716.4v87.6h-.9v-87.6h.9Z"/>
        <path class="st3" d="M873.7,805v.9h-87.6v-.9h87.6ZM875.6,716.4v87.6h-.9v-87.6h.9Z"/>
        <path class="st3" d="M964.1,716.4v88.6h-88.6v-88.6h88.6Z"/>
        <path class="st3" d="M963.2,805v.9h-87.6v-.9h87.6ZM965.1,716.4v87.6h-.9v-87.6h.9Z"/>
        <path class="st3" d="M1052.7,805v.9h-87.6v-.9h87.6ZM1054.6,716.4v87.6h-.9v-87.6h.9Z"/>
        <path class="st3" d="M1142.2,805v.9h-87.6v-.9h87.6ZM1144.1,716.4v87.6h-.9v-87.6h.9Z"/>
        <path class="st3" d="M1231.7,805v.9h-87.6v-.9h87.6ZM1233.6,716.4v87.6h-.9v-87.6h.9Z"/>
        <path class="st3" d="M1321.2,805v.9h-87.6v-.9h87.6ZM1323.1,716.4v87.6h-.9v-87.6h.9Z"/>
        <path class="st3" d="M1410.7,805v.9h-87.6v-.9h87.6ZM1412.6,716.4v87.6h-.9v-87.6h.9Z"/>
        <path class="st3" d="M1500.3,805v.9h-87.6v-.9h87.6ZM1502.1,716.4v87.6h-.9v-87.6h.9Z"/>
        <path class="st3" d="M157.6,894.5v.9h-87.6v-.9h87.6,0ZM159.5,805.9v87.6h-.9v-87.6h.9Z"/>
        <path class="st3" d="M247.2,894.5v.9h-87.6v-.9h87.6ZM249,805.9v87.6h-.9v-87.6h.9Z"/>
        <path class="st3" d="M336.7,894.5v.9h-87.6v-.9h87.6ZM338.5,805.9v87.6h-.9v-87.6h.9Z"/>
        <path class="st3" d="M426.2,894.5v.9h-87.6v-.9h87.6ZM428,805.9v87.6h-.9v-87.6h.9Z"/>
        <path class="st3" d="M515.7,894.5v.9h-87.6v-.9h87.6ZM517.5,805.9v87.6h-.9v-87.6h.9Z"/>
        <path class="st3" d="M605.2,894.5v.9h-87.6v-.9h87.6ZM607,805.9v87.6h-.9v-87.6h.9Z"/>
        <path class="st3" d="M694.7,894.5v.9h-87.6v-.9h87.6ZM696.6,805.9v87.6h-.9v-87.6h.9Z"/>
        <path class="st3" d="M784.2,894.5v.9h-87.6v-.9h87.6ZM786.1,805.9v87.6h-.9v-87.6h.9Z"/>
        <path class="st3" d="M873.7,894.5v.9h-87.6v-.9h87.6ZM875.6,805.9v87.6h-.9v-87.6h.9Z"/>
        <path class="st3" d="M963.2,894.5v.9h-87.6v-.9h87.6ZM965.1,805.9v87.6h-.9v-87.6h.9Z"/>
        <path class="st3" d="M1052.7,894.5v.9h-87.6v-.9h87.6ZM1054.6,805.9v87.6h-.9v-87.6h.9Z"/>
        <path class="st3" d="M1142.2,894.5v.9h-87.6v-.9h87.6ZM1144.1,805.9v87.6h-.9v-87.6h.9Z"/>
        <path class="st3" d="M1231.7,894.5v.9h-87.6v-.9h87.6ZM1233.6,805.9v87.6h-.9v-87.6h.9Z"/>
        <path class="st3" d="M1321.2,894.5v.9h-87.6v-.9h87.6ZM1323.1,805.9v87.6h-.9v-87.6h.9Z"/>
        <path class="st3" d="M1410.7,894.5v.9h-87.6v-.9h87.6ZM1412.6,805.9v87.6h-.9v-87.6h.9Z"/>
        <path class="st3" d="M1501.2,805.9v88.6h-88.6v-88.6h88.6Z"/>
        <path class="st3" d="M1500.3,894.5v.9h-87.6v-.9h87.6ZM1502.1,805.9v87.6h-.9v-87.6h.9Z"/>
        <path class="st3" d="M157.6,984v.9h-87.6v-.9h87.6,0ZM159.5,895.4v87.6h-.9v-87.6h.9Z"/>
        <path class="st3" d="M247.2,984v.9h-87.6v-.9h87.6ZM249,895.4v87.6h-.9v-87.6h.9Z"/>
        <path class="st3" d="M336.7,984v.9h-87.6v-.9h87.6ZM338.5,895.4v87.6h-.9v-87.6h.9Z"/>
        <path class="st3" d="M426.2,984v.9h-87.6v-.9h87.6ZM428,895.4v87.6h-.9v-87.6h.9Z"/>
        <path class="st3" d="M516.6,895.4v88.6h-88.6v-88.6h88.6Z"/>
        <path class="st3" d="M515.7,984v.9h-87.6v-.9h87.6ZM517.5,895.4v87.6h-.9v-87.6h.9Z"/>
        <path class="st3" d="M605.2,984v.9h-87.6v-.9h87.6ZM607.1,895.4v87.6h-.9v-87.6h.9Z"/>
        <path class="st3" d="M694.7,984v.9h-87.6v-.9h87.6ZM696.6,895.4v87.6h-.9v-87.6h.9Z"/>
        <path class="st3" d="M784.2,984v.9h-87.6v-.9h87.6ZM786.1,895.4v87.6h-.9v-87.6h.9Z"/>
        <path class="st3" d="M874.6,895.4v88.6h-88.6v-88.6h88.6Z"/>
        <path class="st3" d="M873.7,984v.9h-87.6v-.9h87.6ZM875.6,895.4v87.6h-.9v-87.6h.9Z"/>
        <path class="st3" d="M963.2,984v.9h-87.6v-.9h87.6ZM965.1,895.4v87.6h-.9v-87.6h.9Z"/>
        <path class="st3" d="M1052.7,984v.9h-87.6v-.9h87.6ZM1054.6,895.4v87.6h-.9v-87.6h.9Z"/>
        <path class="st3" d="M1142.2,984v.9h-87.6v-.9h87.6ZM1144.1,895.4v87.6h-.9v-87.6h.9Z"/>
        <path class="st3" d="M1231.7,984v.9h-87.6v-.9h87.6ZM1233.6,895.4v87.6h-.9v-87.6h.9Z"/>
        <path class="st3" d="M1321.2,984v.9h-87.6v-.9h87.6ZM1323.1,895.4v87.6h-.9v-87.6h.9Z"/>
        <path class="st3" d="M1410.7,984v.9h-87.6v-.9h87.6ZM1412.6,895.4v87.6h-.9v-87.6h.9Z"/>
        <path class="st3" d="M1500.3,984v.9h-87.6v-.9h87.6ZM1502.1,895.4v87.6h-.9v-87.6h.9Z"/>
        <path class="st3" d="M158.6,985v88.6h-88.6v-88.6h88.6,0Z"/>
        <path class="st3" d="M157.6,1073.5v.9h-87.6v-.9h87.6,0ZM159.5,985v87.6h-.9v-87.6h.9Z"/>
        <path class="st3" d="M247.2,1073.5v.9h-87.6v-.9h87.6ZM249,985v87.6h-.9v-87.6h.9Z"/>
        <path class="st3" d="M336.7,1073.5v.9h-87.6v-.9h87.6ZM338.5,985v87.6h-.9v-87.6h.9Z"/>
        <path class="st3" d="M426.2,1073.5v.9h-87.6v-.9h87.6ZM428,985v87.6h-.9v-87.6h.9Z"/>
        <path class="st3" d="M515.7,1073.5v.9h-87.6v-.9h87.6ZM517.5,985v87.6h-.9v-87.6h.9Z"/>
        <path class="st3" d="M605.2,1073.5v.9h-87.6v-.9h87.6ZM607.1,985v87.6h-.9v-87.6h.9Z"/>
        <path class="st3" d="M694.7,1073.5v.9h-87.6v-.9h87.6ZM696.6,985v87.6h-.9v-87.6h.9Z"/>
        <path class="st3" d="M784.2,1073.5v.9h-87.6v-.9h87.6ZM786.1,985v87.6h-.9v-87.6h.9Z"/>
        <path class="st3" d="M873.7,1073.5v.9h-87.6v-.9h87.6ZM875.6,985v87.6h-.9v-87.6h.9Z"/>
        <path class="st3" d="M963.2,1073.5v.9h-87.6v-.9h87.6ZM965.1,985v87.6h-.9v-87.6h.9Z"/>
        <path class="st3" d="M1052.7,1073.5v.9h-87.6v-.9h87.6ZM1054.6,985v87.6h-.9v-87.6h.9Z"/>
        <path class="st3" d="M1142.2,1073.5v.9h-87.6v-.9h87.6ZM1144.1,985v87.6h-.9v-87.6h.9Z"/>
        <path class="st3" d="M1232.7,985v88.6h-88.6v-88.6h88.6Z"/>
        <path class="st3" d="M1231.7,1073.5v.9h-87.6v-.9h87.6ZM1233.6,985v87.6h-.9v-87.6h.9Z"/>
        <path class="st3" d="M1321.2,1073.5v.9h-87.6v-.9h87.6ZM1323.1,985v87.6h-.9v-87.6h.9Z"/>
        <path class="st3" d="M1410.7,1073.5v.9h-87.6v-.9h87.6ZM1412.6,985v87.6h-.9v-87.6h.9Z"/>
        <path class="st3" d="M1500.3,1073.5v.9h-87.6v-.9h87.6ZM1502.1,985v87.6h-.9v-87.6h.9Z"/>
        <path class="st3" d="M157.6,1163v.9h-87.6v-.9h87.6,0ZM159.5,1074.5v87.6h-.9v-87.6h.9Z"/>
        <path class="st3" d="M247.2,1163v.9h-87.6v-.9h87.6ZM249,1074.5v87.6h-.9v-87.6h.9Z"/>
        <path class="st3" d="M336.7,1163v.9h-87.6v-.9h87.6ZM338.5,1074.5v87.6h-.9v-87.6h.9Z"/>
        <path class="st3" d="M426.2,1163v.9h-87.6v-.9h87.6ZM428,1074.5v87.6h-.9v-87.6h.9Z"/>
        <path class="st3" d="M515.7,1163v.9h-87.6v-.9h87.6ZM517.5,1074.5v87.6h-.9v-87.6h.9Z"/>
        <path class="st3" d="M605.2,1163v.9h-87.6v-.9h87.6ZM607.1,1074.5v87.6h-.9v-87.6h.9Z"/>
        <path class="st3" d="M695.6,1074.5v88.6h-88.6v-88.6h88.6Z"/>
        <path class="st3" d="M694.7,1163v.9h-87.6v-.9h87.6ZM696.6,1074.5v87.6h-.9v-87.6h.9Z"/>
        <path class="st3" d="M784.2,1163v.9h-87.6v-.9h87.6ZM786.1,1074.5v87.6h-.9v-87.6h.9Z"/>
        <path class="st3" d="M873.7,1163v.9h-87.6v-.9h87.6ZM875.6,1074.5v87.6h-.9v-87.6h.9Z"/>
        <path class="st3" d="M963.2,1163v.9h-87.6v-.9h87.6ZM965.1,1074.5v87.6h-.9v-87.6h.9Z"/>
        <path class="st3" d="M1052.7,1163v.9h-87.6v-.9h87.6ZM1054.6,1074.5v87.6h-.9v-87.6h.9Z"/>
        <path class="st3" d="M1142.2,1163v.9h-87.6v-.9h87.6ZM1144.1,1074.5v87.6h-.9v-87.6h.9Z"/>
        <path class="st3" d="M1231.7,1163v.9h-87.6v-.9h87.6ZM1233.6,1074.5v87.6h-.9v-87.6h.9Z"/>
        <path class="st3" d="M1321.2,1163v.9h-87.6v-.9h87.6ZM1323.1,1074.5v87.6h-.9v-87.6h.9Z"/>
        <path class="st3" d="M1410.7,1163v.9h-87.6v-.9h87.6ZM1412.6,1074.5v87.6h-.9v-87.6h.9Z"/>
        <path class="st3" d="M1500.3,1163v.9h-87.6v-.9h87.6ZM1502.1,1074.5v87.6h-.9v-87.6h.9Z"/>
        <path class="st3" d="M157.6,1252.6v.9h-87.6v-.9h87.6,0ZM159.5,1164v87.6h-.9v-87.6h.9Z"/>
        <path class="st3" d="M247.2,1252.6v.9h-87.6v-.9h87.6ZM249,1164v87.6h-.9v-87.6h.9Z"/>
        <path class="st3" d="M336.7,1252.6v.9h-87.6v-.9h87.6ZM338.5,1164v87.6h-.9v-87.6h.9Z"/>
        <path class="st3" d="M427.1,1164v88.6h-88.6v-88.6h88.6Z"/>
        <path class="st3" d="M426.2,1252.6v.9h-87.6v-.9h87.6ZM428,1164v87.6h-.9v-87.6h.9Z"/>
        <path class="st3" d="M515.7,1252.6v.9h-87.6v-.9h87.6ZM517.5,1164v87.6h-.9v-87.6h.9Z"/>
        <path class="st3" d="M605.2,1252.6v.9h-87.6v-.9h87.6ZM607.1,1164v87.6h-.9v-87.6h.9Z"/>
        <path class="st3" d="M694.7,1252.6v.9h-87.6v-.9h87.6ZM696.6,1164v87.6h-.9v-87.6h.9Z"/>
        <path class="st3" d="M784.2,1252.6v.9h-87.6v-.9h87.6ZM786.1,1164v87.6h-.9v-87.6h.9Z"/>
        <path class="st3" d="M873.7,1252.6v.9h-87.6v-.9h87.6ZM875.6,1164v87.6h-.9v-87.6h.9Z"/>
        <path class="st3" d="M964.1,1164v88.6h-88.6v-88.6h88.6Z"/>
        <path class="st3" d="M963.2,1252.6v.9h-87.6v-.9h87.6ZM965.1,1164v87.6h-.9v-87.6h.9Z"/>
        <path class="st3" d="M1052.7,1252.6v.9h-87.6v-.9h87.6ZM1054.6,1164v87.6h-.9v-87.6h.9Z"/>
        <path class="st3" d="M1142.2,1252.6v.9h-87.6v-.9h87.6ZM1144.1,1164v87.6h-.9v-87.6h.9Z"/>
        <path class="st3" d="M1231.7,1252.6v.9h-87.6v-.9h87.6ZM1233.6,1164v87.6h-.9v-87.6h.9Z"/>
        <path class="st3" d="M1321.2,1252.6v.9h-87.6v-.9h87.6ZM1323.1,1164v87.6h-.9v-87.6h.9Z"/>
        <path class="st3" d="M1410.7,1252.6v.9h-87.6v-.9h87.6ZM1412.6,1164v87.6h-.9v-87.6h.9Z"/>
        <path class="st3" d="M1500.3,1252.6v.9h-87.6v-.9h87.6ZM1502.1,1164v87.6h-.9v-87.6h.9Z"/>
        <path class="st3" d="M157.6,1342.1v.9h-87.6v-.9h87.6,0ZM159.5,1253.5v87.6h-.9v-87.6h.9Z"/>
        <path class="st3" d="M248.1,1253.5v88.6h-88.6v-88.6h88.6Z"/>
        <path class="st3" d="M247.2,1342.1v.9h-87.6v-.9h87.6ZM249,1253.5v87.6h-.9v-87.6h.9Z"/>
        <path class="st3" d="M336.7,1342.1v.9h-87.6v-.9h87.6ZM338.5,1253.5v87.6h-.9v-87.6h.9Z"/>
        <path class="st3" d="M426.2,1342.1v.9h-87.6v-.9h87.6ZM428,1253.5v87.6h-.9v-87.6h.9Z"/>
        <path class="st3" d="M515.7,1342.1v.9h-87.6v-.9h87.6ZM517.5,1253.5v87.6h-.9v-87.6h.9Z"/>
        <path class="st3" d="M605.2,1342.1v.9h-87.6v-.9h87.6ZM607.1,1253.5v87.6h-.9v-87.6h.9Z"/>
        <path class="st3" d="M694.7,1342.1v.9h-87.6v-.9h87.6ZM696.6,1253.5v87.6h-.9v-87.6h.9Z"/>
        <path class="st3" d="M784.2,1342.1v.9h-87.6v-.9h87.6ZM786.1,1253.5v87.6h-.9v-87.6h.9Z"/>
        <path class="st3" d="M873.7,1342.1v.9h-87.6v-.9h87.6ZM875.6,1253.5v87.6h-.9v-87.6h.9Z"/>
        <path class="st3" d="M963.2,1342.1v.9h-87.6v-.9h87.6ZM965.1,1253.5v87.6h-.9v-87.6h.9Z"/>
        <path class="st3" d="M1052.7,1342.1v.9h-87.6v-.9h87.6ZM1054.6,1253.5v87.6h-.9v-87.6h.9Z"/>
        <path class="st3" d="M1142.2,1342.1v.9h-87.6v-.9h87.6ZM1144.1,1253.5v87.6h-.9v-87.6h.9Z"/>
        <path class="st3" d="M1231.7,1342.1v.9h-87.6v-.9h87.6ZM1233.6,1253.5v87.6h-.9v-87.6h.9Z"/>
        <path class="st3" d="M1321.2,1342.1v.9h-87.6v-.9h87.6ZM1323.1,1253.5v87.6h-.9v-87.6h.9Z"/>
        <path class="st3" d="M1411.7,1253.5v88.6h-88.6v-88.6h88.6Z"/>
        <path class="st3" d="M1410.7,1342.1v.9h-87.6v-.9h87.6ZM1412.6,1253.5v87.6h-.9v-87.6h.9Z"/>
        <path class="st3" d="M1500.3,1342.1v.9h-87.6v-.9h87.6ZM1502.1,1253.5v87.6h-.9v-87.6h.9Z"/>
      </g>
    </g>
  </g>
</svg>