<?xml version="1.0" encoding="UTF-8"?>
<svg id="Layer_1" xmlns="http://www.w3.org/2000/svg" xmlns:xlink="http://www.w3.org/1999/xlink" version="1.1" viewBox="0 0 1638 2031.7">
  <!-- Generator: Adobe Illustrator 30.5.1, SVG Export Plug-In . SVG Version: 2.1.4 Build 3)  -->
  <defs>
    <style>
      .st0 {
        fill: url(#linear-gradient1);
      }

      .st1 {
        fill: url(#linear-gradient);
      }

      .st2 {
        isolation: isolate;
      }

      .st3 {
        mix-blend-mode: overlay;
        opacity: .6;
      }

      .st4 {
        fill: #b7b7b7;
        stroke: #fff;
        stroke-width: .9px;
      }
    </style>
    <linearGradient id="linear-gradient" x1="1638" y1="-504.1" x2="0" y2="-504.1" gradientTransform="translate(0 1520.0002)" gradientUnits="userSpaceOnUse">
      <stop offset="0" stop-color="#050505"/>
      <stop offset=".5" stop-color="#201e1a"/>
      <stop offset=".9" stop-color="#050505"/>
    </linearGradient>
    <linearGradient id="linear-gradient1" x1="819" y1="664.1" x2="819" y2="2632.8" gradientUnits="userSpaceOnUse">
      <stop offset=".1" stop-color="#050505" stop-opacity="0"/>
      <stop offset=".9" stop-color="#050505"/>
    </linearGradient>
  </defs>
  <g class="st2">
    <g id="Layer_11" data-name="Layer_1">
      <path class="st1" d="M0,0h1638v2031.7H0V0Z"/>
      <g class="st3">
        <path class="st4" d="M190.5,88.9v.9h-87.6v-.9h87.6,0ZM192.4.4v87.6h-.9V.4h.9Z"/>
        <path class="st4" d="M280.1,88.9v.9h-87.6v-.9h87.6ZM281.9.4v87.6h-.9V.4h.9Z"/>
        <path class="st4" d="M369.6,88.9v.9h-87.6v-.9h87.6ZM371.4.4v87.6h-.9V.4h.9Z"/>
        <path class="st4" d="M459.1,88.9v.9h-87.6v-.9h87.6ZM460.9.4v87.6h-.9V.4h.9Z"/>
        <path class="st4" d="M548.6,88.9v.9h-87.6v-.9h87.6ZM550.4.4v87.6h-.9V.4h.9Z"/>
        <path class="st4" d="M638.1,88.9v.9h-87.6v-.9h87.6ZM639.9.4v87.6h-.9V.4h.9Z"/>
        <path class="st4" d="M727.6,88.9v.9h-87.6v-.9h87.6ZM729.5.4v87.6h-.9V.4h.9Z"/>
        <path class="st4" d="M817.1,88.9v.9h-87.6v-.9h87.6ZM819,.4v87.6h-.9V.4h.9Z"/>
        <path class="st4" d="M906.6,88.9v.9h-87.6v-.9h87.6ZM908.5.4v87.6h-.9V.4h.9Z"/>
        <path class="st4" d="M996.1,88.9v.9h-87.6v-.9h87.6ZM998.1.4v87.6h-.9V.4h.9Z"/>
        <path class="st4" d="M1085.6,88.9v.9h-87.6v-.9h87.6ZM1087.6.4v87.6h-.9V.4h.9Z"/>
        <path class="st4" d="M1175.1,88.9v.9h-87.6v-.9h87.6ZM1177.1.4v87.6h-.9V.4h.9Z"/>
        <path class="st4" d="M1264.6,88.9v.9h-87.6v-.9h87.6ZM1266.6.4v87.6h-.9V.4h.9Z"/>
        <path class="st4" d="M1354.1,88.9v.9h-87.6v-.9h87.6ZM1356.1.4v87.6h-.9V.4h.9Z"/>
        <path class="st4" d="M1443.6,88.9v.9h-87.6v-.9h87.6ZM1445.6.4v87.6h-.9V.4h.9Z"/>
        <path class="st4" d="M1533.2,88.9v.9h-87.6v-.9h87.6ZM1535.1.4v87.6h-.9V.4h.9Z"/>
        <path class="st4" d="M190.5,178.6v.9h-87.6v-.9h87.6,0ZM192.4,89.9v87.6h-.9v-87.6s.9,0,.9,0Z"/>
        <path class="st4" d="M280.1,178.6v.9h-87.6v-.9h87.6ZM281.9,89.9v87.6h-.9v-87.6s.9,0,.9,0Z"/>
        <path class="st4" d="M369.6,178.6v.9h-87.6v-.9h87.6ZM371.4,89.9v87.6h-.9v-87.6s.9,0,.9,0Z"/>
        <path class="st4" d="M460,89.9v88.6h-88.6v-88.6s88.6,0,88.6,0Z"/>
        <path class="st4" d="M459.1,178.6v.9h-87.6v-.9h87.6ZM460.9,89.9v87.6h-.9v-87.6s.9,0,.9,0Z"/>
        <path class="st4" d="M548.6,178.6v.9h-87.6v-.9h87.6ZM550.4,89.9v87.6h-.9v-87.6s.9,0,.9,0Z"/>
        <path class="st4" d="M638.1,178.6v.9h-87.6v-.9h87.6ZM639.9,89.9v87.6h-.9v-87.6s.9,0,.9,0Z"/>
        <path class="st4" d="M727.6,178.6v.9h-87.6v-.9h87.6ZM729.5,89.9v87.6h-.9v-87.6s.9,0,.9,0Z"/>
        <path class="st4" d="M817.1,178.6v.9h-87.6v-.9h87.6ZM819,89.9v87.6h-.9v-87.6s.9,0,.9,0Z"/>
        <path class="st4" d="M906.6,178.6v.9h-87.6v-.9h87.6ZM908.5,89.9v87.6h-.9v-87.6s.9,0,.9,0Z"/>
        <path class="st4" d="M996.1,178.6v.9h-87.6v-.9h87.6ZM998.1,89.9v87.6h-.9v-87.6s.9,0,.9,0Z"/>
        <path class="st4" d="M1085.6,178.6v.9h-87.6v-.9h87.6ZM1087.6,89.9v87.6h-.9v-87.6s.9,0,.9,0Z"/>
        <path class="st4" d="M1175.1,178.6v.9h-87.6v-.9h87.6ZM1177.1,89.9v87.6h-.9v-87.6s.9,0,.9,0Z"/>
        <path class="st4" d="M1265.6,89.9v88.6h-88.6v-88.6s88.6,0,88.6,0Z"/>
        <path class="st4" d="M1264.6,178.6v.9h-87.6v-.9h87.6ZM1266.6,89.9v87.6h-.9v-87.6s.9,0,.9,0Z"/>
        <path class="st4" d="M1354.1,178.6v.9h-87.6v-.9h87.6ZM1356.1,89.9v87.6h-.9v-87.6s.9,0,.9,0Z"/>
        <path class="st4" d="M1443.6,178.6v.9h-87.6v-.9h87.6ZM1445.6,89.9v87.6h-.9v-87.6s.9,0,.9,0Z"/>
        <path class="st4" d="M1533.2,178.6v.9h-87.6v-.9h87.6ZM1535.1,89.9v87.6h-.9v-87.6s.9,0,.9,0Z"/>
        <path class="st4" d="M190.5,268.1v.9h-87.6v-.9h87.6,0ZM192.4,179.4v87.6h-.9v-87.6h.9Z"/>
        <path class="st4" d="M280.1,268.1v.9h-87.6v-.9h87.6ZM281.9,179.4v87.6h-.9v-87.6h.9Z"/>
        <path class="st4" d="M369.6,268.1v.9h-87.6v-.9h87.6ZM371.4,179.4v87.6h-.9v-87.6h.9Z"/>
        <path class="st4" d="M459.1,268.1v.9h-87.6v-.9h87.6ZM460.9,179.4v87.6h-.9v-87.6h.9Z"/>
        <path class="st4" d="M548.6,268.1v.9h-87.6v-.9h87.6ZM550.4,179.4v87.6h-.9v-87.6h.9Z"/>
        <path class="st4" d="M639,179.4v88.6h-88.6v-88.6h88.6Z"/>
        <path class="st4" d="M638.1,268.1v.9h-87.6v-.9h87.6ZM640,179.4v87.6h-.9v-87.6h.9Z"/>
        <path class="st4" d="M727.6,268.1v.9h-87.6v-.9h87.6ZM729.5,179.4v87.6h-.9v-87.6h.9Z"/>
        <path class="st4" d="M817.1,268.1v.9h-87.6v-.9h87.6ZM819,179.4v87.6h-.9v-87.6h.9Z"/>
        <path class="st4" d="M906.6,268.1v.9h-87.6v-.9h87.6ZM908.5,179.4v87.6h-.9v-87.6h.9Z"/>
        <path class="st4" d="M997.1,179.4v88.6h-88.6v-88.6h88.6Z"/>
        <path class="st4" d="M996.1,268.1v.9h-87.6v-.9h87.6ZM998.1,179.4v87.6h-.9v-87.6h.9Z"/>
        <path class="st4" d="M1085.6,268.1v.9h-87.6v-.9h87.6ZM1087.6,179.4v87.6h-.9v-87.6h.9Z"/>
        <path class="st4" d="M1175.1,268.1v.9h-87.6v-.9h87.6ZM1177.1,179.4v87.6h-.9v-87.6h.9Z"/>
        <path class="st4" d="M1264.6,268.1v.9h-87.6v-.9h87.6ZM1266.6,179.4v87.6h-.9v-87.6h.9Z"/>
        <path class="st4" d="M1354.1,268.1v.9h-87.6v-.9h87.6ZM1356.1,179.4v87.6h-.9v-87.6h.9Z"/>
        <path class="st4" d="M1443.6,268.1v.9h-87.6v-.9h87.6ZM1445.6,179.4v87.6h-.9v-87.6h.9Z"/>
        <path class="st4" d="M1533.2,268.1v.9h-87.6v-.9h87.6ZM1535.1,179.4v87.6h-.9v-87.6h.9Z"/>
        <path class="st4" d="M191.5,268.9v88.6h-88.6v-88.6h88.6,0Z"/>
        <path class="st4" d="M190.5,357.6v.9h-87.6v-.9h87.6,0ZM192.4,268.9v87.6h-.9v-87.6h.9Z"/>
        <path class="st4" d="M280.1,357.6v.9h-87.6v-.9h87.6ZM281.9,268.9v87.6h-.9v-87.6h.9Z"/>
        <path class="st4" d="M369.6,357.6v.9h-87.6v-.9h87.6ZM371.4,268.9v87.6h-.9v-87.6h.9Z"/>
        <path class="st4" d="M459.1,357.6v.9h-87.6v-.9h87.6ZM460.9,268.9v87.6h-.9v-87.6h.9Z"/>
        <path class="st4" d="M548.6,357.6v.9h-87.6v-.9h87.6ZM550.4,268.9v87.6h-.9v-87.6h.9Z"/>
        <path class="st4" d="M638.1,357.6v.9h-87.6v-.9h87.6ZM639.9,268.9v87.6h-.9v-87.6h.9Z"/>
        <path class="st4" d="M727.6,357.6v.9h-87.6v-.9h87.6ZM729.5,268.9v87.6h-.9v-87.6h.9Z"/>
        <path class="st4" d="M817.1,357.6v.9h-87.6v-.9h87.6ZM819,268.9v87.6h-.9v-87.6h.9Z"/>
        <path class="st4" d="M906.6,357.6v.9h-87.6v-.9h87.6ZM908.5,268.9v87.6h-.9v-87.6h.9Z"/>
        <path class="st4" d="M996.1,357.6v.9h-87.6v-.9h87.6ZM998.1,268.9v87.6h-.9v-87.6h.9Z"/>
        <path class="st4" d="M1085.6,357.6v.9h-87.6v-.9h87.6ZM1087.6,268.9v87.6h-.9v-87.6h.9Z"/>
        <path class="st4" d="M1175.1,357.6v.9h-87.6v-.9h87.6ZM1177.1,268.9v87.6h-.9v-87.6h.9Z"/>
        <path class="st4" d="M1265.6,268.9v88.6h-88.6v-88.6h88.6Z"/>
        <path class="st4" d="M1264.6,357.6v.9h-87.6v-.9h87.6ZM1266.6,268.9v87.6h-.9v-87.6h.9Z"/>
        <path class="st4" d="M1354.1,357.6v.9h-87.6v-.9h87.6ZM1356.1,268.9v87.6h-.9v-87.6h.9Z"/>
        <path class="st4" d="M1443.6,357.6v.9h-87.6v-.9h87.6ZM1445.6,268.9v87.6h-.9v-87.6h.9Z"/>
        <path class="st4" d="M1533.2,357.6v.9h-87.6v-.9h87.6ZM1535.1,268.9v87.6h-.9v-87.6h.9Z"/>
        <path class="st4" d="M190.5,447.1v.9h-87.6v-.9h87.6,0ZM192.4,358.4v87.6h-.9v-87.6h.9Z"/>
        <path class="st4" d="M280.1,447.1v.9h-87.6v-.9h87.6ZM281.9,358.4v87.6h-.9v-87.6h.9Z"/>
        <path class="st4" d="M369.6,447.1v.9h-87.6v-.9h87.6ZM371.4,358.4v87.6h-.9v-87.6h.9Z"/>
        <path class="st4" d="M459.1,447.1v.9h-87.6v-.9h87.6ZM460.9,358.4v87.6h-.9v-87.6h.9Z"/>
        <path class="st4" d="M548.6,447.1v.9h-87.6v-.9h87.6ZM550.4,358.4v87.6h-.9v-87.6h.9Z"/>
        <path class="st4" d="M638.1,447.1v.9h-87.6v-.9h87.6ZM640,358.4v87.6h-.9v-87.6h.9Z"/>
        <path class="st4" d="M728.5,358.4v88.6h-88.6v-88.6h88.6Z"/>
        <path class="st4" d="M727.6,447.1v.9h-87.6v-.9h87.6ZM729.5,358.4v87.6h-.9v-87.6h.9Z"/>
        <path class="st4" d="M817.1,447.1v.9h-87.6v-.9h87.6ZM819,358.4v87.6h-.9v-87.6h.9Z"/>
        <path class="st4" d="M906.6,447.1v.9h-87.6v-.9h87.6ZM908.5,358.4v87.6h-.9v-87.6h.9Z"/>
        <path class="st4" d="M996.1,447.1v.9h-87.6v-.9h87.6ZM998.1,358.4v87.6h-.9v-87.6h.9Z"/>
        <path class="st4" d="M1085.6,447.1v.9h-87.6v-.9h87.6ZM1087.6,358.4v87.6h-.9v-87.6h.9Z"/>
        <path class="st4" d="M1175.1,447.1v.9h-87.6v-.9h87.6ZM1177.1,358.4v87.6h-.9v-87.6h.9Z"/>
        <path class="st4" d="M1264.6,447.1v.9h-87.6v-.9h87.6ZM1266.6,358.4v87.6h-.9v-87.6h.9Z"/>
        <path class="st4" d="M1354.1,447.1v.9h-87.6v-.9h87.6ZM1356.1,358.4v87.6h-.9v-87.6h.9Z"/>
        <path class="st4" d="M1443.6,447.1v.9h-87.6v-.9h87.6ZM1445.6,358.4v87.6h-.9v-87.6h.9Z"/>
        <path class="st4" d="M1533.2,447.1v.9h-87.6v-.9h87.6ZM1535.1,358.4v87.6h-.9v-87.6h.9Z"/>
        <path class="st4" d="M190.5,536.5v.9h-87.6v-.9h87.6,0ZM192.4,447.9v87.6h-.9v-87.6h.9Z"/>
        <path class="st4" d="M280.1,536.5v.9h-87.6v-.9h87.6ZM281.9,447.9v87.6h-.9v-87.6h.9Z"/>
        <path class="st4" d="M369.6,536.5v.9h-87.6v-.9h87.6ZM371.4,447.9v87.6h-.9v-87.6h.9Z"/>
        <path class="st4" d="M460,447.9v88.6h-88.6v-88.6h88.6Z"/>
        <path class="st4" d="M459.1,536.5v.9h-87.6v-.9h87.6ZM460.9,447.9v87.6h-.9v-87.6h.9Z"/>
        <path class="st4" d="M548.6,536.5v.9h-87.6v-.9h87.6ZM550.4,447.9v87.6h-.9v-87.6h.9Z"/>
        <path class="st4" d="M638.1,536.5v.9h-87.6v-.9h87.6ZM640,447.9v87.6h-.9v-87.6h.9Z"/>
        <path class="st4" d="M727.6,536.5v.9h-87.6v-.9h87.6ZM729.5,447.9v87.6h-.9v-87.6h.9Z"/>
        <path class="st4" d="M817.1,536.5v.9h-87.6v-.9h87.6ZM819,447.9v87.6h-.9v-87.6h.9Z"/>
        <path class="st4" d="M906.6,536.5v.9h-87.6v-.9h87.6ZM908.5,447.9v87.6h-.9v-87.6h.9Z"/>
        <path class="st4" d="M997.1,447.9v88.6h-88.6v-88.6h88.6Z"/>
        <path class="st4" d="M996.1,536.5v.9h-87.6v-.9h87.6ZM998.1,447.9v87.6h-.9v-87.6h.9Z"/>
        <path class="st4" d="M1085.6,536.5v.9h-87.6v-.9h87.6ZM1087.6,447.9v87.6h-.9v-87.6h.9Z"/>
        <path class="st4" d="M1175.1,536.5v.9h-87.6v-.9h87.6ZM1177.1,447.9v87.6h-.9v-87.6h.9Z"/>
        <path class="st4" d="M1264.6,536.5v.9h-87.6v-.9h87.6ZM1266.6,447.9v87.6h-.9v-87.6h.9Z"/>
        <path class="st4" d="M1354.1,536.5v.9h-87.6v-.9h87.6ZM1356.1,447.9v87.6h-.9v-87.6h.9Z"/>
        <path class="st4" d="M1443.6,536.5v.9h-87.6v-.9h87.6ZM1445.6,447.9v87.6h-.9v-87.6h.9Z"/>
        <path class="st4" d="M1533.2,536.5v.9h-87.6v-.9h87.6ZM1535.1,447.9v87.6h-.9v-87.6h.9Z"/>
        <path class="st4" d="M190.5,626v.9h-87.6v-.9h87.6,0ZM192.4,537.4v87.6h-.9v-87.6h.9Z"/>
        <path class="st4" d="M281,537.4v88.6h-88.6v-88.6h88.6Z"/>
        <path class="st4" d="M280.1,626v.9h-87.6v-.9h87.6ZM281.9,537.4v87.6h-.9v-87.6h.9Z"/>
        <path class="st4" d="M369.6,626v.9h-87.6v-.9h87.6ZM371.4,537.4v87.6h-.9v-87.6h.9Z"/>
        <path class="st4" d="M459.1,626v.9h-87.6v-.9h87.6ZM460.9,537.4v87.6h-.9v-87.6h.9Z"/>
        <path class="st4" d="M548.6,626v.9h-87.6v-.9h87.6ZM550.4,537.4v87.6h-.9v-87.6h.9Z"/>
        <path class="st4" d="M638.1,626v.9h-87.6v-.9h87.6ZM640,537.4v87.6h-.9v-87.6h.9Z"/>
        <path class="st4" d="M727.6,626v.9h-87.6v-.9h87.6ZM729.5,537.4v87.6h-.9v-87.6h.9Z"/>
        <path class="st4" d="M817.1,626v.9h-87.6v-.9h87.6ZM819,537.4v87.6h-.9v-87.6h.9Z"/>
        <path class="st4" d="M906.6,626v.9h-87.6v-.9h87.6ZM908.5,537.4v87.6h-.9v-87.6h.9Z"/>
        <path class="st4" d="M996.1,626v.9h-87.6v-.9h87.6ZM998.1,537.4v87.6h-.9v-87.6h.9Z"/>
        <path class="st4" d="M1085.6,626v.9h-87.6v-.9h87.6ZM1087.6,537.4v87.6h-.9v-87.6h.9Z"/>
        <path class="st4" d="M1175.1,626v.9h-87.6v-.9h87.6ZM1177.1,537.4v87.6h-.9v-87.6h.9Z"/>
        <path class="st4" d="M1264.6,626v.9h-87.6v-.9h87.6ZM1266.6,537.4v87.6h-.9v-87.6h.9Z"/>
        <path class="st4" d="M1354.1,626v.9h-87.6v-.9h87.6ZM1356.1,537.4v87.6h-.9v-87.6h.9Z"/>
        <path class="st4" d="M1444.6,537.4v88.6h-88.6v-88.6h88.6Z"/>
        <path class="st4" d="M1443.6,626v.9h-87.6v-.9h87.6ZM1445.6,537.4v87.6h-.9v-87.6h.9Z"/>
        <path class="st4" d="M1533.2,626v.9h-87.6v-.9h87.6ZM1535.1,537.4v87.6h-.9v-87.6h.9Z"/>
        <path class="st4" d="M190.5,715.5v.9h-87.6v-.9h87.6,0ZM192.4,626.9v87.6h-.9v-87.6h.9Z"/>
        <path class="st4" d="M280.1,715.5v.9h-87.6v-.9h87.6ZM281.9,626.9v87.6h-.9v-87.6h.9Z"/>
        <path class="st4" d="M369.6,715.5v.9h-87.6v-.9h87.6ZM371.4,626.9v87.6h-.9v-87.6h.9Z"/>
        <path class="st4" d="M459.1,715.5v.9h-87.6v-.9h87.6ZM460.9,626.9v87.6h-.9v-87.6h.9Z"/>
        <path class="st4" d="M548.6,715.5v.9h-87.6v-.9h87.6ZM550.4,626.9v87.6h-.9v-87.6h.9Z"/>
        <path class="st4" d="M638.1,715.5v.9h-87.6v-.9h87.6ZM640,626.9v87.6h-.9v-87.6h.9Z"/>
        <path class="st4" d="M728.5,626.9v88.6h-88.6v-88.6h88.6Z"/>
        <path class="st4" d="M727.6,715.5v.9h-87.6v-.9h87.6ZM729.5,626.9v87.6h-.9v-87.6h.9Z"/>
        <path class="st4" d="M817.1,715.5v.9h-87.6v-.9h87.6ZM819,626.9v87.6h-.9v-87.6h.9Z"/>
        <path class="st4" d="M906.6,715.5v.9h-87.6v-.9h87.6ZM908.5,626.9v87.6h-.9v-87.6h.9Z"/>
        <path class="st4" d="M996.1,715.5v.9h-87.6v-.9h87.6ZM998.1,626.9v87.6h-.9v-87.6h.9Z"/>
        <path class="st4" d="M1085.6,715.5v.9h-87.6v-.9h87.6ZM1087.6,626.9v87.6h-.9v-87.6h.9Z"/>
        <path class="st4" d="M1175.1,715.5v.9h-87.6v-.9h87.6ZM1177.1,626.9v87.6h-.9v-87.6h.9Z"/>
        <path class="st4" d="M1265.6,626.9v88.6h-88.6v-88.6h88.6Z"/>
        <path class="st4" d="M1264.6,715.5v.9h-87.6v-.9h87.6ZM1266.6,626.9v87.6h-.9v-87.6h.9Z"/>
        <path class="st4" d="M1354.1,715.5v.9h-87.6v-.9h87.6ZM1356.1,626.9v87.6h-.9v-87.6h.9Z"/>
        <path class="st4" d="M1443.6,715.5v.9h-87.6v-.9h87.6ZM1445.6,626.9v87.6h-.9v-87.6h.9Z"/>
        <path class="st4" d="M1533.2,715.5v.9h-87.6v-.9h87.6ZM1535.1,626.9v87.6h-.9v-87.6h.9Z"/>
        <path class="st4" d="M190.5,805v.9h-87.6v-.9h87.6,0ZM192.4,716.4v87.6h-.9v-87.6h.9Z"/>
        <path class="st4" d="M280.1,805v.9h-87.6v-.9h87.6ZM281.9,716.4v87.6h-.9v-87.6h.9Z"/>
        <path class="st4" d="M369.6,805v.9h-87.6v-.9h87.6ZM371.4,716.4v87.6h-.9v-87.6h.9Z"/>
        <path class="st4" d="M460,716.4v88.6h-88.6v-88.6h88.6Z"/>
        <path class="st4" d="M459.1,805v.9h-87.6v-.9h87.6ZM460.9,716.4v87.6h-.9v-87.6h.9Z"/>
        <path class="st4" d="M548.6,805v.9h-87.6v-.9h87.6ZM550.4,716.4v87.6h-.9v-87.6h.9Z"/>
        <path class="st4" d="M638.1,805v.9h-87.6v-.9h87.6ZM639.9,716.4v87.6h-.9v-87.6h.9Z"/>
        <path class="st4" d="M727.6,805v.9h-87.6v-.9h87.6ZM729.5,716.4v87.6h-.9v-87.6h.9Z"/>
        <path class="st4" d="M817.1,805v.9h-87.6v-.9h87.6ZM819,716.4v87.6h-.9v-87.6h.9Z"/>
        <path class="st4" d="M906.6,805v.9h-87.6v-.9h87.6ZM908.5,716.4v87.6h-.9v-87.6h.9Z"/>
        <path class="st4" d="M997.1,716.4v88.6h-88.6v-88.6h88.6Z"/>
        <path class="st4" d="M996.1,805v.9h-87.6v-.9h87.6ZM998.1,716.4v87.6h-.9v-87.6h.9Z"/>
        <path class="st4" d="M1085.6,805v.9h-87.6v-.9h87.6ZM1087.6,716.4v87.6h-.9v-87.6h.9Z"/>
        <path class="st4" d="M1175.1,805v.9h-87.6v-.9h87.6ZM1177.1,716.4v87.6h-.9v-87.6h.9Z"/>
        <path class="st4" d="M1264.6,805v.9h-87.6v-.9h87.6ZM1266.6,716.4v87.6h-.9v-87.6h.9Z"/>
        <path class="st4" d="M1354.1,805v.9h-87.6v-.9h87.6ZM1356.1,716.4v87.6h-.9v-87.6h.9Z"/>
        <path class="st4" d="M1443.6,805v.9h-87.6v-.9h87.6ZM1445.6,716.4v87.6h-.9v-87.6h.9Z"/>
        <path class="st4" d="M1533.2,805v.9h-87.6v-.9h87.6ZM1535.1,716.4v87.6h-.9v-87.6h.9Z"/>
        <path class="st4" d="M190.5,894.5v.9h-87.6v-.9h87.6,0ZM192.4,805.9v87.6h-.9v-87.6h.9Z"/>
        <path class="st4" d="M280.1,894.5v.9h-87.6v-.9h87.6ZM281.9,805.9v87.6h-.9v-87.6h.9Z"/>
        <path class="st4" d="M369.6,894.5v.9h-87.6v-.9h87.6ZM371.4,805.9v87.6h-.9v-87.6h.9Z"/>
        <path class="st4" d="M459.1,894.5v.9h-87.6v-.9h87.6ZM460.9,805.9v87.6h-.9v-87.6h.9Z"/>
        <path class="st4" d="M548.6,894.5v.9h-87.6v-.9h87.6ZM550.4,805.9v87.6h-.9v-87.6h.9Z"/>
        <path class="st4" d="M638.1,894.5v.9h-87.6v-.9h87.6ZM639.9,805.9v87.6h-.9v-87.6h.9Z"/>
        <path class="st4" d="M727.6,894.5v.9h-87.6v-.9h87.6ZM729.5,805.9v87.6h-.9v-87.6h.9Z"/>
        <path class="st4" d="M817.1,894.5v.9h-87.6v-.9h87.6ZM819,805.9v87.6h-.9v-87.6h.9Z"/>
        <path class="st4" d="M906.6,894.5v.9h-87.6v-.9h87.6ZM908.5,805.9v87.6h-.9v-87.6h.9Z"/>
        <path class="st4" d="M996.1,894.5v.9h-87.6v-.9h87.6ZM998.1,805.9v87.6h-.9v-87.6h.9Z"/>
        <path class="st4" d="M1085.6,894.5v.9h-87.6v-.9h87.6ZM1087.6,805.9v87.6h-.9v-87.6h.9Z"/>
        <path class="st4" d="M1175.1,894.5v.9h-87.6v-.9h87.6ZM1177.1,805.9v87.6h-.9v-87.6h.9Z"/>
        <path class="st4" d="M1264.6,894.5v.9h-87.6v-.9h87.6ZM1266.6,805.9v87.6h-.9v-87.6h.9Z"/>
        <path class="st4" d="M1354.1,894.5v.9h-87.6v-.9h87.6ZM1356.1,805.9v87.6h-.9v-87.6h.9Z"/>
        <path class="st4" d="M1443.6,894.5v.9h-87.6v-.9h87.6ZM1445.6,805.9v87.6h-.9v-87.6h.9Z"/>
        <path class="st4" d="M1534.1,805.9v88.6h-88.6v-88.6h88.6Z"/>
        <path class="st4" d="M1533.2,894.5v.9h-87.6v-.9h87.6ZM1535.1,805.9v87.6h-.9v-87.6h.9Z"/>
        <path class="st4" d="M190.5,984v.9h-87.6v-.9h87.6,0ZM192.4,895.4v87.6h-.9v-87.6h.9Z"/>
        <path class="st4" d="M280.1,984v.9h-87.6v-.9h87.6ZM281.9,895.4v87.6h-.9v-87.6h.9Z"/>
        <path class="st4" d="M369.6,984v.9h-87.6v-.9h87.6ZM371.4,895.4v87.6h-.9v-87.6h.9Z"/>
        <path class="st4" d="M459.1,984v.9h-87.6v-.9h87.6ZM460.9,895.4v87.6h-.9v-87.6h.9Z"/>
        <path class="st4" d="M549.5,895.4v88.6h-88.6v-88.6h88.6Z"/>
        <path class="st4" d="M548.6,984v.9h-87.6v-.9h87.6ZM550.4,895.4v87.6h-.9v-87.6h.9Z"/>
        <path class="st4" d="M638.1,984v.9h-87.6v-.9h87.6ZM640,895.4v87.6h-.9v-87.6h.9Z"/>
        <path class="st4" d="M727.6,984v.9h-87.6v-.9h87.6ZM729.5,895.4v87.6h-.9v-87.6h.9Z"/>
        <path class="st4" d="M817.1,984v.9h-87.6v-.9h87.6ZM819,895.4v87.6h-.9v-87.6h.9Z"/>
        <path class="st4" d="M907.5,895.4v88.6h-88.6v-88.6h88.6Z"/>
        <path class="st4" d="M906.6,984v.9h-87.6v-.9h87.6ZM908.5,895.4v87.6h-.9v-87.6h.9Z"/>
        <path class="st4" d="M996.1,984v.9h-87.6v-.9h87.6ZM998.1,895.4v87.6h-.9v-87.6h.9Z"/>
        <path class="st4" d="M1085.6,984v.9h-87.6v-.9h87.6ZM1087.6,895.4v87.6h-.9v-87.6h.9Z"/>
        <path class="st4" d="M1175.1,984v.9h-87.6v-.9h87.6ZM1177.1,895.4v87.6h-.9v-87.6h.9Z"/>
        <path class="st4" d="M1264.6,984v.9h-87.6v-.9h87.6ZM1266.6,895.4v87.6h-.9v-87.6h.9Z"/>
        <path class="st4" d="M1354.1,984v.9h-87.6v-.9h87.6ZM1356.1,895.4v87.6h-.9v-87.6h.9Z"/>
        <path class="st4" d="M1443.6,984v.9h-87.6v-.9h87.6ZM1445.6,895.4v87.6h-.9v-87.6h.9Z"/>
        <path class="st4" d="M1533.2,984v.9h-87.6v-.9h87.6ZM1535.1,895.4v87.6h-.9v-87.6h.9Z"/>
        <path class="st4" d="M191.5,985v88.6h-88.6v-88.6h88.6,0Z"/>
        <path class="st4" d="M190.5,1073.5v.9h-87.6v-.9h87.6,0ZM192.4,985v87.6h-.9v-87.6h.9Z"/>
        <path class="st4" d="M280.1,1073.5v.9h-87.6v-.9h87.6ZM281.9,985v87.6h-.9v-87.6h.9Z"/>
        <path class="st4" d="M369.6,1073.5v.9h-87.6v-.9h87.6ZM371.4,985v87.6h-.9v-87.6h.9Z"/>
        <path class="st4" d="M459.1,1073.5v.9h-87.6v-.9h87.6ZM460.9,985v87.6h-.9v-87.6h.9Z"/>
        <path class="st4" d="M548.6,1073.5v.9h-87.6v-.9h87.6ZM550.4,985v87.6h-.9v-87.6h.9Z"/>
        <path class="st4" d="M638.1,1073.5v.9h-87.6v-.9h87.6ZM640,985v87.6h-.9v-87.6h.9Z"/>
        <path class="st4" d="M727.6,1073.5v.9h-87.6v-.9h87.6ZM729.5,985v87.6h-.9v-87.6h.9Z"/>
        <path class="st4" d="M817.1,1073.5v.9h-87.6v-.9h87.6ZM819,985v87.6h-.9v-87.6h.9Z"/>
        <path class="st4" d="M906.6,1073.5v.9h-87.6v-.9h87.6ZM908.5,985v87.6h-.9v-87.6h.9Z"/>
        <path class="st4" d="M996.1,1073.5v.9h-87.6v-.9h87.6ZM998.1,985v87.6h-.9v-87.6h.9Z"/>
        <path class="st4" d="M1085.6,1073.5v.9h-87.6v-.9h87.6ZM1087.6,985v87.6h-.9v-87.6h.9Z"/>
        <path class="st4" d="M1175.1,1073.5v.9h-87.6v-.9h87.6ZM1177.1,985v87.6h-.9v-87.6h.9Z"/>
        <path class="st4" d="M1265.6,985v88.6h-88.6v-88.6h88.6Z"/>
        <path class="st4" d="M1264.6,1073.5v.9h-87.6v-.9h87.6ZM1266.6,985v87.6h-.9v-87.6h.9Z"/>
        <path class="st4" d="M1354.1,1073.5v.9h-87.6v-.9h87.6ZM1356.1,985v87.6h-.9v-87.6h.9Z"/>
        <path class="st4" d="M1443.6,1073.5v.9h-87.6v-.9h87.6ZM1445.6,985v87.6h-.9v-87.6h.9Z"/>
        <path class="st4" d="M1533.2,1073.5v.9h-87.6v-.9h87.6ZM1535.1,985v87.6h-.9v-87.6h.9Z"/>
        <path class="st4" d="M190.5,1163v.9h-87.6v-.9h87.6,0ZM192.4,1074.5v87.6h-.9v-87.6h.9Z"/>
        <path class="st4" d="M280.1,1163v.9h-87.6v-.9h87.6ZM281.9,1074.5v87.6h-.9v-87.6h.9Z"/>
        <path class="st4" d="M369.6,1163v.9h-87.6v-.9h87.6ZM371.4,1074.5v87.6h-.9v-87.6h.9Z"/>
        <path class="st4" d="M459.1,1163v.9h-87.6v-.9h87.6ZM460.9,1074.5v87.6h-.9v-87.6h.9Z"/>
        <path class="st4" d="M548.6,1163v.9h-87.6v-.9h87.6ZM550.4,1074.5v87.6h-.9v-87.6h.9Z"/>
        <path class="st4" d="M638.1,1163v.9h-87.6v-.9h87.6ZM640,1074.5v87.6h-.9v-87.6h.9Z"/>
        <path class="st4" d="M728.5,1074.5v88.6h-88.6v-88.6h88.6Z"/>
        <path class="st4" d="M727.6,1163v.9h-87.6v-.9h87.6ZM729.5,1074.5v87.6h-.9v-87.6h.9Z"/>
        <path class="st4" d="M817.1,1163v.9h-87.6v-.9h87.6ZM819,1074.5v87.6h-.9v-87.6h.9Z"/>
        <path class="st4" d="M906.6,1163v.9h-87.6v-.9h87.6ZM908.5,1074.5v87.6h-.9v-87.6h.9Z"/>
        <path class="st4" d="M996.1,1163v.9h-87.6v-.9h87.6ZM998.1,1074.5v87.6h-.9v-87.6h.9Z"/>
        <path class="st4" d="M1085.6,1163v.9h-87.6v-.9h87.6ZM1087.6,1074.5v87.6h-.9v-87.6h.9Z"/>
        <path class="st4" d="M1175.1,1163v.9h-87.6v-.9h87.6ZM1177.1,1074.5v87.6h-.9v-87.6h.9Z"/>
        <path class="st4" d="M1264.6,1163v.9h-87.6v-.9h87.6ZM1266.6,1074.5v87.6h-.9v-87.6h.9Z"/>
        <path class="st4" d="M1354.1,1163v.9h-87.6v-.9h87.6ZM1356.1,1074.5v87.6h-.9v-87.6h.9Z"/>
        <path class="st4" d="M1443.6,1163v.9h-87.6v-.9h87.6ZM1445.6,1074.5v87.6h-.9v-87.6h.9Z"/>
        <path class="st4" d="M1533.2,1163v.9h-87.6v-.9h87.6ZM1535.1,1074.5v87.6h-.9v-87.6h.9Z"/>
        <path class="st4" d="M190.5,1252.6v.9h-87.6v-.9h87.6,0ZM192.4,1164v87.6h-.9v-87.6h.9Z"/>
        <path class="st4" d="M280.1,1252.6v.9h-87.6v-.9h87.6ZM281.9,1164v87.6h-.9v-87.6h.9Z"/>
        <path class="st4" d="M369.6,1252.6v.9h-87.6v-.9h87.6ZM371.4,1164v87.6h-.9v-87.6h.9Z"/>
        <path class="st4" d="M460,1164v88.6h-88.6v-88.6h88.6Z"/>
        <path class="st4" d="M459.1,1252.6v.9h-87.6v-.9h87.6ZM460.9,1164v87.6h-.9v-87.6h.9Z"/>
        <path class="st4" d="M548.6,1252.6v.9h-87.6v-.9h87.6ZM550.4,1164v87.6h-.9v-87.6h.9Z"/>
        <path class="st4" d="M638.1,1252.6v.9h-87.6v-.9h87.6ZM640,1164v87.6h-.9v-87.6h.9Z"/>
        <path class="st4" d="M727.6,1252.6v.9h-87.6v-.9h87.6ZM729.5,1164v87.6h-.9v-87.6h.9Z"/>
        <path class="st4" d="M817.1,1252.6v.9h-87.6v-.9h87.6ZM819,1164v87.6h-.9v-87.6h.9Z"/>
        <path class="st4" d="M906.6,1252.6v.9h-87.6v-.9h87.6ZM908.5,1164v87.6h-.9v-87.6h.9Z"/>
        <path class="st4" d="M997.1,1164v88.6h-88.6v-88.6h88.6Z"/>
        <path class="st4" d="M996.1,1252.6v.9h-87.6v-.9h87.6ZM998.1,1164v87.6h-.9v-87.6h.9Z"/>
        <path class="st4" d="M1085.6,1252.6v.9h-87.6v-.9h87.6ZM1087.6,1164v87.6h-.9v-87.6h.9Z"/>
        <path class="st4" d="M1175.1,1252.6v.9h-87.6v-.9h87.6ZM1177.1,1164v87.6h-.9v-87.6h.9Z"/>
        <path class="st4" d="M1264.6,1252.6v.9h-87.6v-.9h87.6ZM1266.6,1164v87.6h-.9v-87.6h.9Z"/>
        <path class="st4" d="M1354.1,1252.6v.9h-87.6v-.9h87.6ZM1356.1,1164v87.6h-.9v-87.6h.9Z"/>
        <path class="st4" d="M1443.6,1252.6v.9h-87.6v-.9h87.6ZM1445.6,1164v87.6h-.9v-87.6h.9Z"/>
        <path class="st4" d="M1533.2,1252.6v.9h-87.6v-.9h87.6ZM1535.1,1164v87.6h-.9v-87.6h.9Z"/>
        <path class="st4" d="M190.5,1342.1v.9h-87.6v-.9h87.6,0ZM192.4,1253.5v87.6h-.9v-87.6h.9Z"/>
        <path class="st4" d="M281,1253.5v88.6h-88.6v-88.6h88.6Z"/>
        <path class="st4" d="M280.1,1342.1v.9h-87.6v-.9h87.6ZM281.9,1253.5v87.6h-.9v-87.6h.9Z"/>
        <path class="st4" d="M369.6,1342.1v.9h-87.6v-.9h87.6ZM371.4,1253.5v87.6h-.9v-87.6h.9Z"/>
        <path class="st4" d="M459.1,1342.1v.9h-87.6v-.9h87.6ZM460.9,1253.5v87.6h-.9v-87.6h.9Z"/>
        <path class="st4" d="M548.6,1342.1v.9h-87.6v-.9h87.6ZM550.4,1253.5v87.6h-.9v-87.6h.9Z"/>
        <path class="st4" d="M638.1,1342.1v.9h-87.6v-.9h87.6ZM640,1253.5v87.6h-.9v-87.6h.9Z"/>
        <path class="st4" d="M727.6,1342.1v.9h-87.6v-.9h87.6ZM729.5,1253.5v87.6h-.9v-87.6h.9Z"/>
        <path class="st4" d="M817.1,1342.1v.9h-87.6v-.9h87.6ZM819,1253.5v87.6h-.9v-87.6h.9Z"/>
        <path class="st4" d="M906.6,1342.1v.9h-87.6v-.9h87.6ZM908.5,1253.5v87.6h-.9v-87.6h.9Z"/>
        <path class="st4" d="M996.1,1342.1v.9h-87.6v-.9h87.6ZM998.1,1253.5v87.6h-.9v-87.6h.9Z"/>
        <path class="st4" d="M1085.6,1342.1v.9h-87.6v-.9h87.6ZM1087.6,1253.5v87.6h-.9v-87.6h.9Z"/>
        <path class="st4" d="M1175.1,1342.1v.9h-87.6v-.9h87.6ZM1177.1,1253.5v87.6h-.9v-87.6h.9Z"/>
        <path class="st4" d="M1264.6,1342.1v.9h-87.6v-.9h87.6ZM1266.6,1253.5v87.6h-.9v-87.6h.9Z"/>
        <path class="st4" d="M1354.1,1342.1v.9h-87.6v-.9h87.6ZM1356.1,1253.5v87.6h-.9v-87.6h.9Z"/>
        <path class="st4" d="M1444.6,1253.5v88.6h-88.6v-88.6h88.6Z"/>
        <path class="st4" d="M1443.6,1342.1v.9h-87.6v-.9h87.6ZM1445.6,1253.5v87.6h-.9v-87.6h.9Z"/>
        <path class="st4" d="M1533.2,1342.1v.9h-87.6v-.9h87.6ZM1535.1,1253.5v87.6h-.9v-87.6h.9Z"/>
      </g>
    </g>
  </g>
  <rect class="st0" y="867" width="1638" height="1164.8"/>
</svg>