<svg width="18" height="18" viewBox="0 0 18 18" fill="none" xmlns="http://www.w3.org/2000/svg">
<path d="M9 3.375C7.88748 3.375 6.79995 3.7049 5.87492 4.32298C4.94989 4.94107 4.22892 5.81957 3.80318 6.84741C3.37744 7.87524 3.26604 9.00624 3.48309 10.0974C3.70013 11.1885 4.23586 12.1908 5.02253 12.9775C5.8092 13.7641 6.81148 14.2999 7.90262 14.5169C8.99376 14.734 10.1248 14.6226 11.1526 14.1968C12.1804 13.7711 13.0589 13.0501 13.677 12.1251C14.2951 11.2001 14.625 10.1125 14.625 9C14.625 7.50816 14.0324 6.07742 12.9775 5.02252C11.9226 3.96763 10.4918 3.375 9 3.375ZM9 13.875C8.03582 13.875 7.09329 13.5891 6.2916 13.0534C5.48991 12.5177 4.86507 11.7564 4.49609 10.8656C4.12711 9.97479 4.03057 8.99459 4.21867 8.04893C4.40678 7.10328 4.87108 6.23464 5.55286 5.55285C6.23464 4.87107 7.10328 4.40677 8.04894 4.21867C8.99459 4.03057 9.97479 4.12711 10.8656 4.49609C11.7564 4.86506 12.5177 5.48991 13.0534 6.2916C13.5891 7.09328 13.875 8.03582 13.875 9C13.875 10.2929 13.3614 11.5329 12.4471 12.4471C11.5329 13.3614 10.2929 13.875 9 13.875Z" fill="#A39781"/>
<path d="M11.1337 6.87375C11.0989 6.83861 11.0574 6.81071 11.0117 6.79167C10.966 6.77263 10.917 6.76283 10.8675 6.76283C10.818 6.76283 10.769 6.77263 10.7233 6.79167C10.6776 6.81071 10.6361 6.83861 10.6012 6.87375L8.99997 8.47125L7.39872 6.87375C7.3651 6.8345 7.32373 6.80262 7.27721 6.78011C7.23069 6.7576 7.18001 6.74495 7.12837 6.74296C7.07672 6.74096 7.02522 6.74966 6.9771 6.76852C6.92898 6.78737 6.88527 6.81597 6.84873 6.85251C6.81218 6.88906 6.78358 6.93276 6.76473 6.98088C6.74588 7.02901 6.73718 7.0805 6.73917 7.13215C6.74117 7.18379 6.75381 7.23447 6.77632 7.28099C6.79883 7.32752 6.83071 7.36889 6.86997 7.4025L8.47122 9L6.87372 10.5975C6.80311 10.6676 6.76324 10.7629 6.76289 10.8624C6.76254 10.9619 6.80173 11.0575 6.87185 11.1281C6.94196 11.1987 7.03726 11.2386 7.13677 11.239C7.23628 11.2393 7.33186 11.2001 7.40247 11.13L8.99997 9.5325L10.5975 11.1338C10.6332 11.1712 10.6763 11.2009 10.7241 11.2209C10.7718 11.2409 10.8232 11.2508 10.875 11.25C10.9243 11.2503 10.9732 11.2408 11.0189 11.2222C11.0646 11.2035 11.1062 11.176 11.1412 11.1413C11.1764 11.1064 11.2043 11.0649 11.2233 11.0192C11.2423 10.9735 11.2521 10.9245 11.2521 10.875C11.2521 10.8255 11.2423 10.7765 11.2233 10.7308C11.2043 10.6851 11.1764 10.6436 11.1412 10.6088L9.53247 9L11.1337 7.39875C11.2024 7.32866 11.2409 7.23441 11.2409 7.13626C11.2409 7.0381 11.2024 6.94385 11.1337 6.87375Z" fill="#A39781"/>
</svg>
