<svg width="36" height="36" viewBox="0 0 36 36" fill="none" xmlns="http://www.w3.org/2000/svg">
<path d="M10.1423 7.23983C10.2571 7.23983 10.369 7.20465 10.4631 7.13903C10.7524 6.9377 11.0542 6.74544 11.3599 6.56746C11.424 6.53046 11.4802 6.48116 11.5253 6.42239C11.5703 6.36362 11.6033 6.29654 11.6223 6.225C11.6414 6.15345 11.6461 6.07885 11.6362 6.00547C11.6264 5.93209 11.6022 5.86138 11.5649 5.79739C11.5277 5.7334 11.4782 5.67739 11.4193 5.63257C11.3603 5.58776 11.2931 5.55502 11.2215 5.53623C11.1499 5.51744 11.0753 5.51298 11.0019 5.5231C10.9286 5.53321 10.858 5.55771 10.7941 5.59518C10.4623 5.78827 10.1347 5.99701 9.82044 6.21563C9.72213 6.28409 9.64823 6.38215 9.60952 6.49552C9.57081 6.6089 9.56931 6.73167 9.60523 6.84596C9.64115 6.96025 9.71262 7.06009 9.80923 7.13093C9.90584 7.20178 10.0225 7.23992 10.1423 7.23983Z" fill="#8B7E68"/>
<path d="M13.0752 5.68766C13.1439 5.68769 13.2121 5.67503 13.2762 5.6503C13.3275 5.63067 13.3801 5.61341 13.4317 5.59438C13.4292 5.57421 13.4263 5.55117 13.424 5.53248C13.4069 5.39129 13.3866 5.25013 13.3666 5.10882L13.3608 5.06954C13.3331 4.87556 13.3042 4.66883 13.2795 4.45386C13.1436 4.5012 13.0077 4.54856 12.8741 4.59974C12.7513 4.64671 12.6489 4.73521 12.5845 4.84986C12.5202 4.96451 12.498 5.09808 12.5219 5.22736C12.5458 5.35664 12.6142 5.47346 12.7153 5.55755C12.8164 5.64164 12.9437 5.68767 13.0752 5.68766Z" fill="#8B7E68"/>
<path d="M7.24055 8.51421C7.19167 8.56961 7.15419 8.6341 7.13024 8.70398C7.10629 8.77387 7.09634 8.84779 7.10095 8.92152C7.11028 9.07043 7.17837 9.20954 7.29026 9.30825C7.40215 9.40695 7.54866 9.45716 7.69757 9.44784C7.77131 9.44322 7.84341 9.42413 7.90976 9.39165C7.97612 9.35917 8.03542 9.31393 8.0843 9.25853C8.31858 8.9928 8.56605 8.73394 8.81983 8.48935C8.9272 8.38577 8.98903 8.24377 8.9917 8.0946C8.99438 7.94543 8.93769 7.80131 8.83411 7.69394C8.73052 7.58657 8.58853 7.52474 8.43936 7.52206C8.29019 7.51939 8.14607 7.57607 8.03869 7.67966C7.7635 7.94511 7.49488 8.22595 7.24055 8.51421Z" fill="#8B7E68"/>
<path d="M4.60933 15.2934C4.73531 15.2933 4.85757 15.2508 4.95657 15.1729C5.05556 15.095 5.12556 14.9861 5.15536 14.8637C5.23885 14.521 5.33745 14.177 5.44842 13.8415C5.49529 13.6999 5.484 13.5454 5.41701 13.4122C5.35002 13.2789 5.23283 13.1777 5.09123 13.1308C4.94962 13.0839 4.79519 13.0952 4.66191 13.1622C4.52863 13.2292 4.42742 13.3464 4.38055 13.488C4.25997 13.852 4.15285 14.2256 4.06222 14.5979C4.04215 14.6807 4.04115 14.767 4.05928 14.8502C4.07741 14.9335 4.1142 15.0115 4.16688 15.0785C4.21955 15.1455 4.28675 15.1996 4.36339 15.2369C4.44003 15.2741 4.52413 15.2934 4.60933 15.2934Z" fill="#8B7E68"/>
<path d="M6.6336 10.1851C6.57113 10.1456 6.50148 10.1188 6.42865 10.1063C6.35581 10.0937 6.28122 10.0957 6.20915 10.1121C6.13707 10.1284 6.06893 10.1588 6.00862 10.2015C5.94831 10.2442 5.89702 10.2984 5.85769 10.361C5.6528 10.6863 5.45888 11.0231 5.28146 11.362C5.24714 11.4274 5.22607 11.499 5.21943 11.5727C5.2128 11.6463 5.22074 11.7205 5.2428 11.791C5.26485 11.8616 5.3006 11.9271 5.34799 11.9838C5.39537 12.0406 5.45348 12.0874 5.51897 12.1217C5.58447 12.1559 5.65608 12.1769 5.7297 12.1835C5.80333 12.1901 5.87753 12.1821 5.94806 12.16C6.01859 12.1379 6.08408 12.1021 6.14077 12.0546C6.19746 12.0072 6.24425 11.9491 6.27847 11.8836C6.44189 11.5713 6.62042 11.2608 6.80966 10.9608C6.84903 10.8983 6.87572 10.8287 6.88818 10.7559C6.90064 10.6831 6.89864 10.6085 6.8823 10.5365C6.86595 10.4645 6.83557 10.3963 6.7929 10.336C6.75023 10.2757 6.6961 10.2244 6.6336 10.1851Z" fill="#8B7E68"/>
<path d="M23.6286 6.036C23.6954 6.06759 23.7678 6.08569 23.8417 6.08928C23.9155 6.09286 23.9893 6.08186 24.0589 6.0569C24.1285 6.03194 24.1924 5.99351 24.2471 5.94381C24.3019 5.89411 24.3462 5.83411 24.3777 5.76724C24.4093 5.70038 24.4273 5.62796 24.4308 5.55412C24.4343 5.48029 24.4232 5.40649 24.3982 5.33694C24.3731 5.26739 24.3346 5.20346 24.2849 5.1488C24.2351 5.09414 24.175 5.04983 24.1081 5.01839C23.7604 4.85456 23.4023 4.70322 23.0436 4.5685C22.9367 4.52804 22.8199 4.52148 22.7092 4.54971C22.6871 4.72985 22.6626 4.90382 22.639 5.06852C22.6168 5.22384 22.5948 5.37861 22.5758 5.53283C22.574 5.5479 22.5716 5.56668 22.5696 5.58271C22.5947 5.59769 22.6209 5.61067 22.6481 5.62154C22.9785 5.74569 23.3083 5.88508 23.6286 6.036Z" fill="#8B7E68"/>
<path d="M30.6785 11.286C30.6084 11.1546 30.489 11.0563 30.3466 11.0128C30.2041 10.9693 30.0502 10.9841 29.9186 11.0539C29.787 11.1237 29.6885 11.2429 29.6446 11.3853C29.6008 11.5277 29.6153 11.6816 29.6848 11.8134C29.8499 12.1247 30.0048 12.4472 30.1451 12.7721C30.2044 12.9089 30.3155 13.0166 30.4541 13.0715C30.5927 13.1264 30.7475 13.1241 30.8843 13.065C31.0212 13.0059 31.129 12.8948 31.184 12.7563C31.2391 12.6177 31.2369 12.4629 31.1779 12.326C31.0257 11.9738 30.8579 11.6239 30.6785 11.286Z" fill="#8B7E68"/>
<path d="M30.8255 14.7852C30.9112 15.1282 30.9837 15.4787 31.0411 15.8267C31.0531 15.8996 31.0794 15.9694 31.1184 16.0321C31.1575 16.0949 31.2085 16.1493 31.2685 16.1923C31.3286 16.2354 31.3965 16.2661 31.4685 16.2829C31.5405 16.2997 31.615 16.3021 31.6879 16.29C31.7608 16.278 31.8306 16.2517 31.8933 16.2127C31.9561 16.1737 32.0105 16.1227 32.0535 16.0626C32.0966 16.0025 32.1273 15.9346 32.1441 15.8626C32.1609 15.7907 32.1633 15.7161 32.1513 15.6432C32.0886 15.2654 32.0098 14.885 31.917 14.5127C31.8802 14.3687 31.7879 14.2451 31.6602 14.1689C31.5326 14.0927 31.38 14.0701 31.2357 14.1061C31.0915 14.1421 30.9674 14.2338 30.8905 14.361C30.8136 14.4883 30.7902 14.6408 30.8255 14.7852Z" fill="#8B7E68"/>
<path d="M4.07643 21.459C4.1123 21.6039 4.20423 21.7285 4.332 21.8055C4.45977 21.8825 4.6129 21.9057 4.75771 21.8698C4.90253 21.8339 5.02716 21.742 5.10419 21.6142C5.18122 21.4864 5.20434 21.3333 5.16847 21.1885C5.0836 20.8463 5.01191 20.4957 4.95478 20.1467C4.93078 19.9995 4.84928 19.8679 4.72821 19.7807C4.60714 19.6936 4.45641 19.6581 4.3092 19.6821C4.16198 19.7061 4.03033 19.7876 3.9432 19.9087C3.85607 20.0298 3.82061 20.1805 3.84461 20.3277C3.90641 20.7067 3.98442 21.0874 4.07643 21.459Z" fill="#8B7E68"/>
<path d="M28.5408 10.0221C28.631 10.1409 28.7646 10.219 28.9124 10.2392C29.0602 10.2595 29.21 10.2202 29.3288 10.13C29.4476 10.0398 29.5257 9.90614 29.5459 9.75836C29.5662 9.61058 29.5269 9.46081 29.4367 9.34201C29.2046 9.03604 28.958 8.73625 28.7034 8.45115C28.6542 8.39589 28.5947 8.35087 28.5281 8.31865C28.4616 8.28643 28.3893 8.26765 28.3155 8.26339C28.2417 8.25912 28.1677 8.26946 28.0979 8.2938C28.0281 8.31814 27.9637 8.35601 27.9086 8.40525C27.8534 8.45448 27.8085 8.51411 27.7764 8.58073C27.7443 8.64734 27.7256 8.71963 27.7215 8.79346C27.7173 8.86729 27.7278 8.94122 27.7523 9.011C27.7767 9.08078 27.8147 9.14506 27.864 9.20015C28.0989 9.46328 28.3265 9.73972 28.5408 10.0221Z" fill="#8B7E68"/>
<path d="M27.0346 6.85852C26.7361 6.61627 26.4249 6.38377 26.1098 6.16735C25.9868 6.08292 25.8353 6.05081 25.6887 6.07809C25.542 6.10536 25.4122 6.18978 25.3277 6.31278C25.2433 6.43577 25.2112 6.58727 25.2385 6.73394C25.2658 6.88061 25.3502 7.01044 25.4732 7.09487C25.7635 7.29427 26.0505 7.50864 26.326 7.73221C26.4419 7.82578 26.5902 7.86956 26.7383 7.85394C26.8865 7.83832 27.0223 7.76458 27.1162 7.64889C27.21 7.5332 27.2541 7.38501 27.2388 7.23684C27.2235 7.08867 27.1501 6.95261 27.0346 6.85852Z" fill="#8B7E68"/>
<path d="M28.74 27.5075C28.7889 27.4522 28.8265 27.3878 28.8506 27.318C28.8747 27.2482 28.8848 27.1743 28.8803 27.1006C28.8758 27.0269 28.8569 26.9547 28.8245 26.8884C28.7922 26.822 28.7471 26.7626 28.6918 26.7136C28.6365 26.6647 28.5721 26.6271 28.5023 26.603C28.4324 26.5789 28.3586 26.5688 28.2848 26.5733C28.2111 26.5778 28.139 26.5967 28.0726 26.6291C28.0062 26.6614 27.9468 26.7065 27.8979 26.7618C27.663 27.0267 27.415 27.285 27.1607 27.5294C27.0534 27.6328 26.9915 27.7746 26.9886 27.9236C26.9858 28.0726 27.0422 28.2167 27.1454 28.3241C27.2487 28.4316 27.3904 28.4937 27.5394 28.4968C27.6884 28.4999 27.8325 28.4438 27.9402 28.3407C28.2162 28.0755 28.4854 27.7952 28.74 27.5075Z" fill="#8B7E68"/>
<path d="M29.3507 25.8379C29.4131 25.8774 29.4827 25.9043 29.5555 25.9169C29.6283 25.9296 29.7029 25.9277 29.775 25.9115C29.8471 25.8953 29.9153 25.8651 29.9756 25.8225C30.036 25.78 30.0874 25.7259 30.1269 25.6635C30.3324 25.3394 30.5268 25.0029 30.7051 24.6636C30.7399 24.5981 30.7614 24.5265 30.7684 24.4527C30.7755 24.3789 30.7678 24.3045 30.746 24.2337C30.7242 24.1628 30.6885 24.097 30.6412 24.04C30.5938 23.983 30.5357 23.9359 30.4701 23.9015C30.4045 23.867 30.3327 23.8458 30.2589 23.8392C30.1851 23.8325 30.1107 23.8405 30.04 23.8627C29.9693 23.8849 29.9036 23.9209 29.8469 23.9685C29.7901 24.0162 29.7433 24.0746 29.7092 24.1403C29.5449 24.453 29.3656 24.763 29.1766 25.0617C29.0968 25.1877 29.0704 25.3403 29.103 25.4858C29.1357 25.6314 29.2248 25.758 29.3507 25.8379Z" fill="#8B7E68"/>
<path d="M32.2981 19.1529C32.3284 18.7719 32.3437 18.3841 32.3437 17.9919L32.3435 17.9441C32.3435 17.7949 32.2842 17.6518 32.1787 17.5463C32.0732 17.4409 31.9301 17.3816 31.781 17.3816C31.6318 17.3816 31.4887 17.4409 31.3832 17.5463C31.2777 17.6518 31.2185 17.7949 31.2185 17.9441L31.2187 18.0001C31.2187 18.3544 31.2045 18.7122 31.1764 19.0636C31.1647 19.2123 31.2124 19.3596 31.3092 19.4731C31.406 19.5866 31.5438 19.657 31.6925 19.6689C31.7079 19.6702 31.723 19.6707 31.7378 19.6707C31.8792 19.6706 32.0154 19.6172 32.1192 19.5213C32.223 19.4253 32.2869 19.2938 32.2981 19.1529Z" fill="#8B7E68"/>
<path d="M31.0765 22.9244C31.1946 22.9244 31.3097 22.8872 31.4054 22.8182C31.5012 22.7491 31.5728 22.6517 31.6102 22.5397C31.731 22.1776 31.8387 21.8043 31.9307 21.4304C31.9484 21.3586 31.9518 21.2841 31.9407 21.211C31.9295 21.1379 31.9041 21.0677 31.8659 21.0045C31.8276 20.9413 31.7772 20.8862 31.7177 20.8424C31.6581 20.7986 31.5905 20.767 31.5187 20.7494C31.4469 20.7318 31.3724 20.7284 31.2993 20.7396C31.2263 20.7509 31.1561 20.7763 31.0929 20.8147C31.0297 20.853 30.9747 20.9034 30.9309 20.963C30.8872 21.0226 30.8557 21.0902 30.8381 21.162C30.7535 21.5065 30.6541 21.8502 30.5429 22.1838C30.5147 22.2683 30.507 22.3584 30.5205 22.4465C30.5339 22.5346 30.5681 22.6183 30.6202 22.6906C30.6723 22.7629 30.7409 22.8218 30.8202 22.8625C30.8995 22.9031 30.9874 22.9243 31.0765 22.9244Z" fill="#8B7E68"/>
<path d="M12.347 29.9527C12.2122 29.8891 12.0577 29.8816 11.9174 29.9319C11.7771 29.9821 11.6624 30.0859 11.5986 30.2206C11.5348 30.3553 11.527 30.5098 11.577 30.6502C11.627 30.7906 11.7307 30.9054 11.8652 30.9695C12.2127 31.134 12.5705 31.286 12.929 31.4215C12.9403 31.4258 12.9518 31.4275 12.9632 31.431L12.7799 30.1471C12.6344 30.0845 12.4895 30.0202 12.347 29.9527Z" fill="#8B7E68"/>
<path d="M25.5151 28.8762C25.2237 29.078 24.9213 29.2698 24.617 29.446C24.4879 29.5207 24.3938 29.6437 24.3553 29.7878C24.3169 29.932 24.3372 30.0855 24.412 30.2146C24.4867 30.3437 24.6097 30.4378 24.7538 30.4763C24.898 30.5147 25.0515 30.4944 25.1806 30.4196C25.511 30.2283 25.8392 30.0203 26.1557 29.8012C26.2783 29.7163 26.3622 29.5861 26.3889 29.4393C26.4156 29.2925 26.3829 29.1411 26.2979 29.0184C26.213 28.8958 26.0828 28.8119 25.936 28.7852C25.7892 28.7585 25.6378 28.7912 25.5151 28.8762Z" fill="#8B7E68"/>
<path d="M10.5051 28.8901C10.2142 28.6894 9.9275 28.4745 9.65339 28.2509C9.53768 28.1571 9.38945 28.1129 9.24124 28.1282C9.09302 28.1435 8.95692 28.217 8.8628 28.3325C8.76868 28.448 8.72421 28.5961 8.73917 28.7444C8.75413 28.8926 8.82728 29.0289 8.94258 29.1232C9.24004 29.3655 9.55095 29.5987 9.86626 29.8162C9.92707 29.8582 9.99555 29.8877 10.0678 29.9032C10.14 29.9187 10.2146 29.9198 10.2873 29.9064C10.3599 29.8931 10.4292 29.8656 10.4913 29.8254C10.5533 29.7853 10.6068 29.7334 10.6488 29.6726C10.6907 29.6117 10.7203 29.5433 10.7358 29.471C10.7512 29.3988 10.7523 29.3242 10.739 29.2515C10.7257 29.1789 10.6981 29.1096 10.658 29.0475C10.6179 28.9855 10.5659 28.932 10.5051 28.8901Z" fill="#8B7E68"/>
<path d="M5.30808 24.6883C5.34258 24.7536 5.38961 24.8115 5.44648 24.8586C5.50335 24.9058 5.56895 24.9413 5.63953 24.9631C5.71012 24.9849 5.7843 24.9925 5.85785 24.9857C5.9314 24.9788 6.00288 24.9575 6.0682 24.923C6.13352 24.8885 6.1914 24.8415 6.23855 24.7846C6.2857 24.7277 6.32118 24.6621 6.34297 24.5915C6.36476 24.5209 6.37244 24.4468 6.36557 24.3732C6.35869 24.2997 6.33739 24.2282 6.30289 24.1629C6.13864 23.8518 5.98456 23.529 5.84476 23.2035C5.81569 23.1355 5.77352 23.074 5.72066 23.0224C5.66779 22.9707 5.60527 22.93 5.53667 22.9026C5.46806 22.8751 5.39472 22.8614 5.32083 22.8623C5.24694 22.8632 5.17395 22.8787 5.10603 22.9078C5.03812 22.9369 4.97661 22.9792 4.92502 23.0321C4.87343 23.085 4.83277 23.1475 4.80536 23.2162C4.77796 23.2848 4.76435 23.3581 4.76531 23.432C4.76626 23.5059 4.78177 23.5789 4.81095 23.6468C4.9623 24.0001 5.12984 24.3505 5.30808 24.6883Z" fill="#8B7E68"/>
<path d="M7.44299 25.9565C7.35303 25.8375 7.21947 25.7591 7.07169 25.7385C6.92392 25.718 6.77403 25.757 6.655 25.8469C6.53597 25.9369 6.45756 26.0704 6.43701 26.2182C6.41645 26.366 6.45545 26.5159 6.54541 26.6349C6.7775 26.9418 7.02386 27.2422 7.2771 27.5273C7.37629 27.6386 7.51562 27.706 7.66448 27.7147C7.81335 27.7234 7.95956 27.6726 8.07101 27.5735C8.18246 27.4745 8.25002 27.3352 8.25885 27.1863C8.26768 27.0375 8.21705 26.8912 8.1181 26.7797C7.8841 26.5168 7.65723 26.2398 7.44299 25.9565Z" fill="#8B7E68"/>
<path d="M3.69965 16.8762C3.67081 17.2466 3.65625 17.6246 3.65625 17.9999V18.028C3.65653 18.1011 3.67138 18.1734 3.69992 18.2408C3.72846 18.3081 3.77013 18.3691 3.82249 18.4202C3.87486 18.4712 3.93686 18.5113 4.0049 18.5382C4.07293 18.565 4.14563 18.578 4.21875 18.5765C4.36936 18.5733 4.5127 18.5111 4.61791 18.4032C4.72311 18.2954 4.78177 18.1506 4.78125 17.9999C4.78125 17.6536 4.79471 17.3049 4.82135 16.9635C4.82724 16.8898 4.81853 16.8156 4.79571 16.7453C4.7729 16.6749 4.73644 16.6097 4.68841 16.5535C4.64038 16.4972 4.58172 16.451 4.51581 16.4174C4.44989 16.3839 4.378 16.3636 4.30426 16.3579C4.23051 16.3522 4.15636 16.361 4.08604 16.384C4.01572 16.4069 3.95062 16.4435 3.89446 16.4916C3.8383 16.5398 3.79219 16.5985 3.75876 16.6645C3.72533 16.7305 3.70524 16.8024 3.69965 16.8762Z" fill="#8B7E68"/>
<path d="M23.1836 30.4028L23.0365 31.4331C23.0571 31.4254 23.0782 31.4186 23.0988 31.4108C23.2382 31.3578 23.3509 31.2515 23.4119 31.1154C23.473 30.9793 23.4776 30.8245 23.4245 30.685C23.3789 30.5662 23.2938 30.4666 23.1836 30.4028Z" fill="#8B7E68"/>
<path d="M24.8752 20.6454C24.9356 20.5823 24.9805 20.506 25.0062 20.4225C25.032 20.339 25.0379 20.2507 25.0235 20.1646L23.2121 9.23936C23.194 9.13006 23.1441 9.02854 23.0685 8.94755C22.9929 8.86656 22.895 8.8097 22.7873 8.78411L20.5049 8.24271C21.1227 7.39908 21.3476 6.30499 21.4593 5.3951C21.4791 5.2336 21.5021 5.07128 21.5255 4.90896C21.6801 3.82626 21.8553 2.59922 21.0275 1.52874C20.7247 1.10632 20.3358 0.752939 19.8863 0.491946C19.4369 0.230954 18.9371 0.0682869 18.4202 0.0146896H18.4196C18.1338 -0.00573212 17.8468 -0.00485972 17.561 0.0172996C17.0477 0.0732378 16.5518 0.23672 16.1058 0.497093C15.6599 0.757466 15.2738 1.10889 14.9727 1.52846C14.1446 2.59964 14.3198 3.82722 14.4744 4.91034C14.4975 5.07225 14.5206 5.23402 14.5404 5.39525C14.6524 6.30601 14.8772 7.39993 15.4942 8.24292L13.2127 8.78412C13.1049 8.8097 13.007 8.86656 12.9314 8.94755C12.8559 9.02854 12.8059 9.13006 12.7878 9.23936L10.9764 20.1646C10.962 20.2507 10.968 20.339 10.9937 20.4225C11.0195 20.506 11.0643 20.5823 11.1247 20.6454L12.8114 22.4088L14.6832 35.517C14.7023 35.651 14.7691 35.7737 14.8714 35.8624C14.9737 35.9511 15.1045 36 15.2399 36H20.76C20.8954 36 21.0262 35.9511 21.1285 35.8624C21.2308 35.7737 21.2976 35.651 21.3167 35.517L23.1885 22.4088L24.8752 20.6454ZM15.8623 2.21704C16.0705 1.91834 16.3399 1.66746 16.6527 1.48112C16.9655 1.29478 17.3144 1.17726 17.6761 1.13639C17.7492 1.12884 17.8827 1.12499 18.0131 1.12499C18.1301 1.12499 18.245 1.12801 18.3114 1.13447C18.6755 1.17373 19.0269 1.29067 19.3419 1.47738C19.6569 1.66409 19.9281 1.91623 20.1373 2.21676C20.6746 2.91109 20.5526 3.76322 20.4117 4.74979C20.3876 4.91953 20.3634 5.08926 20.3425 5.25805C20.092 7.29945 19.4546 8.21667 18.1417 8.42417C18.0555 8.44105 17.967 8.44208 17.8805 8.42719C16.5712 8.23095 15.9062 7.28324 15.6571 5.25805C15.6365 5.08968 15.6124 4.92049 15.5882 4.7513C15.447 3.76405 15.3253 2.91151 15.8623 2.21704ZM19.1967 9.28496L18 11.8981L16.8027 9.28391C17.0939 9.40777 17.3998 9.49374 17.7129 9.5397C17.8079 9.55461 17.9038 9.56228 18 9.56263C18.1066 9.56201 18.2131 9.55287 18.3183 9.5353C18.6203 9.48854 18.9154 9.40445 19.1967 9.28496ZM22.2116 15.6605C22.1999 15.5875 22.1739 15.5175 22.1351 15.4546C22.0964 15.3917 22.0456 15.337 21.9857 15.2937C21.9258 15.2504 21.858 15.2193 21.786 15.2023C21.7141 15.1852 21.6396 15.1825 21.5666 15.1942C21.4936 15.206 21.4237 15.232 21.3608 15.2708C21.2979 15.3096 21.2433 15.3604 21.2 15.4204C21.1568 15.4803 21.1257 15.5482 21.1087 15.6201C21.0917 15.692 21.089 15.7666 21.1008 15.8395L22.1035 22.0617C22.1029 22.0649 22.1011 22.0677 22.1006 22.071L20.2722 34.875H18.5625V25.6305C18.5625 25.4814 18.5032 25.3383 18.3977 25.2328C18.2922 25.1273 18.1491 25.068 18 25.068C17.8508 25.068 17.7077 25.1273 17.6022 25.2328C17.4967 25.3383 17.4375 25.4814 17.4375 25.6305V34.875H15.7277L13.9112 22.1543L14.8993 15.8369C14.9109 15.7639 14.908 15.6893 14.8907 15.6174C14.8734 15.5455 14.8421 15.4777 14.7985 15.418C14.755 15.3582 14.7001 15.3076 14.637 15.269C14.5739 15.2305 14.5039 15.2048 14.4308 15.1933C14.3577 15.1819 14.2832 15.185 14.2113 15.2024C14.1394 15.2199 14.0717 15.2513 14.012 15.2949C13.9523 15.3385 13.9018 15.3935 13.8634 15.4567C13.825 15.5199 13.7994 15.59 13.7881 15.6631L12.9628 20.9395L12.1322 20.071L13.8364 9.79237L15.606 9.37256L17.4886 13.4832C17.5334 13.5812 17.6055 13.6641 17.6961 13.7223C17.7868 13.7805 17.8922 13.8114 18 13.8114C18.1077 13.8114 18.2131 13.7805 18.3038 13.7223C18.3945 13.6641 18.4665 13.5812 18.5114 13.4832L20.3939 9.37256L22.1635 9.79237L23.8678 20.071L23.0586 20.9171L22.2116 15.6605Z" fill="#8B7E68"/>
<path d="M2.26126 4.43106L3.75321 5.24693L4.56894 6.7386C4.61738 6.82719 4.68876 6.9011 4.7756 6.95259C4.86244 7.00408 4.96154 7.03125 5.0625 7.03125C5.16346 7.03125 5.26256 7.00408 5.3494 6.95259C5.43624 6.9011 5.50763 6.82719 5.55606 6.7386L6.3718 5.24693L7.86376 4.43106C7.95231 4.3826 8.02619 4.3112 8.07765 4.22437C8.12912 4.13753 8.15627 4.03844 8.15627 3.9375C8.15627 3.83656 8.12912 3.73747 8.07765 3.65064C8.02619 3.5638 7.95231 3.4924 7.86376 3.44394L6.37181 2.62807L5.55607 1.1364C5.50764 1.04782 5.43625 0.973903 5.34941 0.922412C5.26257 0.870921 5.16347 0.84375 5.06251 0.84375C4.96155 0.84375 4.86245 0.870921 4.77561 0.922412C4.68877 0.973903 4.61738 1.04782 4.56895 1.1364L3.75322 2.62807L2.26126 3.44394C2.17271 3.4924 2.09884 3.5638 2.04737 3.65064C1.99591 3.73747 1.96875 3.83656 1.96875 3.9375C1.96875 4.03844 1.99591 4.13753 2.04737 4.22437C2.09884 4.3112 2.17271 4.3826 2.26126 4.43106ZM4.43765 3.53609C4.53201 3.4844 4.60959 3.40677 4.66122 3.31238L5.06251 2.57863L5.46379 3.31238C5.51542 3.40677 5.593 3.4844 5.68736 3.53609L6.42151 3.9375L5.68735 4.33891C5.59299 4.39061 5.51541 4.46823 5.46378 4.56262L5.06251 5.29637L4.66124 4.56262C4.6096 4.46823 4.53202 4.39061 4.43766 4.33891L3.70351 3.9375L4.43765 3.53609Z" fill="#8B7E68"/>
<path d="M28.1363 4.43106L29.6282 5.24693L30.4439 6.7386C30.4924 6.82719 30.5638 6.9011 30.6506 6.95259C30.7374 7.00408 30.8365 7.03125 30.9375 7.03125C31.0385 7.03125 31.1376 7.00408 31.2244 6.95259C31.3112 6.9011 31.3826 6.82719 31.4311 6.7386L32.2468 5.24693L33.7388 4.43106C33.8273 4.3826 33.9012 4.3112 33.9527 4.22437C34.0041 4.13753 34.0313 4.03844 34.0313 3.9375C34.0313 3.83656 34.0041 3.73747 33.9527 3.65064C33.9012 3.5638 33.8273 3.4924 33.7388 3.44394L32.2468 2.62807L31.4311 1.1364C31.3826 1.04782 31.3113 0.973903 31.2244 0.922412C31.1376 0.870921 31.0385 0.84375 30.9375 0.84375C30.8366 0.84375 30.7375 0.870921 30.6506 0.922412C30.5638 0.973903 30.4924 1.04782 30.444 1.1364L29.6282 2.62807L28.1363 3.44394C28.0477 3.4924 27.9738 3.5638 27.9224 3.65064C27.8709 3.73747 27.8438 3.83656 27.8438 3.9375C27.8438 4.03844 27.8709 4.13753 27.9224 4.22437C27.9738 4.3112 28.0477 4.3826 28.1363 4.43106ZM30.3127 3.53609C30.407 3.4844 30.4846 3.40677 30.5362 3.31238L30.9375 2.57863L31.3388 3.31238C31.3904 3.40677 31.468 3.4844 31.5624 3.53609L32.2965 3.9375L31.5623 4.33891C31.468 4.39061 31.3904 4.46823 31.3388 4.56262L30.9375 5.29637L30.5362 4.56262C30.4846 4.46823 30.407 4.39061 30.3127 4.33891L29.5785 3.9375L30.3127 3.53609Z" fill="#8B7E68"/>
<path d="M7.86376 31.5689L6.37182 30.7531L5.55608 29.2614C5.50765 29.1728 5.43626 29.0989 5.34942 29.0474C5.26258 28.9959 5.16348 28.9688 5.06252 28.9688C4.96156 28.9688 4.86246 28.9959 4.77562 29.0474C4.68878 29.0989 4.6174 29.1728 4.56896 29.2614L3.75322 30.7531L2.26126 31.5689C2.17271 31.6174 2.09884 31.6888 2.04737 31.7756C1.99591 31.8625 1.96875 31.9616 1.96875 32.0625C1.96875 32.1634 1.99591 32.2625 2.04737 32.3494C2.09884 32.4362 2.17271 32.5076 2.26126 32.5561L3.75321 33.3719L4.56894 34.8636C4.61738 34.9522 4.68876 35.0261 4.7756 35.0776C4.86244 35.1291 4.96154 35.1563 5.0625 35.1563C5.16346 35.1563 5.26256 35.1291 5.3494 35.0776C5.43624 35.0261 5.50763 34.9522 5.55606 34.8636L6.3718 33.3719L7.86376 32.5561C7.95231 32.5076 8.02619 32.4362 8.07765 32.3494C8.12912 32.2625 8.15627 32.1634 8.15627 32.0625C8.15627 31.9616 8.12912 31.8625 8.07765 31.7756C8.02619 31.6888 7.95231 31.6174 7.86376 31.5689ZM5.68737 32.4639C5.59301 32.5156 5.51543 32.5932 5.4638 32.6876L5.06251 33.4214L4.66124 32.6876C4.6096 32.5932 4.53202 32.5156 4.43766 32.4639L3.70351 32.0625L4.43767 31.6611C4.53203 31.6094 4.60961 31.5318 4.66124 31.4374L5.06251 30.7036L5.46379 31.4374C5.51542 31.5318 5.593 31.6094 5.68736 31.6611L6.42151 32.0625L5.68737 32.4639Z" fill="#8B7E68"/>
<path d="M33.7388 31.5689L32.2468 30.7531L31.4311 29.2614C31.3826 29.1728 31.3113 29.0989 31.2244 29.0474C31.1376 28.9959 31.0385 28.9688 30.9375 28.9688C30.8366 28.9688 30.7375 28.9959 30.6506 29.0474C30.5638 29.0989 30.4924 29.1728 30.444 29.2614L29.6282 30.7531L28.1363 31.5689C28.0477 31.6174 27.9738 31.6888 27.9224 31.7756C27.8709 31.8625 27.8438 31.9616 27.8438 32.0625C27.8438 32.1634 27.8709 32.2625 27.9224 32.3494C27.9738 32.4362 28.0477 32.5076 28.1363 32.5561L29.6282 33.3719L30.4439 34.8636C30.4924 34.9522 30.5638 35.0261 30.6506 35.0776C30.7374 35.1291 30.8365 35.1563 30.9375 35.1563C31.0385 35.1563 31.1376 35.1291 31.2244 35.0776C31.3112 35.0261 31.3826 34.9522 31.4311 34.8636L32.2468 33.3719L33.7387 32.5561C33.8273 32.5076 33.9012 32.4362 33.9526 32.3494C34.0041 32.2625 34.0313 32.1634 34.0313 32.0625C34.0313 31.9616 34.0041 31.8625 33.9526 31.7756C33.9012 31.6888 33.8273 31.6174 33.7388 31.5689ZM31.5624 32.4639C31.468 32.5156 31.3904 32.5932 31.3388 32.6876L30.9375 33.4214L30.5362 32.6876C30.4846 32.5932 30.407 32.5156 30.3127 32.4639L29.5785 32.0625L30.3127 31.6611C30.407 31.6094 30.4846 31.5318 30.5362 31.4374L30.9375 30.7036L31.3388 31.4374C31.3904 31.5318 31.468 31.6094 31.5624 31.6611L32.2965 32.0625L31.5624 32.4639Z" fill="#8B7E68"/>
</svg>
