<svg width="36" height="36" viewBox="0 0 36 36" fill="none" xmlns="http://www.w3.org/2000/svg">
<path d="M33.9131 14.7937C34.5431 13.4887 34.0369 11.9249 32.7544 11.2387L30.285 9.92244C29.8575 9.69182 29.565 9.28682 29.4806 8.81432L28.9856 6.05244C28.7325 4.62369 27.405 3.65619 25.965 3.85869L23.1919 4.24119C22.7137 4.30869 22.2356 4.15119 21.8869 3.81932L19.8675 1.87869C18.8212 0.871816 17.1787 0.871816 16.1325 1.87869L14.1131 3.81932C13.7644 4.15119 13.2919 4.30869 12.8081 4.24119L10.035 3.85869C8.60061 3.66182 7.26748 4.62369 7.01436 6.05244L6.51936 8.81432C6.43498 9.28682 6.14248 9.69182 5.71498 9.92244L3.24561 11.2387C1.96311 11.9249 1.45686 13.4887 2.08686 14.7937L3.31311 17.3137C3.52123 17.7524 3.52123 18.2474 3.31311 18.6862L2.08686 21.2062C1.45686 22.5112 1.96311 24.0749 3.24561 24.7612L5.71498 26.0774C6.14248 26.3081 6.43498 26.7131 6.51936 27.1856L7.01436 29.9474C7.26748 31.3762 8.59498 32.3437 10.035 32.1412L12.8081 31.7587C13.2862 31.6912 13.7644 31.8487 14.1131 32.1806L16.1325 34.1212C16.6556 34.6274 17.3306 34.8749 18 34.8749C18.6694 34.8749 19.3444 34.6274 19.8675 34.1212L21.8869 32.1806C22.2356 31.8487 22.7137 31.6912 23.1919 31.7587L25.965 32.1412C27.405 32.3437 28.7325 31.3762 28.9856 29.9474L29.4806 27.1856C29.565 26.7131 29.8575 26.3081 30.285 26.0774L32.7544 24.7612C34.0369 24.0749 34.5431 22.5112 33.9131 21.2062L32.6869 18.6862C32.4787 18.2474 32.4787 17.7524 32.6869 17.3137L33.9131 14.7937ZM31.6744 19.1756L32.9006 21.6956C33.2662 22.4606 32.9737 23.3662 32.2256 23.7656L29.7562 25.0874C29.025 25.4812 28.5187 26.1731 28.3725 26.9887L27.8831 29.7506C27.7312 30.5831 26.9606 31.1399 26.1225 31.0274L23.3437 30.6449C22.5225 30.5268 21.7069 30.7968 21.1106 31.3706L19.0856 33.3112C18.4781 33.8962 17.5219 33.8962 16.9144 33.3112L14.8894 31.3706C14.3831 30.8812 13.7194 30.6168 13.0275 30.6168C12.9037 30.6168 12.78 30.6281 12.6562 30.6449L9.87748 31.0274C9.03936 31.1399 8.26873 30.5831 8.11686 29.7506L7.62748 26.9887C7.48123 26.1731 6.97498 25.4812 6.24373 25.0874L3.77436 23.7656C3.02623 23.3662 2.73373 22.4606 3.09936 21.6956L4.32561 19.1756C4.68561 18.4274 4.68561 17.5724 4.32561 16.8243L3.09936 14.3043C2.73373 13.5393 3.02623 12.6337 3.77436 12.2343L6.24373 10.9124C6.97498 10.5187 7.48123 9.82682 7.62748 9.01119L8.11686 6.24932C8.26873 5.41682 9.03936 4.85994 9.87748 4.97244L12.6562 5.35494C13.4775 5.47307 14.2931 5.20307 14.8894 4.62932L16.9144 2.68869C17.5219 2.10369 18.4781 2.10369 19.0856 2.68869L21.1106 4.62932C21.7069 5.20307 22.5225 5.47307 23.3437 5.35494L26.1225 4.97244C26.955 4.85994 27.7312 5.41682 27.8831 6.24932L28.3725 9.01119C28.5187 9.82682 29.025 10.5187 29.7562 10.9124L32.2256 12.2343C32.9737 12.6337 33.2662 13.5393 32.9006 14.3043L31.6744 16.8243C31.3144 17.5724 31.3144 18.4274 31.6744 19.1756Z" fill="#8B7E68"/>
<path d="M25.4137 13.6744C25.0538 12.5944 24.0525 11.8632 22.9106 11.8632H15.2438C15.2044 11.2725 14.7094 10.8057 14.1075 10.8057H10.71C10.0744 10.8057 9.5625 11.3175 9.5625 11.9475V20.7394C9.5625 21.375 10.0744 21.8869 10.71 21.8869H14.1075C14.7263 21.8869 15.2269 21.3975 15.2494 20.7788C15.4913 20.9025 15.6938 21.0994 15.8175 21.3469L18.18 26.0325C18.5006 26.6625 19.17 27.0732 19.8787 27.0732C20.925 27.0732 21.78 26.2182 21.78 25.1719C21.78 25.1044 21.7744 25.0257 21.7631 24.93L21.4706 22.6238H24.7331C25.5938 22.6238 26.3756 22.2244 26.8762 21.5269C27.3769 20.8294 27.5119 19.9632 27.2362 19.1532L25.4137 13.6744ZM12.9712 19.4682C12.9712 19.7775 12.7181 20.0307 12.4087 20.0307C12.0937 20.0307 11.8462 19.7775 11.8462 19.4682V18.585C11.8462 18.27 12.0937 18.0225 12.4087 18.0225C12.7181 18.0225 12.9712 18.27 12.9712 18.585V19.4682ZM25.965 20.8688C25.6725 21.2738 25.2281 21.4988 24.7331 21.4988H20.8294C20.6719 21.4988 20.5144 21.5719 20.4075 21.69C20.3006 21.8138 20.25 21.9713 20.2725 22.1344L20.6438 25.0538C20.6494 25.0932 20.655 25.1325 20.655 25.1719C20.655 25.5994 20.3062 25.9482 19.8787 25.9482C19.5863 25.9482 19.3163 25.7794 19.1869 25.5263L16.8244 20.8407C16.4981 20.1994 15.9244 19.755 15.2494 19.5919V12.9882H22.9106C23.5631 12.9882 24.1425 13.4044 24.345 14.0288L26.1675 19.5075H26.1731C26.325 19.9744 26.2519 20.4694 25.965 20.8688Z" fill="#8B7E68"/>
</svg>
