<svg width="182" height="189" viewBox="0 0 182 189" fill="none" xmlns="http://www.w3.org/2000/svg">
<path d="M59.6 12L83.6 65" stroke="url(#paint0_linear_74_33646)" stroke-width="0.8" stroke-linecap="round"/>
<path d="M81.6 174L141.6 167" stroke="url(#paint1_linear_74_33646)" stroke-width="0.8" stroke-linecap="round"/>
<path d="M87.6 144L77.6 170" stroke="url(#paint2_linear_74_33646)" stroke-width="0.8" stroke-linecap="round"/>
<path d="M25.6 27L61.6 76" stroke="url(#paint3_linear_74_33646)" stroke-width="0.8" stroke-linecap="round"/>
<path d="M21.6 29L38.6 103" stroke="url(#paint4_linear_74_33646)" stroke-width="0.8" stroke-linecap="round"/>
<path opacity="0.2" d="M28.6 20L113.6 50" stroke="url(#paint5_linear_74_33646)" stroke-width="0.8" stroke-linecap="round"/>
<path opacity="0.4" d="M118.6 57L121.6 84" stroke="url(#paint6_linear_74_33646)" stroke-width="0.8" stroke-linecap="round"/>
<path opacity="0.2" d="M121.6 55L160.6 76" stroke="url(#paint7_linear_74_33646)" stroke-width="0.8" stroke-linecap="round"/>
<path opacity="0.45" d="M145.6 31L164.6 72" stroke="url(#paint8_linear_74_33646)" stroke-width="0.8" stroke-linecap="round"/>
<path d="M50.6 10L27.6 16" stroke="url(#paint9_linear_74_33646)" stroke-width="0.8" stroke-linecap="round"/>
<path d="M61.6 10L113.6 50" stroke="url(#paint10_linear_74_33646)" stroke-width="0.8" stroke-linecap="round"/>
<path d="M125.6 93L160.6 81" stroke="url(#paint11_linear_74_33646)" stroke-width="0.8" stroke-linecap="round"/>
<path d="M152.6 159L166.6 85" stroke="url(#paint12_linear_74_33646)" stroke-width="0.8" stroke-linecap="round"/>
<path d="M143.6 159L117.6 131" stroke="url(#paint13_linear_74_33646)" stroke-width="0.8" stroke-linecap="round"/>
<circle cx="56.1" cy="6.5" r="6" stroke="url(#paint14_linear_74_33646)" stroke-linecap="round"/>
<circle cx="56.1" cy="6.5" r="6" stroke="url(#paint15_linear_74_33646)" stroke-linecap="round"/>
<g filter="url(#filter0_d_74_33646)">
<circle cx="117.1" cy="52.5" r="4.5" fill="#E0C7A0" fill-opacity="0.55" shape-rendering="crispEdges"/>
<circle cx="117.1" cy="52.5" r="4" stroke="url(#paint16_linear_74_33646)" stroke-linecap="round" shape-rendering="crispEdges"/>
</g>
<g filter="url(#filter1_d_74_33646)">
<circle cx="167.1" cy="78.5" r="6.5" fill="#E0C7A0" fill-opacity="0.4" shape-rendering="crispEdges"/>
<circle cx="167.1" cy="78.5" r="6" stroke="url(#paint17_linear_74_33646)" stroke-linecap="round" shape-rendering="crispEdges"/>
</g>
<g filter="url(#filter2_d_74_33646)">
<circle cx="148.1" cy="163.5" r="6.5" fill="#E0C7A0" fill-opacity="0.4" shape-rendering="crispEdges"/>
<circle cx="148.1" cy="163.5" r="6" stroke="url(#paint18_linear_74_33646)" stroke-linecap="round" shape-rendering="crispEdges"/>
</g>
<g filter="url(#filter3_d_74_33646)">
<circle cx="75.1" cy="175.5" r="6.5" fill="#E0C7A0" fill-opacity="0.3" shape-rendering="crispEdges"/>
<circle cx="75.1" cy="175.5" r="6" stroke="url(#paint19_linear_74_33646)" stroke-linecap="round" shape-rendering="crispEdges"/>
</g>
<g filter="url(#filter4_d_74_33646)">
<circle cx="18.1" cy="19.5" r="10.1" stroke="url(#paint20_linear_74_33646)" stroke-width="0.8" stroke-linecap="round"/>
<circle cx="18.1" cy="19.5" r="5.3" stroke="url(#paint21_linear_74_33646)" stroke-width="0.4" stroke-linecap="round"/>
<path d="M18.1 9C23.899 9 28.6 13.701 28.6 19.5C28.6 25.299 23.899 30 18.1 30C12.301 30 7.59998 25.299 7.59998 19.5C7.59998 13.701 12.301 9 18.1 9ZM18.1 14C15.0624 14 12.6 16.4624 12.6 19.5C12.6 22.5376 15.0624 25 18.1 25C21.1375 25 23.6 22.5376 23.6 19.5C23.6 16.4624 21.1375 14 18.1 14Z" fill="#E0C7A0" fill-opacity="0.55"/>
</g>
<g filter="url(#filter5_d_74_33646)">
<circle cx="140.1" cy="22.5" r="10.1" stroke="url(#paint22_linear_74_33646)" stroke-width="0.8" stroke-linecap="round"/>
<circle cx="140.1" cy="22.5" r="5.3" stroke="url(#paint23_linear_74_33646)" stroke-width="0.4" stroke-linecap="round"/>
<path d="M140.1 12C145.899 12 150.6 16.701 150.6 22.5C150.6 28.299 145.899 33 140.1 33C134.301 33 129.6 28.299 129.6 22.5C129.6 16.701 134.301 12 140.1 12ZM140.1 17C137.062 17 134.6 19.4624 134.6 22.5C134.6 25.5376 137.062 28 140.1 28C143.138 28 145.6 25.5376 145.6 22.5C145.6 19.4624 143.138 17 140.1 17Z" fill="#E0C7A0" fill-opacity="0.55"/>
</g>
<mask id="mask0_74_33646" style="mask-type:alpha" maskUnits="userSpaceOnUse" x="27" y="88" width="27" height="41">
<path d="M49.6 108.5C49.6 119.822 62.6 129 38.6 129C32.5248 129 27.6 119.822 27.6 108.5C27.6 97.1782 32.5248 88 38.6 88C44.6751 88 49.6 97.1782 49.6 108.5Z" fill="#D9D9D9"/>
</mask>
<g mask="url(#mask0_74_33646)">
<g filter="url(#filter6_d_74_33646)">
<circle cx="44.1" cy="111.5" r="10.1" stroke="url(#paint24_linear_74_33646)" stroke-width="0.8" stroke-linecap="round"/>
<circle cx="44.1" cy="111.5" r="5.3" stroke="url(#paint25_linear_74_33646)" stroke-width="0.4" stroke-linecap="round"/>
<path d="M44.1 101C49.899 101 54.6 105.701 54.6 111.5C54.6 117.299 49.899 122 44.1 122C38.301 122 33.6 117.299 33.6 111.5C33.6 105.701 38.301 101 44.1 101ZM44.1 106C41.0624 106 38.6 108.462 38.6 111.5C38.6 114.538 41.0624 117 44.1 117C47.1375 117 49.6 114.538 49.6 111.5C49.6 108.462 47.1375 106 44.1 106Z" fill="#E0C7A0" fill-opacity="0.54"/>
</g>
</g>
<circle cx="88.1" cy="104.5" r="38.75" stroke="url(#paint26_linear_74_33646)" stroke-width="1.5" stroke-linecap="round"/>
<path d="M114.361 55.9882C114.523 56.2075 114.703 56.4116 114.901 56.5974L104.915 69.2478C104.778 69.4211 104.526 69.4499 104.353 69.3131C104.179 69.1763 104.149 68.9254 104.285 68.752L114.361 55.9882ZM134.285 30.7516C134.422 30.5782 134.675 30.5484 134.849 30.6853C135.022 30.8221 135.051 31.0741 134.915 31.2474L120.456 49.5611C120.23 49.4121 119.99 49.2833 119.739 49.1766L134.285 30.7516Z" fill="url(#paint27_linear_74_33646)"/>
<foreignObject x="59.35" y="80.65" width="47.5492" height="47.4184"><div xmlns="http://www.w3.org/1999/xhtml" style="backdrop-filter:blur(0.55px);clip-path:url(#bgblur_0_74_33646_clip_path);height:100%;width:100%"></div></foreignObject><g filter="url(#filter7_i_74_33646)" data-figma-bg-blur-radius="1.1">
<path d="M88.6029 82C94.5304 82 99.3353 86.805 99.3353 92.7324C99.3353 96.8875 97.0953 100.947 93.7152 103.006C100.16 104.709 105.549 109.331 105.549 114.048C105.549 119.033 105.541 123.801 105.541 123.801C105.497 123.801 99.3388 123.818 88.5746 123.818C76.9602 123.818 71.6566 123.801 71.6566 123.801C71.6566 123.798 71.6 119.469 71.6 114.048C71.6002 109.256 77.1618 104.559 83.7435 102.925C80.2905 100.841 77.8705 96.8323 77.8705 92.7324C77.8705 86.805 82.6755 82.0001 88.6029 82Z" fill="url(#paint28_linear_74_33646)" fill-opacity="0.5"/>
<path d="M88.6029 82V81.75H88.6029L88.6029 82ZM99.3353 92.7324H99.5853V92.7324L99.3353 92.7324ZM93.7152 103.006L93.5852 102.792L93.0839 103.098L93.6514 103.248L93.7152 103.006ZM105.549 114.048H105.799V114.048L105.549 114.048ZM105.541 123.801L105.542 124.051L105.791 124.05L105.791 123.801L105.541 123.801ZM88.5746 123.818V124.068V124.068V123.818ZM71.6566 123.801L71.4066 123.804L71.4099 124.05L71.6558 124.051L71.6566 123.801ZM71.6 114.048L71.35 114.048V114.048H71.6ZM83.7435 102.925L83.8038 103.167L84.3888 103.022L83.8727 102.711L83.7435 102.925ZM77.8705 92.7324L77.6205 92.7324V92.7324H77.8705ZM88.6029 82V82.25C94.3923 82.25 99.0853 86.9431 99.0853 92.7324L99.3353 92.7324L99.5853 92.7324C99.5853 86.6669 94.6684 81.75 88.6029 81.75V82ZM99.3353 92.7324H99.0853C99.0853 96.8043 96.8874 100.781 93.5852 102.792L93.7152 103.006L93.8453 103.219C97.3032 101.113 99.5853 96.9708 99.5853 92.7324H99.3353ZM93.7152 103.006L93.6514 103.248C96.8391 104.09 99.7607 105.653 101.881 107.582C104.005 109.513 105.299 111.786 105.299 114.048L105.549 114.048L105.799 114.048C105.799 111.593 104.399 109.196 102.217 107.212C100.032 105.224 97.0366 103.625 93.7791 102.764L93.7152 103.006ZM105.549 114.048H105.299C105.299 116.54 105.297 118.979 105.295 120.794C105.294 121.701 105.293 122.453 105.293 122.978C105.292 123.24 105.292 123.446 105.292 123.586C105.292 123.656 105.292 123.709 105.291 123.746C105.291 123.764 105.291 123.777 105.291 123.787C105.291 123.791 105.291 123.795 105.291 123.797C105.291 123.798 105.291 123.799 105.291 123.8C105.291 123.8 105.291 123.8 105.291 123.8C105.291 123.8 105.291 123.8 105.291 123.8C105.291 123.8 105.291 123.8 105.541 123.801C105.791 123.801 105.791 123.801 105.791 123.801C105.791 123.801 105.791 123.801 105.791 123.801C105.791 123.801 105.791 123.801 105.791 123.8C105.791 123.8 105.791 123.799 105.791 123.798C105.791 123.795 105.791 123.792 105.791 123.787C105.791 123.778 105.791 123.764 105.791 123.746C105.792 123.71 105.792 123.657 105.792 123.587C105.792 123.446 105.792 123.241 105.793 122.978C105.793 122.453 105.794 121.702 105.795 120.794C105.797 118.979 105.799 116.541 105.799 114.048H105.549ZM105.541 123.801L105.541 123.551C105.497 123.551 99.3385 123.568 88.5746 123.568V123.818V124.068C99.339 124.068 105.498 124.051 105.542 124.051L105.541 123.801ZM88.5746 123.818V123.568C82.7675 123.568 78.5381 123.564 75.7606 123.56C74.3718 123.557 73.346 123.555 72.6674 123.554C72.3281 123.553 72.0756 123.552 71.9079 123.552C71.8241 123.551 71.7614 123.551 71.7198 123.551C71.699 123.551 71.6834 123.551 71.673 123.551C71.6678 123.551 71.6639 123.551 71.6613 123.551C71.66 123.551 71.6591 123.551 71.6584 123.551C71.6581 123.551 71.6578 123.551 71.6577 123.551C71.6576 123.551 71.6575 123.551 71.6575 123.551C71.6575 123.551 71.6574 123.551 71.6566 123.801C71.6558 124.051 71.6558 124.051 71.6559 124.051C71.6559 124.051 71.656 124.051 71.656 124.051C71.6562 124.051 71.6564 124.051 71.6568 124.051C71.6574 124.051 71.6584 124.051 71.6597 124.051C71.6623 124.051 71.6662 124.051 71.6714 124.051C71.6818 124.051 71.6974 124.051 71.7182 124.051C71.7599 124.051 71.8226 124.051 71.9065 124.052C72.0742 124.052 72.3268 124.053 72.6662 124.054C73.3449 124.055 74.3709 124.057 75.7598 124.06C78.5376 124.064 82.7673 124.068 88.5746 124.068V123.818ZM71.6566 123.801L71.9066 123.797C71.9066 123.797 71.9066 123.797 71.9066 123.797C71.9066 123.796 71.9066 123.795 71.9066 123.794C71.9065 123.792 71.9065 123.789 71.9064 123.785C71.9063 123.776 71.9062 123.764 71.906 123.747C71.9055 123.714 71.9049 123.665 71.9042 123.6C71.9026 123.471 71.9004 123.281 71.8977 123.035C71.8924 122.545 71.8854 121.834 71.8783 120.954C71.8641 119.194 71.85 116.757 71.85 114.048H71.6H71.35C71.35 119.47 71.4066 123.801 71.4066 123.804L71.6566 123.801ZM71.6 114.048L71.85 114.048C71.8501 111.75 73.1864 109.44 75.3703 107.488C77.5504 105.541 80.5487 103.976 83.8038 103.167L83.7435 102.925L83.6833 102.682C80.3566 103.508 77.2833 105.109 75.0371 107.116C72.7947 109.119 71.3501 111.554 71.35 114.048L71.6 114.048ZM83.7435 102.925L83.8727 102.711C80.4898 100.67 78.1205 96.7392 78.1205 92.7324H77.8705H77.6205C77.6205 96.9254 80.0912 101.013 83.6144 103.139L83.7435 102.925ZM77.8705 92.7324L78.1205 92.7324C78.1205 86.9431 82.8136 82.2501 88.6029 82.25L88.6029 82L88.6029 81.75C82.5374 81.7501 77.6206 86.667 77.6205 92.7324L77.8705 92.7324Z" fill="#FFE6BD" fill-opacity="0.55"/>
</g>
<defs>
<filter id="filter0_d_74_33646" x="105" y="39.4" width="24.2" height="24.2" filterUnits="userSpaceOnUse" color-interpolation-filters="sRGB">
<feFlood flood-opacity="0" result="BackgroundImageFix"/>
<feColorMatrix in="SourceAlpha" type="matrix" values="0 0 0 0 0 0 0 0 0 0 0 0 0 0 0 0 0 0 127 0" result="hardAlpha"/>
<feOffset dy="-1"/>
<feGaussianBlur stdDeviation="3.8"/>
<feComposite in2="hardAlpha" operator="out"/>
<feColorMatrix type="matrix" values="0 0 0 0 1 0 0 0 0 0.915687 0 0 0 0 0.718957 0 0 0 0.2 0"/>
<feBlend mode="normal" in2="BackgroundImageFix" result="effect1_dropShadow_74_33646"/>
<feBlend mode="normal" in="SourceGraphic" in2="effect1_dropShadow_74_33646" result="shape"/>
</filter>
<filter id="filter1_d_74_33646" x="153" y="63.4" width="28.2" height="28.2" filterUnits="userSpaceOnUse" color-interpolation-filters="sRGB">
<feFlood flood-opacity="0" result="BackgroundImageFix"/>
<feColorMatrix in="SourceAlpha" type="matrix" values="0 0 0 0 0 0 0 0 0 0 0 0 0 0 0 0 0 0 127 0" result="hardAlpha"/>
<feOffset dy="-1"/>
<feGaussianBlur stdDeviation="3.8"/>
<feComposite in2="hardAlpha" operator="out"/>
<feColorMatrix type="matrix" values="0 0 0 0 1 0 0 0 0 0.915687 0 0 0 0 0.718957 0 0 0 0.2 0"/>
<feBlend mode="normal" in2="BackgroundImageFix" result="effect1_dropShadow_74_33646"/>
<feBlend mode="normal" in="SourceGraphic" in2="effect1_dropShadow_74_33646" result="shape"/>
</filter>
<filter id="filter2_d_74_33646" x="134" y="148.4" width="28.2" height="28.2" filterUnits="userSpaceOnUse" color-interpolation-filters="sRGB">
<feFlood flood-opacity="0" result="BackgroundImageFix"/>
<feColorMatrix in="SourceAlpha" type="matrix" values="0 0 0 0 0 0 0 0 0 0 0 0 0 0 0 0 0 0 127 0" result="hardAlpha"/>
<feOffset dy="-1"/>
<feGaussianBlur stdDeviation="3.8"/>
<feComposite in2="hardAlpha" operator="out"/>
<feColorMatrix type="matrix" values="0 0 0 0 1 0 0 0 0 0.915687 0 0 0 0 0.718957 0 0 0 0.2 0"/>
<feBlend mode="normal" in2="BackgroundImageFix" result="effect1_dropShadow_74_33646"/>
<feBlend mode="normal" in="SourceGraphic" in2="effect1_dropShadow_74_33646" result="shape"/>
</filter>
<filter id="filter3_d_74_33646" x="61" y="160.4" width="28.2" height="28.2" filterUnits="userSpaceOnUse" color-interpolation-filters="sRGB">
<feFlood flood-opacity="0" result="BackgroundImageFix"/>
<feColorMatrix in="SourceAlpha" type="matrix" values="0 0 0 0 0 0 0 0 0 0 0 0 0 0 0 0 0 0 127 0" result="hardAlpha"/>
<feOffset dy="-1"/>
<feGaussianBlur stdDeviation="3.8"/>
<feComposite in2="hardAlpha" operator="out"/>
<feColorMatrix type="matrix" values="0 0 0 0 1 0 0 0 0 0.915687 0 0 0 0 0.718957 0 0 0 0.2 0"/>
<feBlend mode="normal" in2="BackgroundImageFix" result="effect1_dropShadow_74_33646"/>
<feBlend mode="normal" in="SourceGraphic" in2="effect1_dropShadow_74_33646" result="shape"/>
</filter>
<filter id="filter4_d_74_33646" x="-2.43187e-05" y="0.4" width="36.2" height="36.2" filterUnits="userSpaceOnUse" color-interpolation-filters="sRGB">
<feFlood flood-opacity="0" result="BackgroundImageFix"/>
<feColorMatrix in="SourceAlpha" type="matrix" values="0 0 0 0 0 0 0 0 0 0 0 0 0 0 0 0 0 0 127 0" result="hardAlpha"/>
<feOffset dy="-1"/>
<feGaussianBlur stdDeviation="3.8"/>
<feComposite in2="hardAlpha" operator="out"/>
<feColorMatrix type="matrix" values="0 0 0 0 1 0 0 0 0 0.915687 0 0 0 0 0.718957 0 0 0 0.2 0"/>
<feBlend mode="normal" in2="BackgroundImageFix" result="effect1_dropShadow_74_33646"/>
<feBlend mode="normal" in="SourceGraphic" in2="effect1_dropShadow_74_33646" result="shape"/>
</filter>
<filter id="filter5_d_74_33646" x="122" y="3.4" width="36.2" height="36.2" filterUnits="userSpaceOnUse" color-interpolation-filters="sRGB">
<feFlood flood-opacity="0" result="BackgroundImageFix"/>
<feColorMatrix in="SourceAlpha" type="matrix" values="0 0 0 0 0 0 0 0 0 0 0 0 0 0 0 0 0 0 127 0" result="hardAlpha"/>
<feOffset dy="-1"/>
<feGaussianBlur stdDeviation="3.8"/>
<feComposite in2="hardAlpha" operator="out"/>
<feColorMatrix type="matrix" values="0 0 0 0 1 0 0 0 0 0.915687 0 0 0 0 0.718957 0 0 0 0.2 0"/>
<feBlend mode="normal" in2="BackgroundImageFix" result="effect1_dropShadow_74_33646"/>
<feBlend mode="normal" in="SourceGraphic" in2="effect1_dropShadow_74_33646" result="shape"/>
</filter>
<filter id="filter6_d_74_33646" x="26" y="92.4" width="36.2" height="36.2" filterUnits="userSpaceOnUse" color-interpolation-filters="sRGB">
<feFlood flood-opacity="0" result="BackgroundImageFix"/>
<feColorMatrix in="SourceAlpha" type="matrix" values="0 0 0 0 0 0 0 0 0 0 0 0 0 0 0 0 0 0 127 0" result="hardAlpha"/>
<feOffset dy="-1"/>
<feGaussianBlur stdDeviation="3.8"/>
<feComposite in2="hardAlpha" operator="out"/>
<feColorMatrix type="matrix" values="0 0 0 0 1 0 0 0 0 0.915687 0 0 0 0 0.718957 0 0 0 0.2 0"/>
<feBlend mode="normal" in2="BackgroundImageFix" result="effect1_dropShadow_74_33646"/>
<feBlend mode="normal" in="SourceGraphic" in2="effect1_dropShadow_74_33646" result="shape"/>
</filter>
<filter id="filter7_i_74_33646" x="59.35" y="80.65" width="47.5492" height="47.4184" filterUnits="userSpaceOnUse" color-interpolation-filters="sRGB">
<feFlood flood-opacity="0" result="BackgroundImageFix"/>
<feBlend mode="normal" in="SourceGraphic" in2="BackgroundImageFix" result="shape"/>
<feColorMatrix in="SourceAlpha" type="matrix" values="0 0 0 0 0 0 0 0 0 0 0 0 0 0 0 0 0 0 127 0" result="hardAlpha"/>
<feOffset dx="-12" dy="4"/>
<feGaussianBlur stdDeviation="11.5"/>
<feComposite in2="hardAlpha" operator="arithmetic" k2="-1" k3="1"/>
<feColorMatrix type="matrix" values="0 0 0 0 1 0 0 0 0 0.859615 0 0 0 0 0.655142 0 0 0 0.2 0"/>
<feBlend mode="normal" in2="shape" result="effect1_innerShadow_74_33646"/>
</filter>
<clipPath id="bgblur_0_74_33646_clip_path" transform="translate(-59.35 -80.65)"><path d="M88.6029 82C94.5304 82 99.3353 86.805 99.3353 92.7324C99.3353 96.8875 97.0953 100.947 93.7152 103.006C100.16 104.709 105.549 109.331 105.549 114.048C105.549 119.033 105.541 123.801 105.541 123.801C105.497 123.801 99.3388 123.818 88.5746 123.818C76.9602 123.818 71.6566 123.801 71.6566 123.801C71.6566 123.798 71.6 119.469 71.6 114.048C71.6002 109.256 77.1618 104.559 83.7435 102.925C80.2905 100.841 77.8705 96.8323 77.8705 92.7324C77.8705 86.805 82.6755 82.0001 88.6029 82Z"/>
</clipPath><linearGradient id="paint0_linear_74_33646" x1="58.9168" y1="12.3094" x2="82.9168" y2="65.3094" gradientUnits="userSpaceOnUse">
<stop stop-color="#C5A674"/>
<stop offset="1" stop-color="#BD9C6C"/>
</linearGradient>
<linearGradient id="paint1_linear_74_33646" x1="81.6869" y1="174.745" x2="141.687" y2="167.745" gradientUnits="userSpaceOnUse">
<stop stop-color="#C5A674"/>
<stop offset="1" stop-color="#BD9C6C"/>
</linearGradient>
<linearGradient id="paint2_linear_74_33646" x1="86.9" y1="143.731" x2="76.9" y2="169.731" gradientUnits="userSpaceOnUse">
<stop stop-color="#C5A674"/>
<stop offset="1" stop-color="#BD9C6C"/>
</linearGradient>
<linearGradient id="paint3_linear_74_33646" x1="24.9956" y1="27.4441" x2="60.9956" y2="76.4441" gradientUnits="userSpaceOnUse">
<stop stop-color="#F1D8AF"/>
<stop offset="1" stop-color="#BD9C6C"/>
</linearGradient>
<linearGradient id="paint4_linear_74_33646" x1="20.869" y1="29.1679" x2="37.869" y2="103.168" gradientUnits="userSpaceOnUse">
<stop stop-color="#F1D8AF"/>
<stop offset="1" stop-color="#BD9C6C"/>
</linearGradient>
<linearGradient id="paint5_linear_74_33646" x1="28.3504" y1="20.7072" x2="113.35" y2="50.7072" gradientUnits="userSpaceOnUse">
<stop stop-color="#C5A674"/>
<stop offset="1" stop-color="#BD9C6C"/>
</linearGradient>
<linearGradient id="paint6_linear_74_33646" x1="117.855" y1="57.0828" x2="120.855" y2="84.0828" gradientUnits="userSpaceOnUse">
<stop stop-color="#C5A674"/>
<stop offset="1" stop-color="#BD9C6C"/>
</linearGradient>
<linearGradient id="paint7_linear_74_33646" x1="121.244" y1="55.6604" x2="160.244" y2="76.6604" gradientUnits="userSpaceOnUse">
<stop stop-color="#C5A674"/>
<stop offset="1" stop-color="#BD9C6C"/>
</linearGradient>
<linearGradient id="paint8_linear_74_33646" x1="144.919" y1="31.3153" x2="163.919" y2="72.3153" gradientUnits="userSpaceOnUse">
<stop stop-color="#C5A674"/>
<stop offset="1" stop-color="#BD9C6C"/>
</linearGradient>
<linearGradient id="paint9_linear_74_33646" x1="50.4107" y1="9.27429" x2="27.4107" y2="15.2743" gradientUnits="userSpaceOnUse">
<stop stop-color="#C5A674"/>
<stop offset="1" stop-color="#BD9C6C"/>
</linearGradient>
<linearGradient id="paint10_linear_74_33646" x1="61.1427" y1="10.5945" x2="113.143" y2="50.5945" gradientUnits="userSpaceOnUse">
<stop stop-color="#C5A674"/>
<stop offset="1" stop-color="#BD9C6C"/>
</linearGradient>
<linearGradient id="paint11_linear_74_33646" x1="125.843" y1="93.7095" x2="160.843" y2="81.7095" gradientUnits="userSpaceOnUse">
<stop stop-color="#C5A674"/>
<stop offset="1" stop-color="#BD9C6C"/>
</linearGradient>
<linearGradient id="paint12_linear_74_33646" x1="153.337" y1="159.139" x2="167.337" y2="85.1394" gradientUnits="userSpaceOnUse">
<stop stop-color="#C5A674"/>
<stop offset="1" stop-color="#BD9C6C"/>
</linearGradient>
<linearGradient id="paint13_linear_74_33646" x1="144.15" y1="158.49" x2="118.15" y2="130.49" gradientUnits="userSpaceOnUse">
<stop stop-color="#C5A674"/>
<stop offset="1" stop-color="#BD9C6C"/>
</linearGradient>
<linearGradient id="paint14_linear_74_33646" x1="53.1" y1="2.5" x2="58.6" y2="11" gradientUnits="userSpaceOnUse">
<stop stop-color="#FFF7E9"/>
<stop offset="1" stop-color="#A8824A"/>
</linearGradient>
<linearGradient id="paint15_linear_74_33646" x1="53.1" y1="2.5" x2="58.6" y2="11" gradientUnits="userSpaceOnUse">
<stop stop-color="#FFF7E9"/>
<stop offset="1" stop-color="#A8824A"/>
</linearGradient>
<linearGradient id="paint16_linear_74_33646" x1="115.023" y1="49.7308" x2="118.831" y2="55.6154" gradientUnits="userSpaceOnUse">
<stop stop-color="#FFF7E9"/>
<stop offset="1" stop-color="#A8824A"/>
</linearGradient>
<linearGradient id="paint17_linear_74_33646" x1="164.1" y1="74.5" x2="169.6" y2="83" gradientUnits="userSpaceOnUse">
<stop stop-color="#FFF7E9"/>
<stop offset="1" stop-color="#A8824A"/>
</linearGradient>
<linearGradient id="paint18_linear_74_33646" x1="145.1" y1="159.5" x2="150.6" y2="168" gradientUnits="userSpaceOnUse">
<stop stop-color="#FFF7E9"/>
<stop offset="1" stop-color="#A8824A"/>
</linearGradient>
<linearGradient id="paint19_linear_74_33646" x1="72.1" y1="171.5" x2="77.6" y2="180" gradientUnits="userSpaceOnUse">
<stop stop-color="#FFF7E9"/>
<stop offset="1" stop-color="#A8824A"/>
</linearGradient>
<linearGradient id="paint20_linear_74_33646" x1="18.1" y1="9" x2="18.1" y2="30" gradientUnits="userSpaceOnUse">
<stop stop-color="#FFFBF3"/>
<stop offset="1" stop-color="#A8824A"/>
</linearGradient>
<linearGradient id="paint21_linear_74_33646" x1="18.1" y1="14" x2="18.1" y2="25" gradientUnits="userSpaceOnUse">
<stop stop-color="#F5E2C5"/>
<stop offset="1" stop-color="#A8824A"/>
</linearGradient>
<linearGradient id="paint22_linear_74_33646" x1="140.1" y1="12" x2="140.1" y2="33" gradientUnits="userSpaceOnUse">
<stop stop-color="#FFFBF3"/>
<stop offset="1" stop-color="#A8824A"/>
</linearGradient>
<linearGradient id="paint23_linear_74_33646" x1="140.1" y1="17" x2="140.1" y2="28" gradientUnits="userSpaceOnUse">
<stop stop-color="#F5E2C5"/>
<stop offset="1" stop-color="#A8824A"/>
</linearGradient>
<linearGradient id="paint24_linear_74_33646" x1="44.1" y1="101" x2="44.1" y2="122" gradientUnits="userSpaceOnUse">
<stop stop-color="#FFFBF3"/>
<stop offset="1" stop-color="#A8824A"/>
</linearGradient>
<linearGradient id="paint25_linear_74_33646" x1="44.1" y1="106" x2="44.1" y2="117" gradientUnits="userSpaceOnUse">
<stop stop-color="#FFFBF3"/>
<stop offset="1" stop-color="#A8824A"/>
</linearGradient>
<linearGradient id="paint26_linear_74_33646" x1="69.8692" y1="80.1923" x2="103.292" y2="131.846" gradientUnits="userSpaceOnUse">
<stop stop-color="#FFDEA9"/>
<stop offset="1" stop-color="#A8824A"/>
</linearGradient>
<linearGradient id="paint27_linear_74_33646" x1="102.29" y1="56.6916" x2="156.94" y2="52.6324" gradientUnits="userSpaceOnUse">
<stop stop-color="#F1D8AF"/>
<stop offset="1" stop-color="#BD9C6C"/>
</linearGradient>
<linearGradient id="paint28_linear_74_33646" x1="71.6" y1="102.909" x2="105.549" y2="102.909" gradientUnits="userSpaceOnUse">
<stop stop-color="#FFDAAB" stop-opacity="0.1"/>
<stop offset="1" stop-color="#FFCB86"/>
</linearGradient>
</defs>
</svg>
