<svg width="182" height="192" viewBox="0 0 182 192" fill="none" xmlns="http://www.w3.org/2000/svg">
<g opacity="0.5">
<path d="M91 5L91 187" stroke="url(#paint0_linear_74_33752)" stroke-width="0.5" stroke-linecap="round"/>
<path d="M169 143L13 51" stroke="url(#paint1_linear_74_33752)" stroke-width="0.5" stroke-linecap="round"/>
<path d="M169 51L13 143" stroke="url(#paint2_linear_74_33752)" stroke-width="0.5" stroke-linecap="round"/>
</g>
<g opacity="0.65">
<circle cx="91" cy="96" r="90.75" stroke="#EBC389" stroke-width="0.5"/>
<circle opacity="0.9" cx="91" cy="96" r="70.8" stroke="#D0A25F" stroke-width="0.4"/>
<path opacity="0.7" d="M91 70.2998C105.751 70.2998 117.7 82.0354 117.7 96.5C117.7 110.965 105.751 122.7 91 122.7C76.2487 122.7 64.2998 110.965 64.2998 96.5C64.2998 82.0354 76.2487 70.2998 91 70.2998Z" stroke="#FFD597" stroke-width="0.6"/>
<path opacity="0.48" d="M91 84.2998C98.0252 84.2998 103.7 89.7731 103.7 96.5C103.7 103.227 98.0252 108.7 91 108.7C83.9748 108.7 78.2998 103.227 78.2998 96.5C78.2998 89.7731 83.9748 84.2998 91 84.2998Z" stroke="#FFE3BA" stroke-width="0.6"/>
<circle opacity="0.5" cx="91" cy="96" r="48.7" stroke="#D0A25F" stroke-width="0.6"/>
</g>
<circle cx="138" cy="70" r="1.75" fill="#E6B670" stroke="#D9AB6D" stroke-width="0.5"/>
<foreignObject x="29.1299" y="39.0298" width="110.264" height="119.899"><div xmlns="http://www.w3.org/1999/xhtml" style="backdrop-filter:blur(0.55px);clip-path:url(#bgblur_0_74_33752_clip_path);height:100%;width:100%"></div></foreignObject><g filter="url(#filter0_i_74_33752)" data-figma-bg-blur-radius="1.1">
<path d="M90.5 40.5C90.5 40.5 73 61 41.5 68C51.5 87.5 51 116.5 48.5 123C57 125 80 139 91 154.5C103 138 124.333 126.833 133.5 122.5C131.5 97 136.5 76.5 138 69C113.5 64 90.5 40.5 90.5 40.5Z" fill="url(#paint3_linear_74_33752)" fill-opacity="0.5"/>
<path d="M90.5 40.5C90.5 40.5 73 61 41.5 68C51.5 87.5 51 116.5 48.5 123C57 125 80 139 91 154.5C103 138 124.333 126.833 133.5 122.5C131.5 97 136.5 76.5 138 69C113.5 64 90.5 40.5 90.5 40.5Z" stroke="#CAA567" stroke-width="0.5"/>
</g>
<g filter="url(#filter1_d_74_33752)">
<circle cx="29" cy="60" r="3" fill="#FFD7A4"/>
<circle cx="29" cy="60" r="2.75" stroke="#DCAF62" stroke-width="0.5"/>
</g>
<g filter="url(#filter2_d_74_33752)">
<circle cx="42" cy="68" r="2" fill="#FFD7A4"/>
<circle cx="42" cy="68" r="1.75" stroke="#DCAF62" stroke-width="0.5"/>
</g>
<g filter="url(#filter3_d_74_33752)">
<circle cx="91" cy="40" r="3" fill="#FFD7A4"/>
<circle cx="91" cy="40" r="2.75" stroke="#DCAF62" stroke-width="0.5"/>
</g>
<g filter="url(#filter4_d_74_33752)">
<circle cx="30" cy="133" r="3" fill="#FFD7A4"/>
<circle cx="30" cy="133" r="2.75" stroke="#DCAF62" stroke-width="0.5"/>
</g>
<circle cx="49" cy="122" r="1.75" fill="#FFD7A4" stroke="#D29E5D" stroke-width="0.5"/>
<circle cx="91" cy="154" r="1.75" fill="#FFD7A4" stroke="#D9AB6D" stroke-width="0.5"/>
<circle cx="134" cy="122" r="1.75" fill="#FFD7A4" stroke="#D9AB6D" stroke-width="0.5"/>
<circle cx="91" cy="167" r="1.75" fill="#FFD7A4" stroke="#D9AB6D" stroke-width="0.5"/>
<g filter="url(#filter5_d_74_33752)">
<circle cx="137.5" cy="69.5" r="2.5" fill="#FFD7A4"/>
<circle cx="137.5" cy="69.5" r="2.25" stroke="#DCAF62" stroke-width="0.5"/>
</g>
<g filter="url(#filter6_d_74_33752)">
<circle cx="152.5" cy="60.5" r="2.5" fill="#FFD7A4"/>
<circle cx="152.5" cy="60.5" r="2.25" stroke="#DCAF62" stroke-width="0.5"/>
</g>
<g filter="url(#filter7_d_74_33752)">
<circle cx="151.5" cy="132.5" r="2.5" fill="#FFD7A4"/>
<circle cx="151.5" cy="132.5" r="2.25" stroke="#DCAF62" stroke-width="0.5"/>
</g>
<path d="M94.0918 5.0498H87.9082L91 0.363281L94.0918 5.0498Z" fill="#DBBB71" stroke="#DBBB71" stroke-width="0.4"/>
<path d="M87.9082 186.95L94.0918 186.95L91 191.637L87.9082 186.95Z" fill="#DBBB71" stroke="#DBBB71" stroke-width="0.4"/>
<defs>
<filter id="filter0_i_74_33752" x="29.1299" y="39.0298" width="110.264" height="119.899" filterUnits="userSpaceOnUse" color-interpolation-filters="sRGB">
<feFlood flood-opacity="0" result="BackgroundImageFix"/>
<feBlend mode="normal" in="SourceGraphic" in2="BackgroundImageFix" result="shape"/>
<feColorMatrix in="SourceAlpha" type="matrix" values="0 0 0 0 0 0 0 0 0 0 0 0 0 0 0 0 0 0 127 0" result="hardAlpha"/>
<feOffset dx="-12" dy="4"/>
<feGaussianBlur stdDeviation="11.5"/>
<feComposite in2="hardAlpha" operator="arithmetic" k2="-1" k3="1"/>
<feColorMatrix type="matrix" values="0 0 0 0 1 0 0 0 0 0.859615 0 0 0 0 0.655142 0 0 0 0.2 0"/>
<feBlend mode="normal" in2="shape" result="effect1_innerShadow_74_33752"/>
</filter>
<clipPath id="bgblur_0_74_33752_clip_path" transform="translate(-29.1299 -39.0298)"><path d="M90.5 40.5C90.5 40.5 73 61 41.5 68C51.5 87.5 51 116.5 48.5 123C57 125 80 139 91 154.5C103 138 124.333 126.833 133.5 122.5C131.5 97 136.5 76.5 138 69C113.5 64 90.5 40.5 90.5 40.5Z"/>
</clipPath><filter id="filter1_d_74_33752" x="23" y="55" width="12" height="12" filterUnits="userSpaceOnUse" color-interpolation-filters="sRGB">
<feFlood flood-opacity="0" result="BackgroundImageFix"/>
<feColorMatrix in="SourceAlpha" type="matrix" values="0 0 0 0 0 0 0 0 0 0 0 0 0 0 0 0 0 0 127 0" result="hardAlpha"/>
<feOffset dy="1"/>
<feGaussianBlur stdDeviation="1.5"/>
<feComposite in2="hardAlpha" operator="out"/>
<feColorMatrix type="matrix" values="0 0 0 0 0.858824 0 0 0 0 0.733333 0 0 0 0 0.443137 0 0 0 1 0"/>
<feBlend mode="normal" in2="BackgroundImageFix" result="effect1_dropShadow_74_33752"/>
<feBlend mode="normal" in="SourceGraphic" in2="effect1_dropShadow_74_33752" result="shape"/>
</filter>
<filter id="filter2_d_74_33752" x="37" y="64" width="10" height="10" filterUnits="userSpaceOnUse" color-interpolation-filters="sRGB">
<feFlood flood-opacity="0" result="BackgroundImageFix"/>
<feColorMatrix in="SourceAlpha" type="matrix" values="0 0 0 0 0 0 0 0 0 0 0 0 0 0 0 0 0 0 127 0" result="hardAlpha"/>
<feOffset dy="1"/>
<feGaussianBlur stdDeviation="1.5"/>
<feComposite in2="hardAlpha" operator="out"/>
<feColorMatrix type="matrix" values="0 0 0 0 0.858824 0 0 0 0 0.733333 0 0 0 0 0.443137 0 0 0 1 0"/>
<feBlend mode="normal" in2="BackgroundImageFix" result="effect1_dropShadow_74_33752"/>
<feBlend mode="normal" in="SourceGraphic" in2="effect1_dropShadow_74_33752" result="shape"/>
</filter>
<filter id="filter3_d_74_33752" x="85" y="35" width="12" height="12" filterUnits="userSpaceOnUse" color-interpolation-filters="sRGB">
<feFlood flood-opacity="0" result="BackgroundImageFix"/>
<feColorMatrix in="SourceAlpha" type="matrix" values="0 0 0 0 0 0 0 0 0 0 0 0 0 0 0 0 0 0 127 0" result="hardAlpha"/>
<feOffset dy="1"/>
<feGaussianBlur stdDeviation="1.5"/>
<feComposite in2="hardAlpha" operator="out"/>
<feColorMatrix type="matrix" values="0 0 0 0 0.858824 0 0 0 0 0.733333 0 0 0 0 0.443137 0 0 0 1 0"/>
<feBlend mode="normal" in2="BackgroundImageFix" result="effect1_dropShadow_74_33752"/>
<feBlend mode="normal" in="SourceGraphic" in2="effect1_dropShadow_74_33752" result="shape"/>
</filter>
<filter id="filter4_d_74_33752" x="24" y="128" width="12" height="12" filterUnits="userSpaceOnUse" color-interpolation-filters="sRGB">
<feFlood flood-opacity="0" result="BackgroundImageFix"/>
<feColorMatrix in="SourceAlpha" type="matrix" values="0 0 0 0 0 0 0 0 0 0 0 0 0 0 0 0 0 0 127 0" result="hardAlpha"/>
<feOffset dy="1"/>
<feGaussianBlur stdDeviation="1.5"/>
<feComposite in2="hardAlpha" operator="out"/>
<feColorMatrix type="matrix" values="0 0 0 0 0.858824 0 0 0 0 0.733333 0 0 0 0 0.443137 0 0 0 1 0"/>
<feBlend mode="normal" in2="BackgroundImageFix" result="effect1_dropShadow_74_33752"/>
<feBlend mode="normal" in="SourceGraphic" in2="effect1_dropShadow_74_33752" result="shape"/>
</filter>
<filter id="filter5_d_74_33752" x="132" y="65" width="11" height="11" filterUnits="userSpaceOnUse" color-interpolation-filters="sRGB">
<feFlood flood-opacity="0" result="BackgroundImageFix"/>
<feColorMatrix in="SourceAlpha" type="matrix" values="0 0 0 0 0 0 0 0 0 0 0 0 0 0 0 0 0 0 127 0" result="hardAlpha"/>
<feOffset dy="1"/>
<feGaussianBlur stdDeviation="1.5"/>
<feComposite in2="hardAlpha" operator="out"/>
<feColorMatrix type="matrix" values="0 0 0 0 0.858824 0 0 0 0 0.733333 0 0 0 0 0.443137 0 0 0 1 0"/>
<feBlend mode="normal" in2="BackgroundImageFix" result="effect1_dropShadow_74_33752"/>
<feBlend mode="normal" in="SourceGraphic" in2="effect1_dropShadow_74_33752" result="shape"/>
</filter>
<filter id="filter6_d_74_33752" x="147" y="56" width="11" height="11" filterUnits="userSpaceOnUse" color-interpolation-filters="sRGB">
<feFlood flood-opacity="0" result="BackgroundImageFix"/>
<feColorMatrix in="SourceAlpha" type="matrix" values="0 0 0 0 0 0 0 0 0 0 0 0 0 0 0 0 0 0 127 0" result="hardAlpha"/>
<feOffset dy="1"/>
<feGaussianBlur stdDeviation="1.5"/>
<feComposite in2="hardAlpha" operator="out"/>
<feColorMatrix type="matrix" values="0 0 0 0 0.858824 0 0 0 0 0.733333 0 0 0 0 0.443137 0 0 0 1 0"/>
<feBlend mode="normal" in2="BackgroundImageFix" result="effect1_dropShadow_74_33752"/>
<feBlend mode="normal" in="SourceGraphic" in2="effect1_dropShadow_74_33752" result="shape"/>
</filter>
<filter id="filter7_d_74_33752" x="146" y="128" width="11" height="11" filterUnits="userSpaceOnUse" color-interpolation-filters="sRGB">
<feFlood flood-opacity="0" result="BackgroundImageFix"/>
<feColorMatrix in="SourceAlpha" type="matrix" values="0 0 0 0 0 0 0 0 0 0 0 0 0 0 0 0 0 0 127 0" result="hardAlpha"/>
<feOffset dy="1"/>
<feGaussianBlur stdDeviation="1.5"/>
<feComposite in2="hardAlpha" operator="out"/>
<feColorMatrix type="matrix" values="0 0 0 0 0.858824 0 0 0 0 0.733333 0 0 0 0 0.443137 0 0 0 1 0"/>
<feBlend mode="normal" in2="BackgroundImageFix" result="effect1_dropShadow_74_33752"/>
<feBlend mode="normal" in="SourceGraphic" in2="effect1_dropShadow_74_33752" result="shape"/>
</filter>
<linearGradient id="paint0_linear_74_33752" x1="90.25" y1="5" x2="90.25" y2="187" gradientUnits="userSpaceOnUse">
<stop stop-color="#B89057" stop-opacity="0.65"/>
<stop offset="0.5" stop-color="#B89057"/>
<stop offset="1" stop-color="#B89057" stop-opacity="0.65"/>
</linearGradient>
<linearGradient id="paint1_linear_74_33752" x1="169.381" y1="142.354" x2="13.381" y2="50.354" gradientUnits="userSpaceOnUse">
<stop stop-color="#B89057" stop-opacity="0.65"/>
<stop offset="0.5" stop-color="#B89057"/>
<stop offset="1" stop-color="#B89057" stop-opacity="0.65"/>
</linearGradient>
<linearGradient id="paint2_linear_74_33752" x1="168.619" y1="50.354" x2="12.619" y2="142.354" gradientUnits="userSpaceOnUse">
<stop stop-color="#B89057" stop-opacity="0.65"/>
<stop offset="0.5" stop-color="#B89057"/>
<stop offset="1" stop-color="#B89057" stop-opacity="0.65"/>
</linearGradient>
<linearGradient id="paint3_linear_74_33752" x1="41.5" y1="97.5" x2="138" y2="97.5" gradientUnits="userSpaceOnUse">
<stop stop-color="#FFDAAB" stop-opacity="0.1"/>
<stop offset="1" stop-color="#FFDD86"/>
</linearGradient>
</defs>
</svg>
