<svg width="160" height="132" viewBox="0 0 160 132" fill="none" xmlns="http://www.w3.org/2000/svg">
<rect x="0.400024" y="0.399902" width="159" height="131" rx="15" fill="url(#paint0_radial_299_2429)" stroke="url(#paint1_linear_299_2429)" stroke-width="0.8"/>
<path fill-rule="evenodd" clip-rule="evenodd" d="M88.5463 75.1966C87.6771 74.3588 86.5407 73.8534 85.3364 73.7691C84.132 73.6848 82.9364 74.0268 81.9588 74.7352C78.293 77.3417 75.7877 79.1404 74.497 80.0891C73.2113 80.3413 71.3703 80.2446 69.2571 77.7296C70.9547 76.0008 74.8926 71.9913 79.3835 67.4107C79.6742 67.1016 80.0482 66.8834 80.4603 66.7824C80.8724 66.6813 81.305 66.7019 81.7057 66.8414L94.0462 70.8578C94.2895 70.9369 94.5493 70.9509 94.7997 70.8984L101.827 69.4272L109.922 88.0684L104.123 90.6128C103.788 89.7063 103.199 88.9158 102.426 88.3362L88.5463 75.1966ZM101.112 93.6496C101.442 93.1864 101.576 92.6118 101.486 92.0504C101.395 91.489 101.086 90.9861 100.627 90.6507C100.574 90.6124 100.524 90.5709 100.477 90.5263L86.5317 77.3228C86.1519 76.9576 85.6557 76.7375 85.13 76.7012C84.6044 76.6649 84.0827 76.8146 83.6562 77.1241C79.7529 79.8999 77.1727 81.7539 75.9897 82.6307C75.8318 82.7467 75.6523 82.8301 75.4619 82.8761C73.193 83.4274 69.8228 83.2312 66.654 79.1706C66.2972 78.7116 66.1188 78.1389 66.1519 77.5585C66.1849 76.9781 66.4271 76.4294 66.8336 76.0138C68.0151 74.8103 70.9639 71.8107 74.5868 68.1165C72.7147 67.8022 70.7923 68.0113 69.0316 68.7209L64.5184 71.7041C63.6804 72.2725 62.6922 72.5785 61.6796 72.5832C61.007 72.5805 60.3412 72.4494 59.7177 72.1971L57.8646 71.455L50.5354 88.3362C51.6673 88.9902 52.8517 89.6433 54.0794 90.2939L55.4876 88.8856C55.9902 88.3801 56.6139 88.0116 57.2992 87.8153C57.9846 87.6191 58.7087 87.6015 59.4028 87.7643C60.0968 87.9271 60.7376 88.2649 61.2641 88.7455C61.7907 89.2261 62.1854 89.8335 62.4107 90.5098C62.9955 90.3486 63.6066 90.3056 64.2082 90.3835C64.8097 90.4613 65.3897 90.6584 65.9142 90.9631C66.4387 91.2679 66.8971 91.6742 67.2626 92.1584C67.6281 92.6425 67.8933 93.1947 68.0428 93.7825C68.8172 93.6011 69.6256 93.6252 70.3878 93.8524C71.1501 94.0796 71.8397 94.502 72.3884 95.0778C72.9371 95.6536 73.3259 96.3628 73.5161 97.1351C73.7064 97.9074 73.6915 98.716 73.473 99.4807C74.0866 99.6548 74.6568 99.9556 75.1469 100.364C75.6369 100.772 76.0358 101.278 76.3179 101.85C76.5999 102.422 76.7588 103.047 76.7843 103.685C76.8098 104.322 76.7012 104.957 76.4657 105.55L80.0079 108.105C80.4701 108.435 81.0442 108.568 81.6046 108.476C82.1651 108.384 82.6662 108.073 82.9983 107.613C83.3305 107.152 83.4668 106.578 83.3772 106.018C83.2877 105.457 82.9798 104.954 82.5207 104.62H82.519L78.4568 101.689C78.1438 101.461 77.9339 101.118 77.8729 100.736C77.8119 100.353 77.9049 99.9624 78.1314 99.6483C78.358 99.3341 78.6997 99.1225 79.0819 99.0596C79.4641 98.9967 79.8556 99.0876 80.1709 99.3126L86.0317 103.539C86.4938 103.872 87.0695 104.008 87.6319 103.917C88.1944 103.826 88.6976 103.515 89.0309 103.053C89.3641 102.591 89.5002 102.015 89.409 101.453C89.3179 100.89 89.007 100.387 88.5449 100.054L82.6819 95.8283C82.5247 95.7162 82.3913 95.5741 82.2892 95.4103C82.1871 95.2464 82.1185 95.064 82.0871 94.8736C82.0558 94.6831 82.0624 94.4883 82.1065 94.3004C82.1507 94.1125 82.2316 93.9351 82.3445 93.7785C82.4574 93.622 82.6002 93.4893 82.7645 93.388C82.9289 93.2868 83.1116 93.2191 83.3023 93.1887C83.4929 93.1583 83.6877 93.1659 83.8754 93.211C84.063 93.2561 84.24 93.3379 84.396 93.4516L86.3667 94.8728L92.2293 99.1001C92.6916 99.4334 93.2673 99.5694 93.8299 99.4782C94.3924 99.3869 94.8957 99.076 95.229 98.6137C95.5622 98.1514 95.6982 97.5757 95.607 97.0131C95.5158 96.4506 95.2048 95.9473 94.7425 95.6141L88.8799 91.3893C88.5646 91.162 88.3525 90.8188 88.2903 90.4351C88.2281 90.0514 88.3209 89.6588 88.5482 89.3435C88.7755 89.0282 89.1187 88.8162 89.5024 88.754C89.886 88.6918 90.2787 88.7845 90.594 89.0118L93.5504 91.1441L98.061 94.0979C99.0995 94.7794 100.44 94.5816 101.112 93.6496ZM70.2386 108.167C69.9314 108.474 69.5148 108.647 69.0803 108.647C68.6459 108.647 68.2292 108.475 67.9219 108.168C67.6147 107.86 67.442 107.444 67.4419 107.009C67.4419 106.575 67.6144 106.158 67.9216 105.851L71.0593 102.713C71.3681 102.408 71.7847 102.237 72.2187 102.237C72.6528 102.237 73.0694 102.408 73.3782 102.713C73.684 103.021 73.8557 103.438 73.8557 103.872C73.8557 104.306 73.684 104.722 73.3782 105.03L70.2386 108.167ZM63.0558 102.62C63.055 102.405 63.0966 102.192 63.1783 101.993C63.26 101.794 63.3802 101.613 63.532 101.46L67.9217 97.0725C68.2308 96.7743 68.6446 96.6094 69.074 96.6133C69.5034 96.6171 69.9141 96.7894 70.2178 97.0931C70.5215 97.3967 70.6938 97.8074 70.6977 98.2369C70.7016 98.6663 70.5367 99.0801 70.2386 99.3892L68.9877 100.639L65.8507 103.779C65.6219 104.009 65.33 104.165 65.012 104.229C64.694 104.292 64.3642 104.26 64.0647 104.136C63.7651 104.012 63.5092 103.801 63.3296 103.531C63.15 103.261 63.0547 102.944 63.0558 102.619V102.62ZM59.143 97.0725L62.4596 93.7558C62.6116 93.6036 62.7921 93.4828 62.9907 93.4004C63.1894 93.3179 63.4023 93.2754 63.6174 93.2752C63.8325 93.2751 64.0455 93.3173 64.2442 93.3994C64.443 93.4816 64.6237 93.6021 64.7759 93.7541C64.9281 93.906 65.0488 94.0865 65.1313 94.2851C65.2137 94.4838 65.2563 94.6967 65.2564 94.9118C65.2566 95.1269 65.2144 95.3399 65.1322 95.5387C65.0501 95.7374 64.9296 95.9181 64.7776 96.0703L61.46 99.3892C61.1518 99.6917 60.7365 99.8603 60.3047 99.8582C59.8728 99.8562 59.4592 99.6838 59.1538 99.3784C58.8484 99.073 58.6759 98.6593 58.6739 98.2275C58.6719 97.7956 58.8404 97.3804 59.143 97.0721V97.0725ZM55.0245 93.4957L57.5611 90.9574C57.7967 90.7219 58.1162 90.5895 58.4494 90.5895C58.7825 90.5895 59.1021 90.7219 59.3377 90.9574C59.5732 91.193 59.7056 91.5126 59.7056 91.8457C59.7056 92.1789 59.5732 92.4984 59.3377 92.734L57.0704 94.999C56.9789 95.0906 56.8941 95.1864 56.812 95.2833L56.7992 95.2703C56.5629 95.5038 56.244 95.6347 55.9118 95.6347C55.5796 95.6347 55.2608 95.5038 55.0245 95.2703C54.9076 95.1539 54.815 95.0156 54.7517 94.8634C54.6885 94.7111 54.6559 94.5479 54.6559 94.383C54.6559 94.2181 54.6885 94.0549 54.7517 93.9026C54.815 93.7504 54.9076 93.6121 55.0245 93.4957ZM117.863 62.2244C117.412 61.1871 116.568 60.3714 115.515 59.9566C114.463 59.5417 113.289 59.5616 112.251 60.0119L103.953 63.6145C103.352 63.8753 102.82 64.2713 102.397 64.7716C101.974 65.272 101.672 65.8631 101.515 66.4991L94.5812 67.9515L82.6123 64.0543C81.6929 63.743 80.7038 63.7005 79.7612 63.9317C78.8185 64.163 77.9614 64.6584 77.2905 65.3597C77.1824 65.4696 77.0744 65.5795 76.9665 65.6894C73.9589 64.712 70.7006 64.845 67.7827 66.0643C67.6961 66.0999 67.6133 66.1442 67.5357 66.1966L62.9019 69.2609C62.5995 69.4704 62.2489 69.5999 61.8828 69.6374C61.5168 69.6749 61.1472 69.619 60.8085 69.4751L59.0047 68.7528C59.3046 67.7529 59.2275 66.6777 58.7881 65.7308C58.3487 64.7838 57.5774 64.0308 56.6202 63.6141L48.3213 60.0117C47.2836 59.5614 46.1096 59.5414 45.0572 59.9563C44.0048 60.3712 43.1602 61.1869 42.709 62.2242L33.7509 82.8545C33.302 83.8925 33.2831 85.0662 33.6983 86.1181C34.1136 87.1701 34.9291 88.0144 35.966 88.4659L44.2642 92.0684C45.0983 92.4293 46.0257 92.5147 46.9117 92.3124C47.7977 92.1101 48.5961 91.6306 49.1909 90.9435C50.1395 91.4897 51.1218 92.0352 52.1378 92.58C51.8369 93.2044 51.6963 93.8941 51.729 94.5865C51.7616 95.2789 51.9663 95.9523 52.3247 96.5457C52.683 97.1391 53.1836 97.6338 53.7812 97.9851C54.3788 98.3363 55.0546 98.5331 55.7473 98.5575C55.8262 99.6798 56.3172 100.733 57.126 101.515C57.9347 102.297 59.004 102.753 60.1283 102.794C60.1699 103.945 60.6457 105.037 61.4599 105.851C62.2741 106.665 63.3663 107.141 64.517 107.182C64.5512 108.07 64.8435 108.929 65.3581 109.653C65.8727 110.378 66.5873 110.936 67.4145 111.261C68.2417 111.585 69.1455 111.662 70.0154 111.481C70.8853 111.299 71.6835 110.869 72.3124 110.241L74.6787 107.875L78.2934 110.481C79.0227 111.008 79.879 111.331 80.7745 111.418C81.67 111.505 82.5726 111.353 83.3897 110.976C84.2068 110.6 84.9092 110.012 85.4247 109.275C85.9403 108.538 86.2506 107.677 86.3238 106.78C86.6365 106.84 86.954 106.871 87.2723 106.873C88.5341 106.879 89.7527 106.414 90.6895 105.568C91.6263 104.723 92.214 103.558 92.3376 102.303C92.7087 102.389 93.0883 102.432 93.4692 102.433C93.7468 102.433 94.0239 102.41 94.2978 102.366C95.4867 102.176 96.5689 101.568 97.3501 100.652C98.1312 99.7356 98.5601 98.571 98.5597 97.367C98.8351 97.4117 99.1136 97.4345 99.3925 97.4353C100.497 97.4436 101.573 97.087 102.454 96.4209C103.335 95.7547 103.971 94.8163 104.264 93.7514L111.197 90.7095C111.771 91.4791 112.588 92.0321 113.516 92.2788C114.444 92.5254 115.428 92.4513 116.309 92.0684L124.607 88.4659C125.644 88.0144 126.459 87.1701 126.874 86.1181C127.29 85.0662 127.271 83.8925 126.822 82.8545L117.863 62.2244Z" fill="url(#paint2_linear_299_2429)"/>
<path fill-rule="evenodd" clip-rule="evenodd" d="M80.2388 24.6032C83.0959 24.6028 85.8889 25.4496 88.2647 27.0366C90.6405 28.6236 92.4923 30.8795 93.5859 33.5189C94.6796 36.1584 94.9659 39.0629 94.4088 41.8651C93.8517 44.6674 92.4761 47.2414 90.4559 49.2618C88.4358 51.2822 85.8619 52.6582 83.0598 53.2157C80.2576 53.7732 77.3531 53.4873 74.7135 52.394C72.0739 51.3007 69.8177 49.4492 68.2304 47.0737C66.6431 44.6981 65.7959 41.9052 65.7959 39.0481C65.8007 35.2189 67.3238 31.5479 70.0313 28.8401C72.7388 26.1322 76.4096 24.6086 80.2388 24.6032ZM80.2388 55.7442C83.541 55.7444 86.7692 54.7655 89.515 52.9311C92.2608 51.0967 94.4011 48.4892 95.665 45.4384C96.9289 42.3877 97.2597 39.0306 96.6157 35.7918C95.9716 32.553 94.3816 29.5779 92.0467 27.2428C89.7117 24.9077 86.7368 23.3174 83.498 22.673C80.2593 22.0287 76.9022 22.3593 73.8513 23.6229C70.8004 24.8865 68.1928 27.0265 66.3581 29.7722C64.5235 32.5179 63.5442 35.7459 63.5442 39.0481C63.5492 43.4744 65.3096 47.718 68.4393 50.848C71.5691 53.978 75.8125 55.7388 80.2388 55.7442ZM80.2388 59.6964C84.3226 59.6963 88.3147 58.4852 91.7102 56.2163C95.1058 53.9474 97.7523 50.7226 99.315 46.9496C100.878 43.1766 101.287 39.025 100.49 35.0196C99.6931 31.0143 97.7265 27.3352 94.8388 24.4475C91.9511 21.5598 88.2719 19.5933 84.2666 18.7966C80.2612 17.9999 76.1096 18.4089 72.3366 19.9717C68.5637 21.5345 65.3389 24.1811 63.07 27.5766C60.8012 30.9722 59.5902 34.9643 59.5902 39.0481C59.5962 44.5226 61.7736 49.7711 65.6447 53.6421C69.5158 57.5131 74.7643 59.6905 80.2388 59.6964ZM76.2377 35.0298C76.2377 36.317 77.4716 37.4381 79.115 37.8005V32.2589C77.4716 32.6214 76.2377 33.7423 76.2377 35.0298ZM84.2414 43.0679C84.2414 41.7786 83.0075 40.6577 81.3659 40.2952V45.8374C83.0077 45.4749 84.2414 44.3538 84.2414 43.0679ZM76.2377 43.0679C76.2396 42.9189 76.2119 42.7709 76.1561 42.6326C76.1004 42.4944 76.0178 42.3685 75.913 42.2625C75.8083 42.1564 75.6835 42.0721 75.546 42.0147C75.4084 41.9572 75.2609 41.9276 75.1118 41.9276C74.9627 41.9276 74.8151 41.9572 74.6776 42.0147C74.54 42.0721 74.4152 42.1564 74.3105 42.2625C74.2058 42.3685 74.1231 42.4944 74.0674 42.6326C74.0117 42.7709 73.984 42.9189 73.9859 43.0679C73.9859 45.5863 76.202 47.689 79.1141 48.1247V49.1634C79.1122 49.3123 79.1399 49.4602 79.1956 49.5983C79.2512 49.7365 79.3338 49.8622 79.4385 49.9682C79.5431 50.0742 79.6678 50.1584 79.8052 50.2158C79.9426 50.2732 80.0901 50.3028 80.2391 50.3028C80.388 50.3028 80.5355 50.2732 80.6729 50.2158C80.8104 50.1584 80.935 50.0742 81.0397 49.9682C81.1444 49.8622 81.2269 49.7365 81.2826 49.5983C81.3383 49.4602 81.366 49.3123 81.3641 49.1634V48.1251C84.2762 47.6894 86.4923 45.5866 86.4923 43.0683C86.4923 40.5463 84.2762 38.4456 81.3641 38.0082V32.2589C83.0058 32.6214 84.2395 33.7424 84.2395 35.03C84.2395 35.3287 84.3582 35.6152 84.5695 35.8265C84.7807 36.0377 85.0672 36.1564 85.3659 36.1564C85.6647 36.1564 85.9512 36.0377 86.1624 35.8265C86.3736 35.6152 86.4923 35.3287 86.4923 35.03C86.4923 32.5097 84.2762 30.4089 81.3641 29.971V28.9325C81.366 28.7836 81.3383 28.6358 81.2826 28.4976C81.2269 28.3594 81.1444 28.2337 81.0397 28.1277C80.935 28.0217 80.8104 27.9376 80.6729 27.8801C80.5355 27.8227 80.388 27.7931 80.2391 27.7931C80.0901 27.7931 79.9426 27.8227 79.8052 27.8801C79.6678 27.9376 79.5431 28.0217 79.4385 28.1277C79.3338 28.2337 79.2512 28.3594 79.1956 28.4976C79.1399 28.6358 79.1122 28.7836 79.1141 28.9325V29.971C76.202 30.4089 73.9859 32.5097 73.9859 35.03C73.9859 37.5503 76.202 39.6505 79.1141 40.0884V45.8375C77.4707 45.4751 76.2368 44.354 76.2368 43.0681L76.2377 43.0679Z" fill="url(#paint3_linear_299_2429)"/>
<defs>
<radialGradient id="paint0_radial_299_2429" cx="0" cy="0" r="1" gradientUnits="userSpaceOnUse" gradientTransform="translate(79.9 65.8999) rotate(90) scale(65.5 79.5)">
<stop stop-color="#51473A" stop-opacity="0.65"/>
<stop offset="1" stop-color="#251F16" stop-opacity="0.42"/>
</radialGradient>
<linearGradient id="paint1_linear_299_2429" x1="79.9" y1="0.399902" x2="79.9" y2="131.4" gradientUnits="userSpaceOnUse">
<stop stop-color="#FFFAF0" stop-opacity="0.41"/>
<stop offset="1" stop-color="#FFE1AB" stop-opacity="0.18"/>
</linearGradient>
<linearGradient id="paint2_linear_299_2429" x1="80.2863" y1="59.6589" x2="80.2863" y2="111.576" gradientUnits="userSpaceOnUse">
<stop stop-color="#443821"/>
<stop offset="1" stop-color="#FFE1AB"/>
</linearGradient>
<linearGradient id="paint3_linear_299_2429" x1="80.2384" y1="18.3999" x2="80.2384" y2="59.6964" gradientUnits="userSpaceOnUse">
<stop stop-color="#443821"/>
<stop offset="1" stop-color="#FFE1AB"/>
</linearGradient>
</defs>
</svg>
