<svg width="14" height="14" viewBox="0 0 14 14" fill="none" xmlns="http://www.w3.org/2000/svg">
<g clip-path="url(#clip0_197_5409)">
<path d="M8.9395 5.08941L6.35825 7.67066L5.06033 6.37274C4.95087 6.26328 4.80242 6.20179 4.64762 6.20179C4.49283 6.20179 4.34437 6.26328 4.23491 6.37274C4.12546 6.4822 4.06396 6.63065 4.06396 6.78545C4.06396 6.94024 4.12546 7.0887 4.23491 7.19816L5.947 8.91024C6.00117 8.96448 6.06551 9.0075 6.13632 9.03686C6.20714 9.06621 6.28305 9.08132 6.35971 9.08132C6.43637 9.08132 6.51227 9.06621 6.58309 9.03686C6.6539 9.0075 6.71824 8.96448 6.77241 8.91024L9.76491 5.91482C9.87437 5.80537 9.93586 5.65691 9.93586 5.50211C9.93586 5.34732 9.87437 5.19886 9.76491 5.08941C9.65546 4.97995 9.507 4.91846 9.35221 4.91846C9.19741 4.91846 9.04895 4.97995 8.9395 5.08941Z" fill="#A39781"/>
<path d="M13.0724 6.99994C13.0715 6.88556 13.0949 6.77229 13.1412 6.66769C13.1875 6.56308 13.2555 6.46953 13.3408 6.39328C13.6437 6.1187 13.8543 5.75722 13.9439 5.35831C14.0335 4.9594 13.9976 4.54256 13.8411 4.16484C13.6847 3.78712 13.4153 3.46698 13.0699 3.24824C12.7245 3.02949 12.32 2.92284 11.9116 2.94286C11.7975 2.94873 11.6833 2.93056 11.5766 2.88954C11.47 2.84853 11.3731 2.78557 11.2922 2.70474C11.2114 2.62391 11.1484 2.52702 11.1074 2.42033C11.0664 2.31363 11.0482 2.19952 11.0541 2.08536C11.0741 1.67701 10.9675 1.27245 10.7487 0.927056C10.53 0.581658 10.2098 0.3123 9.83213 0.155848C9.45441 -0.000603795 9.03757 -0.0365036 8.63866 0.0530622C8.23975 0.142628 7.87827 0.353282 7.60369 0.656193C7.52575 0.73836 7.4319 0.803795 7.32785 0.848512C7.2238 0.893228 7.11174 0.916289 6.99849 0.916289C6.88523 0.916289 6.77317 0.893228 6.66912 0.848512C6.56507 0.803795 6.47122 0.73836 6.39328 0.656193C6.1187 0.353282 5.75722 0.142628 5.35831 0.0530622C4.9594 -0.0365036 4.54256 -0.000603795 4.16484 0.155848C3.78712 0.3123 3.46698 0.581658 3.24824 0.927056C3.02949 1.27245 2.92284 1.67701 2.94286 2.08536C2.94918 2.1995 2.93112 2.31367 2.88989 2.42029C2.84865 2.52691 2.78518 2.62352 2.70369 2.70369C2.62398 2.7858 2.52744 2.84968 2.42071 2.89096C2.31398 2.93225 2.19958 2.94995 2.08536 2.94286C1.67701 2.92284 1.27245 3.02949 0.927056 3.24824C0.581658 3.46698 0.3123 3.78712 0.155848 4.16484C-0.000603795 4.54256 -0.0365036 4.9594 0.0530622 5.35831C0.142628 5.75722 0.353282 6.1187 0.656193 6.39328C0.740691 6.46983 0.808221 6.56324 0.854437 6.66747C0.900652 6.77171 0.924529 6.88446 0.924529 6.99849C0.924529 7.11251 0.900652 7.22526 0.854437 7.3295C0.808221 7.43373 0.740691 7.52714 0.656193 7.60369C0.353282 7.87827 0.142628 8.23975 0.0530622 8.63866C-0.0365036 9.03757 -0.000603795 9.45441 0.155848 9.83213C0.3123 10.2098 0.581658 10.53 0.927056 10.7487C1.27245 10.9675 1.67701 11.0741 2.08536 11.0541C2.19952 11.0482 2.31363 11.0664 2.42033 11.1074C2.52702 11.1484 2.62391 11.2114 2.70474 11.2922C2.78557 11.3731 2.84853 11.47 2.88954 11.5766C2.93056 11.6833 2.94873 11.7975 2.94286 11.9116C2.9189 12.3212 3.0239 12.728 3.2431 13.0749C3.4623 13.4218 3.78469 13.6912 4.16494 13.8454C4.40799 13.9468 4.66866 13.9993 4.93203 13.9999C5.20755 13.999 5.4798 13.9401 5.73105 13.8271C5.98231 13.714 6.20695 13.5493 6.39036 13.3437C6.4683 13.2615 6.56215 13.1961 6.6662 13.1514C6.77025 13.1067 6.88232 13.0836 6.99557 13.0836C7.10882 13.0836 7.22088 13.1067 7.32493 13.1514C7.42898 13.1961 7.52284 13.2615 7.60078 13.3437C7.87536 13.6466 8.23684 13.8573 8.63574 13.9468C9.03465 14.0364 9.45149 14.0005 9.82921 13.844C10.2069 13.6876 10.5271 13.4182 10.7458 13.0728C10.9646 12.7274 11.0712 12.3229 11.0512 11.9145C11.0453 11.8004 11.0635 11.6863 11.1045 11.5796C11.1455 11.4729 11.2085 11.376 11.2893 11.2951C11.3701 11.2143 11.467 11.1514 11.5737 11.1103C11.6804 11.0693 11.7945 11.0512 11.9087 11.057C12.317 11.0771 12.7216 10.9704 13.067 10.7516C13.4124 10.5329 13.6818 10.2128 13.8382 9.83504C13.9947 9.45732 14.0306 9.04048 13.941 8.64158C13.8514 8.24267 13.6408 7.88119 13.3379 7.60661C13.2531 7.53009 13.1856 7.43643 13.1399 7.33183C13.0941 7.22724 13.0711 7.1141 13.0724 6.99994ZM12.5591 8.45828C12.6833 8.57109 12.7697 8.71941 12.8066 8.88307C12.8435 9.04673 12.8291 9.21779 12.7654 9.37298C12.7017 9.52818 12.5917 9.65998 12.4504 9.75046C12.3091 9.84094 12.1434 9.88571 11.9758 9.87869C11.6986 9.86406 11.4214 9.90778 11.1621 10.007C10.9029 10.1063 10.6673 10.2589 10.4708 10.4549C10.2742 10.6509 10.121 10.886 10.021 11.145C9.921 11.4039 9.8765 11.681 9.89036 11.9583C9.89738 12.1259 9.85261 12.2916 9.76213 12.4329C9.67164 12.5742 9.53984 12.6842 9.38465 12.7479C9.22946 12.8116 9.0584 12.826 8.89474 12.7891C8.73108 12.7522 8.58276 12.6658 8.46994 12.5416C8.284 12.3359 8.05697 12.1714 7.80351 12.0588C7.55006 11.9463 7.27581 11.8881 6.99849 11.8881C6.72116 11.8881 6.44691 11.9463 6.19346 12.0588C5.94 12.1714 5.71297 12.3359 5.52703 12.5416C5.41421 12.6658 5.26589 12.7522 5.10223 12.7891C4.93857 12.826 4.76751 12.8116 4.61232 12.7479C4.45712 12.6842 4.32532 12.5742 4.23484 12.4329C4.14436 12.2916 4.09959 12.1259 4.10661 11.9583C4.11801 11.6913 4.07533 11.4247 3.98114 11.1746C3.88695 10.9246 3.74319 10.6961 3.5585 10.5029C3.3738 10.3098 3.15198 10.156 2.90635 10.0507C2.66072 9.94545 2.39635 9.8909 2.12911 9.89036H2.04161C1.87399 9.89738 1.70827 9.85261 1.56698 9.76213C1.4257 9.67164 1.31572 9.53984 1.25198 9.38465C1.18825 9.22946 1.17386 9.0584 1.21077 8.89474C1.24768 8.73108 1.3341 8.58276 1.45828 8.46994C1.66037 8.28269 1.82124 8.05539 1.93062 7.80252C2.04 7.54966 2.0955 7.27678 2.09358 7.00128C2.09166 6.72577 2.03236 6.45369 1.91946 6.20238C1.80657 5.95106 1.64255 5.72602 1.43786 5.54161C1.31368 5.4288 1.22726 5.28047 1.19035 5.11681C1.15344 4.95315 1.16783 4.78209 1.23157 4.6269C1.2953 4.47171 1.40529 4.33991 1.54657 4.24943C1.68785 4.15894 1.85357 4.11417 2.02119 4.12119C2.29865 4.13625 2.57617 4.09284 2.83577 3.99378C3.09537 3.89472 3.33126 3.74221 3.52816 3.54614C3.72505 3.35008 3.87854 3.11483 3.97869 2.85565C4.07885 2.59646 4.12342 2.31912 4.10953 2.04161C4.1025 1.87399 4.14728 1.70827 4.23776 1.56698C4.32824 1.4257 4.46004 1.31572 4.61523 1.25198C4.77043 1.18825 4.94149 1.17386 5.10515 1.21077C5.26881 1.24768 5.41713 1.3341 5.52994 1.45828C5.71719 1.66037 5.9445 1.82124 6.19736 1.93062C6.45023 2.04 6.72311 2.0955 6.99861 2.09358C7.27411 2.09166 7.54619 2.03236 7.79751 1.91946C8.04882 1.80657 8.27386 1.64255 8.45828 1.43786C8.57109 1.31368 8.71941 1.22726 8.88307 1.19035C9.04673 1.15344 9.21779 1.16783 9.37298 1.23157C9.52818 1.2953 9.65998 1.40529 9.75046 1.54657C9.84094 1.68785 9.88571 1.85357 9.87869 2.02119C9.86363 2.29865 9.90704 2.57617 10.0061 2.83577C10.1052 3.09537 10.2577 3.33126 10.4537 3.52816C10.6498 3.72505 10.8851 3.87854 11.1442 3.97869C11.4034 4.07885 11.6808 4.12342 11.9583 4.10953C12.1274 4.0958 12.2964 4.13727 12.44 4.22772C12.5835 4.31817 12.6939 4.45272 12.7545 4.61119C12.8272 4.76628 12.8477 4.9407 12.813 5.10841C12.7783 5.27611 12.6902 5.42808 12.562 5.54161C12.3563 5.72756 12.1918 5.95459 12.0792 6.20804C11.9667 6.4615 11.9085 6.73574 11.9085 7.01307C11.9085 7.2904 11.9667 7.56464 12.0792 7.81809C12.1918 8.07155 12.3563 8.29858 12.562 8.48453L12.5591 8.45828Z" fill="#A39781"/>
</g>
<defs>
<clipPath id="clip0_197_5409">
<rect width="14" height="14" fill="white"/>
</clipPath>
</defs>
</svg>
